<svg width="1174" height="803" viewBox="0 0 1174 803" fill="none" xmlns="http://www.w3.org/2000/svg">
<g filter="url(#filter0_bdii_133_1721)">
<path d="M529 4H79C50.7157 4 36.5736 4 27.7869 12.7868C19 21.5736 19 35.7157 19 64V202C19 230.284 19 244.426 27.7868 253.213C36.5736 262 50.7157 262 79 262H559C572.968 262 584.707 271.546 588.047 284.47C587 292.587 587 303.081 587 317V485C587 501.569 573.569 515 557 515H77C48.7157 515 34.5736 515 25.7868 523.787C17 532.574 17 546.716 17 575V713C17 741.284 17 755.426 25.7868 764.213C34.5736 773 48.7157 773 77 773H527C555.284 773 569.426 773 578.213 764.213C587 755.426 587 741.284 587 713V545C587 528.431 600.431 515 617 515H1097C1125.28 515 1139.43 515 1148.21 506.213C1157 497.426 1157 483.284 1157 455V317C1157 288.716 1157 274.574 1148.21 265.787C1139.43 257 1125.28 257 1097 257H647C628.375 257 615.882 257 607.012 259.509C596.41 254.883 589 244.307 589 232V64C589 35.7157 589 21.5736 580.213 12.7868C571.426 4 557.284 4 529 4Z" fill="white"/>
<path d="M588.419 284.518L588.428 284.446L588.41 284.376C585.028 271.291 573.143 261.625 559 261.625H79C64.8473 261.625 54.2704 261.624 46.1318 260.53C38.004 259.437 32.3641 257.26 28.052 252.948C23.7399 248.636 21.5628 242.996 20.47 234.868C19.3758 226.73 19.375 216.153 19.375 202V64C19.375 49.8473 19.3758 39.2704 20.47 31.1318C21.5628 23.004 23.7399 17.3641 28.052 13.052L27.7869 12.7868L28.052 13.052C32.3641 8.73985 38.004 6.56276 46.1318 5.47001C54.2704 4.3758 64.8472 4.375 79 4.375H529C543.153 4.375 553.73 4.3758 561.868 5.47001C569.996 6.56276 575.636 8.73985 579.948 13.052C584.26 17.3641 586.437 23.004 587.53 31.1318C588.624 39.2704 588.625 49.8473 588.625 64V232C588.625 244.461 596.129 255.169 606.862 259.853L606.985 259.906L607.114 259.87C615.921 257.379 628.349 257.375 647 257.375H1097C1111.15 257.375 1121.73 257.376 1129.87 258.47C1138 259.563 1143.64 261.74 1147.95 266.052C1152.26 270.364 1154.44 276.004 1155.53 284.132C1156.62 292.27 1156.62 302.847 1156.62 317V455C1156.62 469.153 1156.62 479.73 1155.53 487.868C1154.44 495.996 1152.26 501.636 1147.95 505.948C1143.64 510.26 1138 512.437 1129.87 513.53C1121.73 514.624 1111.15 514.625 1097 514.625H617C600.224 514.625 586.625 528.224 586.625 545V713C586.625 727.153 586.624 737.73 585.53 745.868C584.437 753.996 582.26 759.636 577.948 763.948C573.636 768.26 567.996 770.437 559.868 771.53C551.73 772.624 541.153 772.625 527 772.625H77C62.8472 772.625 52.2704 772.624 44.1318 771.53C36.004 770.437 30.3641 768.26 26.052 763.948C21.7399 759.636 19.5628 753.996 18.47 745.868C17.3758 737.73 17.375 727.153 17.375 713V575C17.375 560.847 17.3758 550.27 18.47 542.132C19.5628 534.004 21.7399 528.364 26.052 524.052C30.3641 519.74 36.004 517.563 44.1318 516.47C52.2704 515.376 62.8473 515.375 77 515.375H557C573.776 515.375 587.375 501.776 587.375 485V317C587.375 303.071 587.376 292.605 588.419 284.518Z" stroke="white" stroke-opacity="0.3" stroke-width="0.75"/>
<path d="M588.419 284.518L588.428 284.446L588.41 284.376C585.028 271.291 573.143 261.625 559 261.625H79C64.8473 261.625 54.2704 261.624 46.1318 260.53C38.004 259.437 32.3641 257.26 28.052 252.948C23.7399 248.636 21.5628 242.996 20.47 234.868C19.3758 226.73 19.375 216.153 19.375 202V64C19.375 49.8473 19.3758 39.2704 20.47 31.1318C21.5628 23.004 23.7399 17.3641 28.052 13.052L27.7869 12.7868L28.052 13.052C32.3641 8.73985 38.004 6.56276 46.1318 5.47001C54.2704 4.3758 64.8472 4.375 79 4.375H529C543.153 4.375 553.73 4.3758 561.868 5.47001C569.996 6.56276 575.636 8.73985 579.948 13.052C584.26 17.3641 586.437 23.004 587.53 31.1318C588.624 39.2704 588.625 49.8473 588.625 64V232C588.625 244.461 596.129 255.169 606.862 259.853L606.985 259.906L607.114 259.87C615.921 257.379 628.349 257.375 647 257.375H1097C1111.15 257.375 1121.73 257.376 1129.87 258.47C1138 259.563 1143.64 261.74 1147.95 266.052C1152.26 270.364 1154.44 276.004 1155.53 284.132C1156.62 292.27 1156.62 302.847 1156.62 317V455C1156.62 469.153 1156.62 479.73 1155.53 487.868C1154.44 495.996 1152.26 501.636 1147.95 505.948C1143.64 510.26 1138 512.437 1129.87 513.53C1121.73 514.624 1111.15 514.625 1097 514.625H617C600.224 514.625 586.625 528.224 586.625 545V713C586.625 727.153 586.624 737.73 585.53 745.868C584.437 753.996 582.26 759.636 577.948 763.948C573.636 768.26 567.996 770.437 559.868 771.53C551.73 772.624 541.153 772.625 527 772.625H77C62.8472 772.625 52.2704 772.624 44.1318 771.53C36.004 770.437 30.3641 768.26 26.052 763.948C21.7399 759.636 19.5628 753.996 18.47 745.868C17.3758 737.73 17.375 727.153 17.375 713V575C17.375 560.847 17.3758 550.27 18.47 542.132C19.5628 534.004 21.7399 528.364 26.052 524.052C30.3641 519.74 36.004 517.563 44.1318 516.47C52.2704 515.376 62.8473 515.375 77 515.375H557C573.776 515.375 587.375 501.776 587.375 485V317C587.375 303.071 587.376 292.605 588.419 284.518Z" stroke="url(#paint0_linear_133_1721)" stroke-opacity="0.2" stroke-width="0.75"/>
</g>
<defs>
<filter id="filter0_bdii_133_1721" x="-40" y="-53" width="1254" height="883" filterUnits="userSpaceOnUse" color-interpolation-filters="sRGB">
<feFlood flood-opacity="0" result="BackgroundImageFix"/>
<feGaussianBlur in="BackgroundImageFix" stdDeviation="28.5"/>
<feComposite in2="SourceAlpha" operator="in" result="effect1_backgroundBlur_133_1721"/>
<feColorMatrix in="SourceAlpha" type="matrix" values="0 0 0 0 0 0 0 0 0 0 0 0 0 0 0 0 0 0 127 0" result="hardAlpha"/>
<feOffset dy="12.825"/>
<feGaussianBlur stdDeviation="8.19375"/>
<feComposite in2="hardAlpha" operator="out"/>
<feColorMatrix type="matrix" values="0 0 0 0 0 0 0 0 0 0 0 0 0 0 0 0 0 0 0.05 0"/>
<feBlend mode="normal" in2="effect1_backgroundBlur_133_1721" result="effect2_dropShadow_133_1721"/>
<feBlend mode="normal" in="SourceGraphic" in2="effect2_dropShadow_133_1721" result="shape"/>
<feColorMatrix in="SourceAlpha" type="matrix" values="0 0 0 0 0 0 0 0 0 0 0 0 0 0 0 0 0 0 127 0" result="hardAlpha"/>
<feOffset dx="-0.7125" dy="0.7125"/>
<feGaussianBlur stdDeviation="0.35625"/>
<feComposite in2="hardAlpha" operator="arithmetic" k2="-1" k3="1"/>
<feColorMatrix type="matrix" values="0 0 0 0 1 0 0 0 0 1 0 0 0 0 1 0 0 0 0.35 0"/>
<feBlend mode="normal" in2="shape" result="effect3_innerShadow_133_1721"/>
<feColorMatrix in="SourceAlpha" type="matrix" values="0 0 0 0 0 0 0 0 0 0 0 0 0 0 0 0 0 0 127 0" result="hardAlpha"/>
<feOffset dy="0.7125"/>
<feGaussianBlur stdDeviation="2.1375"/>
<feComposite in2="hardAlpha" operator="arithmetic" k2="-1" k3="1"/>
<feColorMatrix type="matrix" values="0 0 0 0 1 0 0 0 0 1 0 0 0 0 1 0 0 0 0.35 0"/>
<feBlend mode="normal" in2="effect3_innerShadow_133_1721" result="effect4_innerShadow_133_1721"/>
</filter>
<linearGradient id="paint0_linear_133_1721" x1="587" y1="4" x2="587" y2="773" gradientUnits="userSpaceOnUse">
<stop stop-color="white"/>
<stop offset="1" stop-color="white" stop-opacity="0"/>
</linearGradient>
</defs>
</svg>
