<svg width="1172" height="545" viewBox="0 0 1172 545" fill="none" xmlns="http://www.w3.org/2000/svg">
<g filter="url(#filter0_bdii_214_5870)">
<path fill-rule="evenodd" clip-rule="evenodd" d="M77 4H527C555.284 4 569.426 4 578.213 12.7868C587 21.5736 587 35.7157 587 64V232C587 244.307 594.41 254.883 605.012 259.509C613.882 257 626.375 257 645 257H1095C1123.28 257 1137.43 257 1146.21 265.787C1155 274.574 1155 288.716 1155 317V455C1155 483.284 1155 497.426 1146.21 506.213C1137.43 515 1123.28 515 1095 515H615C614.902 515 614.804 515 614.706 515.001C591.426 515.087 584.544 508.903 584.96 486.566C584.987 486.047 585 485.525 585 485V317C585 303.081 585 292.587 586.047 284.47C582.707 271.546 570.968 262 557 262H77C48.7157 262 34.5736 262 25.7868 253.213C17 244.426 17 230.284 17 202V64C17 35.7157 17 21.5736 25.7869 12.7868C34.5736 4 48.7157 4 77 4Z" fill="#FFFBFB" fill-opacity="0.7" shape-rendering="crispEdges"/>
<path fill-rule="evenodd" clip-rule="evenodd" d="M77 4H527C555.284 4 569.426 4 578.213 12.7868C587 21.5736 587 35.7157 587 64V232C587 244.307 594.41 254.883 605.012 259.509C613.882 257 626.375 257 645 257H1095C1123.28 257 1137.43 257 1146.21 265.787C1155 274.574 1155 288.716 1155 317V455C1155 483.284 1155 497.426 1146.21 506.213C1137.43 515 1123.28 515 1095 515H615C614.902 515 614.804 515 614.706 515.001C591.426 515.087 584.544 508.903 584.96 486.566C584.987 486.047 585 485.525 585 485V317C585 303.081 585 292.587 586.047 284.47C582.707 271.546 570.968 262 557 262H77C48.7157 262 34.5736 262 25.7868 253.213C17 244.426 17 230.284 17 202V64C17 35.7157 17 21.5736 25.7869 12.7868C34.5736 4 48.7157 4 77 4Z" fill="url(#paint0_radial_214_5870)" fill-opacity="0.4" shape-rendering="crispEdges"/>
<path d="M604.862 259.853L604.985 259.906L605.114 259.87C613.921 257.379 626.349 257.375 645 257.375H1095C1109.15 257.375 1119.73 257.376 1127.87 258.47C1136 259.563 1141.64 261.74 1145.95 266.052C1150.26 270.364 1152.44 276.004 1153.53 284.132C1154.62 292.27 1154.62 302.847 1154.62 317V455C1154.62 469.153 1154.62 479.73 1153.53 487.868C1152.44 495.996 1150.26 501.636 1145.95 505.948C1141.64 510.26 1136 512.437 1127.87 513.53C1119.73 514.624 1109.15 514.625 1095 514.625H615C614.901 514.625 614.803 514.625 614.704 514.626C603.068 514.669 595.666 513.137 591.204 508.92C586.752 504.712 585.127 497.732 585.335 486.579C585.361 486.056 585.375 485.53 585.375 485V317C585.375 303.071 585.376 292.605 586.419 284.518L586.428 284.446L586.41 284.376C583.028 271.291 571.143 261.625 557 261.625H77C62.8473 261.625 52.2704 261.624 44.1318 260.53C36.004 259.437 30.3641 257.26 26.052 252.948C21.7399 248.636 19.5628 242.996 18.47 234.868C17.3758 226.73 17.375 216.153 17.375 202V64C17.375 49.8473 17.3758 39.2704 18.47 31.1318C19.5628 23.004 21.7399 17.3641 26.052 13.052L25.7869 12.7868L26.052 13.052C30.3641 8.73985 36.004 6.56276 44.1318 5.47001C52.2704 4.3758 62.8472 4.375 77 4.375H527C541.153 4.375 551.73 4.3758 559.868 5.47001C567.996 6.56276 573.636 8.73985 577.948 13.052C582.26 17.3641 584.437 23.004 585.53 31.1318C586.624 39.2704 586.625 49.8473 586.625 64V232C586.625 244.461 594.129 255.169 604.862 259.853Z" stroke="white" stroke-opacity="0.3" stroke-width="0.75" shape-rendering="crispEdges"/>
<path d="M604.862 259.853L604.985 259.906L605.114 259.87C613.921 257.379 626.349 257.375 645 257.375H1095C1109.15 257.375 1119.73 257.376 1127.87 258.47C1136 259.563 1141.64 261.74 1145.95 266.052C1150.26 270.364 1152.44 276.004 1153.53 284.132C1154.62 292.27 1154.62 302.847 1154.62 317V455C1154.62 469.153 1154.62 479.73 1153.53 487.868C1152.44 495.996 1150.26 501.636 1145.95 505.948C1141.64 510.26 1136 512.437 1127.87 513.53C1119.73 514.624 1109.15 514.625 1095 514.625H615C614.901 514.625 614.803 514.625 614.704 514.626C603.068 514.669 595.666 513.137 591.204 508.92C586.752 504.712 585.127 497.732 585.335 486.579C585.361 486.056 585.375 485.53 585.375 485V317C585.375 303.071 585.376 292.605 586.419 284.518L586.428 284.446L586.41 284.376C583.028 271.291 571.143 261.625 557 261.625H77C62.8473 261.625 52.2704 261.624 44.1318 260.53C36.004 259.437 30.3641 257.26 26.052 252.948C21.7399 248.636 19.5628 242.996 18.47 234.868C17.3758 226.73 17.375 216.153 17.375 202V64C17.375 49.8473 17.3758 39.2704 18.47 31.1318C19.5628 23.004 21.7399 17.3641 26.052 13.052L25.7869 12.7868L26.052 13.052C30.3641 8.73985 36.004 6.56276 44.1318 5.47001C52.2704 4.3758 62.8472 4.375 77 4.375H527C541.153 4.375 551.73 4.3758 559.868 5.47001C567.996 6.56276 573.636 8.73985 577.948 13.052C582.26 17.3641 584.437 23.004 585.53 31.1318C586.624 39.2704 586.625 49.8473 586.625 64V232C586.625 244.461 594.129 255.169 604.862 259.853Z" stroke="url(#paint1_linear_214_5870)" stroke-opacity="0.2" stroke-width="0.75" shape-rendering="crispEdges"/>
</g>
<defs>
<filter id="filter0_bdii_214_5870" x="-40" y="-53" width="1252" height="625.002" filterUnits="userSpaceOnUse" color-interpolation-filters="sRGB">
<feFlood flood-opacity="0" result="BackgroundImageFix"/>
<feGaussianBlur in="BackgroundImageFix" stdDeviation="28.5"/>
<feComposite in2="SourceAlpha" operator="in" result="effect1_backgroundBlur_214_5870"/>
<feColorMatrix in="SourceAlpha" type="matrix" values="0 0 0 0 0 0 0 0 0 0 0 0 0 0 0 0 0 0 127 0" result="hardAlpha"/>
<feOffset dy="12.825"/>
<feGaussianBlur stdDeviation="8.19375"/>
<feComposite in2="hardAlpha" operator="out"/>
<feColorMatrix type="matrix" values="0 0 0 0 0 0 0 0 0 0 0 0 0 0 0 0 0 0 0.05 0"/>
<feBlend mode="normal" in2="effect1_backgroundBlur_214_5870" result="effect2_dropShadow_214_5870"/>
<feBlend mode="normal" in="SourceGraphic" in2="effect2_dropShadow_214_5870" result="shape"/>
<feColorMatrix in="SourceAlpha" type="matrix" values="0 0 0 0 0 0 0 0 0 0 0 0 0 0 0 0 0 0 127 0" result="hardAlpha"/>
<feOffset dx="-0.7125" dy="0.7125"/>
<feGaussianBlur stdDeviation="0.35625"/>
<feComposite in2="hardAlpha" operator="arithmetic" k2="-1" k3="1"/>
<feColorMatrix type="matrix" values="0 0 0 0 1 0 0 0 0 1 0 0 0 0 1 0 0 0 0.35 0"/>
<feBlend mode="normal" in2="shape" result="effect3_innerShadow_214_5870"/>
<feColorMatrix in="SourceAlpha" type="matrix" values="0 0 0 0 0 0 0 0 0 0 0 0 0 0 0 0 0 0 127 0" result="hardAlpha"/>
<feOffset dy="0.7125"/>
<feGaussianBlur stdDeviation="2.1375"/>
<feComposite in2="hardAlpha" operator="arithmetic" k2="-1" k3="1"/>
<feColorMatrix type="matrix" values="0 0 0 0 1 0 0 0 0 1 0 0 0 0 1 0 0 0 0.35 0"/>
<feBlend mode="normal" in2="effect3_innerShadow_214_5870" result="effect4_innerShadow_214_5870"/>
</filter>
<radialGradient id="paint0_radial_214_5870" cx="0" cy="0" r="1" gradientUnits="userSpaceOnUse" gradientTransform="translate(129.356 282.171) rotate(50.7193) scale(430.458 290.738)">
<stop stop-color="white"/>
<stop offset="1" stop-color="white" stop-opacity="0"/>
</radialGradient>
<linearGradient id="paint1_linear_214_5870" x1="586" y1="4" x2="586" y2="515.155" gradientUnits="userSpaceOnUse">
<stop stop-color="white"/>
<stop offset="1" stop-color="white" stop-opacity="0"/>
</linearGradient>
</defs>
</svg>
