<svg width="52" height="52" viewBox="0 0 52 52" fill="none" xmlns="http://www.w3.org/2000/svg">
<path d="M0 49.9203C0 50.8927 0.757701 51.6823 1.69093 51.6823H32.8854C33.8187 51.6823 34.5764 50.8927 34.5764 49.9203V26.0062H0V49.9203ZM8.42833 36.2547C9.11875 35.5352 10.2421 35.5352 10.9326 36.2547L15.2242 40.7266L24.4629 31.0999C25.1534 30.3805 26.2767 30.3805 26.9672 31.0999C27.6576 31.8193 27.6576 32.9899 26.9672 33.7093L16.5904 44.5217C16.2131 44.915 15.7187 45.1101 15.2242 45.1101C14.7298 45.1101 14.2354 44.915 13.858 44.5217L8.42833 38.864C7.73792 38.1446 7.73792 36.9741 8.42833 36.2547Z" fill="white"/>
<path d="M26.0625 10.7492H26.1181C26.8729 10.7492 27.4872 11.3894 27.4872 12.1759V16.3246C27.4872 17.1111 26.8729 17.7513 26.1181 17.7513H26.0625C25.3077 17.7513 24.6934 17.1111 24.6934 16.3246V12.1759C24.6934 11.3894 25.3077 10.7492 26.0625 10.7492Z" fill="white"/>
<path d="M8.51358 10.7492H8.458C7.70185 10.7492 7.08887 11.388 7.08887 12.1759V16.3246C7.08887 17.1125 7.70185 17.7513 8.458 17.7513H8.51358C9.26973 17.7513 9.88271 17.1125 9.88271 16.3246V12.1759C9.88271 11.388 9.26973 10.7492 8.51358 10.7492Z" fill="white"/>
<path d="M32.8854 15.837H30.2028V16.3248C30.2028 18.672 28.3714 20.5803 26.1188 20.5803H26.0632C23.8106 20.5803 21.9792 18.672 21.9792 16.3248V15.837H12.6001V16.3248C12.6001 18.672 10.7687 20.5803 8.5161 20.5803H8.46052C6.20789 20.5803 4.37653 18.672 4.37653 16.3248V15.837H1.69386C0.760631 15.837 0.00292969 16.6266 0.00292969 17.599V22.6226H34.5764V17.599C34.5764 16.6266 33.8187 15.837 32.8854 15.837Z" fill="white"/>
<path d="M40.3522 23.5278C46.5032 23.5278 51.4895 18.332 51.4895 11.9228C51.4895 5.51349 46.5032 0.317753 40.3522 0.317753C34.2012 0.317753 29.2148 5.51349 29.2148 11.9228C29.2148 18.332 34.2012 23.5278 40.3522 23.5278Z" fill="#F71F1A"/>
<path d="M39.8894 16.4686V15.9486L39.4894 5.90857H41.9694L41.5694 15.9486V16.4686H39.8894ZM39.6494 19.9086V17.7886H41.8094V19.9086H39.6494Z" fill="white"/>
</svg>
