<svg width="62" height="55" viewBox="0 0 62 55" fill="none" xmlns="http://www.w3.org/2000/svg">
<g clip-path="url(#clip0_3001_3576)">
<mask id="path-1-outside-1_3001_3576" maskUnits="userSpaceOnUse" x="3.19263" y="1" width="54" height="53" fill="black">
<rect fill="white" x="3.19263" y="1" width="54" height="53"/>
<path d="M36.001 11.3085C32.0596 14.3019 31.8711 18.9185 35.2541 22.08C35.5098 22.3178 35.5945 22.6637 35.5051 22.9718C35.0983 24.3649 34.5187 25.7348 33.74 26.977C35.3321 26.5738 37.4125 25.8735 38.8901 24.7376C39.1419 24.5453 39.4677 24.4925 39.7542 24.5785C43.6707 25.7513 48.442 25.1918 51.7049 22.7101C53.6401 21.241 54.8379 19.2237 54.8379 17.0101C54.8379 14.7968 53.6401 12.7783 51.7049 11.3094C47.3941 8.03307 40.3119 8.03307 36.001 11.3085ZM6.07496 45.1246C6.10572 46.6055 7.23917 47.7941 8.80137 47.7941H29.9195C31.404 47.7941 32.6266 46.6332 32.6461 45.205V31.1729C32.6461 30.6732 33.0669 30.2673 33.5872 30.2673C34.1062 30.2673 34.5283 30.6732 34.5283 31.1729C34.5283 36.9698 34.5283 42.7677 34.5283 48.5646C34.5283 51.002 32.4546 53 29.9195 53H8.80137C6.26818 53 4.19263 51.002 4.19263 48.5646V6.49671C4.19263 4.05839 6.26626 2.06123 8.80137 2.06123H29.9195C32.4576 2.06123 34.5283 4.0546 34.5283 6.49671V8.00986C34.5283 8.50951 34.1062 8.91562 33.5872 8.91562C33.0669 8.91562 32.6461 8.50951 32.6461 8.00986V6.49671C32.6461 5.05555 31.4182 3.87345 29.9195 3.87345H26.5433L25.8838 5.60493C25.48 6.66224 24.2898 7.53176 23.1054 7.53176H15.6145C14.4301 7.53176 13.24 6.66224 12.8372 5.60493L12.1767 3.87345H8.80137C7.3007 3.87345 6.07496 5.05271 6.07496 6.49671V45.1246ZM32.6392 48.7487C31.876 49.2871 30.9329 49.6062 29.9195 49.6062H8.80137C7.78617 49.6062 6.84501 49.2871 6.08168 48.7478C6.18071 50.114 7.37471 51.1879 8.80137 51.1879H29.9195C31.3471 51.1879 32.5393 50.114 32.6392 48.7487ZM24.5398 3.87345H14.1792L14.6022 4.98143C14.7368 5.33118 15.2156 5.72143 15.6145 5.72143H23.1054C23.5044 5.72143 23.9832 5.33213 24.1178 4.98143L24.5398 3.87345ZM21.3404 20.749H17.3796V24.8551C17.3796 25.3545 16.9575 25.7606 16.4384 25.7606L12.1729 25.7561V29.5745L16.4384 29.5754C16.9566 29.5754 17.3757 29.9787 17.3757 30.4772L17.3767 34.5805H21.3462L21.3433 30.4772C21.3433 29.9787 21.7634 29.5754 22.2816 29.5754L26.546 29.5745V25.7561L22.2816 25.757C21.7634 25.757 21.3433 25.3528 21.3433 24.8551L21.3404 20.749ZM16.4384 18.937H22.2566C22.7911 18.937 23.2227 19.3227 23.2227 19.8434V23.9524L27.4037 23.9505C27.9622 23.9273 28.4285 24.3 28.4285 24.8532V30.4762C28.4285 30.9749 28.0045 31.3791 27.4874 31.3791H23.2199L23.2247 35.487C23.2247 35.9865 22.8026 36.3926 22.2835 36.3926H16.4394C15.9202 36.3926 15.5021 35.9837 15.5021 35.487L15.5001 31.3791H11.3153C10.7568 31.403 10.2896 31.0284 10.2896 30.4762V24.8532C10.2896 24.3538 10.7145 23.9505 11.2317 23.9505L15.4972 23.9524V19.8666C15.4972 19.3533 15.8981 18.937 16.4384 18.937ZM49.7053 16.2278C50.3358 16.5754 50.3253 17.4506 49.7083 17.789C49.71 17.7928 42.1431 21.9922 41.4531 22.3744C40.8233 22.7229 40.0495 22.2754 40.0495 21.5936C40.0399 21.5936 40.0495 13.1936 40.0495 12.4259C40.0495 11.7229 40.8415 11.3021 41.4568 11.6452C41.4587 11.6424 49.016 15.8437 49.7053 16.2278ZM41.9251 13.99C41.9268 16.0028 41.9278 18.0165 41.9278 20.0284C43.7401 19.022 45.5503 18.0137 47.3624 17.0082C45.5503 16.0018 43.7372 14.9964 41.9251 13.99ZM34.8389 9.89337C39.8447 6.09061 47.8615 6.0906 52.8673 9.89502C55.2474 11.7025 56.7213 14.2185 56.7213 17.0101C56.7213 19.8018 55.2474 22.3168 52.8673 24.1252C49.2313 26.8892 44.0776 27.6097 39.6592 26.4359C36.7135 28.4625 32.2932 29.1426 31.7192 29.2238C30.8416 29.3912 30.231 28.3793 30.8367 27.7319C32.1086 26.3767 32.9756 24.7108 33.5429 22.9782C29.7282 19.0194 30.2089 13.412 34.8389 9.89337Z"/>
</mask>
<path d="M36.001 11.3085C32.0596 14.3019 31.8711 18.9185 35.2541 22.08C35.5098 22.3178 35.5945 22.6637 35.5051 22.9718C35.0983 24.3649 34.5187 25.7348 33.74 26.977C35.3321 26.5738 37.4125 25.8735 38.8901 24.7376C39.1419 24.5453 39.4677 24.4925 39.7542 24.5785C43.6707 25.7513 48.442 25.1918 51.7049 22.7101C53.6401 21.241 54.8379 19.2237 54.8379 17.0101C54.8379 14.7968 53.6401 12.7783 51.7049 11.3094C47.3941 8.03307 40.3119 8.03307 36.001 11.3085ZM6.07496 45.1246C6.10572 46.6055 7.23917 47.7941 8.80137 47.7941H29.9195C31.404 47.7941 32.6266 46.6332 32.6461 45.205V31.1729C32.6461 30.6732 33.0669 30.2673 33.5872 30.2673C34.1062 30.2673 34.5283 30.6732 34.5283 31.1729C34.5283 36.9698 34.5283 42.7677 34.5283 48.5646C34.5283 51.002 32.4546 53 29.9195 53H8.80137C6.26818 53 4.19263 51.002 4.19263 48.5646V6.49671C4.19263 4.05839 6.26626 2.06123 8.80137 2.06123H29.9195C32.4576 2.06123 34.5283 4.0546 34.5283 6.49671V8.00986C34.5283 8.50951 34.1062 8.91562 33.5872 8.91562C33.0669 8.91562 32.6461 8.50951 32.6461 8.00986V6.49671C32.6461 5.05555 31.4182 3.87345 29.9195 3.87345H26.5433L25.8838 5.60493C25.48 6.66224 24.2898 7.53176 23.1054 7.53176H15.6145C14.4301 7.53176 13.24 6.66224 12.8372 5.60493L12.1767 3.87345H8.80137C7.3007 3.87345 6.07496 5.05271 6.07496 6.49671V45.1246ZM32.6392 48.7487C31.876 49.2871 30.9329 49.6062 29.9195 49.6062H8.80137C7.78617 49.6062 6.84501 49.2871 6.08168 48.7478C6.18071 50.114 7.37471 51.1879 8.80137 51.1879H29.9195C31.3471 51.1879 32.5393 50.114 32.6392 48.7487ZM24.5398 3.87345H14.1792L14.6022 4.98143C14.7368 5.33118 15.2156 5.72143 15.6145 5.72143H23.1054C23.5044 5.72143 23.9832 5.33213 24.1178 4.98143L24.5398 3.87345ZM21.3404 20.749H17.3796V24.8551C17.3796 25.3545 16.9575 25.7606 16.4384 25.7606L12.1729 25.7561V29.5745L16.4384 29.5754C16.9566 29.5754 17.3757 29.9787 17.3757 30.4772L17.3767 34.5805H21.3462L21.3433 30.4772C21.3433 29.9787 21.7634 29.5754 22.2816 29.5754L26.546 29.5745V25.7561L22.2816 25.757C21.7634 25.757 21.3433 25.3528 21.3433 24.8551L21.3404 20.749ZM16.4384 18.937H22.2566C22.7911 18.937 23.2227 19.3227 23.2227 19.8434V23.9524L27.4037 23.9505C27.9622 23.9273 28.4285 24.3 28.4285 24.8532V30.4762C28.4285 30.9749 28.0045 31.3791 27.4874 31.3791H23.2199L23.2247 35.487C23.2247 35.9865 22.8026 36.3926 22.2835 36.3926H16.4394C15.9202 36.3926 15.5021 35.9837 15.5021 35.487L15.5001 31.3791H11.3153C10.7568 31.403 10.2896 31.0284 10.2896 30.4762V24.8532C10.2896 24.3538 10.7145 23.9505 11.2317 23.9505L15.4972 23.9524V19.8666C15.4972 19.3533 15.8981 18.937 16.4384 18.937ZM49.7053 16.2278C50.3358 16.5754 50.3253 17.4506 49.7083 17.789C49.71 17.7928 42.1431 21.9922 41.4531 22.3744C40.8233 22.7229 40.0495 22.2754 40.0495 21.5936C40.0399 21.5936 40.0495 13.1936 40.0495 12.4259C40.0495 11.7229 40.8415 11.3021 41.4568 11.6452C41.4587 11.6424 49.016 15.8437 49.7053 16.2278ZM41.9251 13.99C41.9268 16.0028 41.9278 18.0165 41.9278 20.0284C43.7401 19.022 45.5503 18.0137 47.3624 17.0082C45.5503 16.0018 43.7372 14.9964 41.9251 13.99ZM34.8389 9.89337C39.8447 6.09061 47.8615 6.0906 52.8673 9.89502C55.2474 11.7025 56.7213 14.2185 56.7213 17.0101C56.7213 19.8018 55.2474 22.3168 52.8673 24.1252C49.2313 26.8892 44.0776 27.6097 39.6592 26.4359C36.7135 28.4625 32.2932 29.1426 31.7192 29.2238C30.8416 29.3912 30.231 28.3793 30.8367 27.7319C32.1086 26.3767 32.9756 24.7108 33.5429 22.9782C29.7282 19.0194 30.2089 13.412 34.8389 9.89337Z" fill="#814099"/>
<path d="M36.001 11.3085C32.0596 14.3019 31.8711 18.9185 35.2541 22.08C35.5098 22.3178 35.5945 22.6637 35.5051 22.9718C35.0983 24.3649 34.5187 25.7348 33.74 26.977C35.3321 26.5738 37.4125 25.8735 38.8901 24.7376C39.1419 24.5453 39.4677 24.4925 39.7542 24.5785C43.6707 25.7513 48.442 25.1918 51.7049 22.7101C53.6401 21.241 54.8379 19.2237 54.8379 17.0101C54.8379 14.7968 53.6401 12.7783 51.7049 11.3094C47.3941 8.03307 40.3119 8.03307 36.001 11.3085ZM6.07496 45.1246C6.10572 46.6055 7.23917 47.7941 8.80137 47.7941H29.9195C31.404 47.7941 32.6266 46.6332 32.6461 45.205V31.1729C32.6461 30.6732 33.0669 30.2673 33.5872 30.2673C34.1062 30.2673 34.5283 30.6732 34.5283 31.1729C34.5283 36.9698 34.5283 42.7677 34.5283 48.5646C34.5283 51.002 32.4546 53 29.9195 53H8.80137C6.26818 53 4.19263 51.002 4.19263 48.5646V6.49671C4.19263 4.05839 6.26626 2.06123 8.80137 2.06123H29.9195C32.4576 2.06123 34.5283 4.0546 34.5283 6.49671V8.00986C34.5283 8.50951 34.1062 8.91562 33.5872 8.91562C33.0669 8.91562 32.6461 8.50951 32.6461 8.00986V6.49671C32.6461 5.05555 31.4182 3.87345 29.9195 3.87345H26.5433L25.8838 5.60493C25.48 6.66224 24.2898 7.53176 23.1054 7.53176H15.6145C14.4301 7.53176 13.24 6.66224 12.8372 5.60493L12.1767 3.87345H8.80137C7.3007 3.87345 6.07496 5.05271 6.07496 6.49671V45.1246ZM32.6392 48.7487C31.876 49.2871 30.9329 49.6062 29.9195 49.6062H8.80137C7.78617 49.6062 6.84501 49.2871 6.08168 48.7478C6.18071 50.114 7.37471 51.1879 8.80137 51.1879H29.9195C31.3471 51.1879 32.5393 50.114 32.6392 48.7487ZM24.5398 3.87345H14.1792L14.6022 4.98143C14.7368 5.33118 15.2156 5.72143 15.6145 5.72143H23.1054C23.5044 5.72143 23.9832 5.33213 24.1178 4.98143L24.5398 3.87345ZM21.3404 20.749H17.3796V24.8551C17.3796 25.3545 16.9575 25.7606 16.4384 25.7606L12.1729 25.7561V29.5745L16.4384 29.5754C16.9566 29.5754 17.3757 29.9787 17.3757 30.4772L17.3767 34.5805H21.3462L21.3433 30.4772C21.3433 29.9787 21.7634 29.5754 22.2816 29.5754L26.546 29.5745V25.7561L22.2816 25.757C21.7634 25.757 21.3433 25.3528 21.3433 24.8551L21.3404 20.749ZM16.4384 18.937H22.2566C22.7911 18.937 23.2227 19.3227 23.2227 19.8434V23.9524L27.4037 23.9505C27.9622 23.9273 28.4285 24.3 28.4285 24.8532V30.4762C28.4285 30.9749 28.0045 31.3791 27.4874 31.3791H23.2199L23.2247 35.487C23.2247 35.9865 22.8026 36.3926 22.2835 36.3926H16.4394C15.9202 36.3926 15.5021 35.9837 15.5021 35.487L15.5001 31.3791H11.3153C10.7568 31.403 10.2896 31.0284 10.2896 30.4762V24.8532C10.2896 24.3538 10.7145 23.9505 11.2317 23.9505L15.4972 23.9524V19.8666C15.4972 19.3533 15.8981 18.937 16.4384 18.937ZM49.7053 16.2278C50.3358 16.5754 50.3253 17.4506 49.7083 17.789C49.71 17.7928 42.1431 21.9922 41.4531 22.3744C40.8233 22.7229 40.0495 22.2754 40.0495 21.5936C40.0399 21.5936 40.0495 13.1936 40.0495 12.4259C40.0495 11.7229 40.8415 11.3021 41.4568 11.6452C41.4587 11.6424 49.016 15.8437 49.7053 16.2278ZM41.9251 13.99C41.9268 16.0028 41.9278 18.0165 41.9278 20.0284C43.7401 19.022 45.5503 18.0137 47.3624 17.0082C45.5503 16.0018 43.7372 14.9964 41.9251 13.99ZM34.8389 9.89337C39.8447 6.09061 47.8615 6.0906 52.8673 9.89502C55.2474 11.7025 56.7213 14.2185 56.7213 17.0101C56.7213 19.8018 55.2474 22.3168 52.8673 24.1252C49.2313 26.8892 44.0776 27.6097 39.6592 26.4359C36.7135 28.4625 32.2932 29.1426 31.7192 29.2238C30.8416 29.3912 30.231 28.3793 30.8367 27.7319C32.1086 26.3767 32.9756 24.7108 33.5429 22.9782C29.7282 19.0194 30.2089 13.412 34.8389 9.89337Z" stroke="#814099" stroke-width="0.6" mask="url(#path-1-outside-1_3001_3576)"/>
</g>
<defs>
<clipPath id="clip0_3001_3576">
<rect width="54" height="52" fill="white" transform="translate(4 1)"/>
</clipPath>
</defs>
</svg>
