<svg width="64" height="64" viewBox="0 0 64 64" fill="none" xmlns="http://www.w3.org/2000/svg">
<path d="M32 9.37971C34.1398 9.37971 35.8744 7.61578 35.8744 5.43985C35.8744 3.26393 34.1398 1.5 32 1.5C29.8603 1.5 28.1257 3.26393 28.1257 5.43985C28.1257 7.61578 29.8603 9.37971 32 9.37971Z" stroke="#814099" stroke-width="3" stroke-miterlimit="10"/>
<path d="M32.0001 36.932V9.37061" stroke="#814099" stroke-width="3" stroke-miterlimit="10"/>
<path d="M32.0001 44.8559V38.8933" stroke="#814099" stroke-width="3" stroke-miterlimit="10"/>
<path d="M32.0001 52.6744V46.7734" stroke="#814099" stroke-width="3" stroke-miterlimit="10"/>
<path d="M32.0001 63.4999V54.644" stroke="#814099" stroke-width="3" stroke-miterlimit="10"/>
<path d="M43.6143 7.40063C41.4782 7.40063 39.74 9.37056 38.7714 11.3405C37.6212 13.6798 37.8028 16.2653 32 16.2653C26.1972 16.2653 26.3788 13.6798 25.2286 11.3405C24.26 9.37056 22.5304 7.40063 20.3857 7.40063C13.6143 7.40063 2 14.2954 2 14.2954C3.93716 20.6889 17.48 22.1663 32 22.1663C46.52 22.1663 60.0628 20.6889 62 14.2954C62 14.2954 50.3857 7.40943 43.6143 7.40943V7.40063Z" stroke="#814099" stroke-width="3" stroke-miterlimit="10"/>
<path d="M5.87439 18.226L9.74006 14.2949" stroke="#814099" stroke-width="3" stroke-miterlimit="10"/>
<path d="M10.7086 20.1959L16.5114 14.2949" stroke="#814099" stroke-width="3" stroke-miterlimit="10"/>
<path d="M16.5115 21.1812L21.8387 15.7727" stroke="#814099" stroke-width="3" stroke-miterlimit="10"/>
<path d="M23.2915 22.1667L27.1572 18.2268" stroke="#814099" stroke-width="3" stroke-miterlimit="10"/>
<path d="M58.1257 18.226L54.26 14.2949" stroke="#814099" stroke-width="3" stroke-miterlimit="10"/>
<path d="M53.2915 20.1959L47.48 14.2949" stroke="#814099" stroke-width="3" stroke-miterlimit="10"/>
<path d="M47.48 21.1812L42.1615 15.7727" stroke="#814099" stroke-width="3" stroke-miterlimit="10"/>
<path d="M40.7085 22.1667L36.8342 18.2268" stroke="#814099" stroke-width="3" stroke-miterlimit="10"/>
<path d="M28.2294 55.7078C27.4251 59.2695 31.6021 61.9694 34.4213 59.6829C37.232 57.4051 35.5542 52.709 31.9999 52.6738H27.157C24.6837 52.665 22.8416 50.2817 23.3865 47.8369" stroke="#814099" stroke-width="3" stroke-miterlimit="10"/>
<path d="M18.5696 39.9045C18.4917 40.2123 18.4572 40.5377 18.4572 40.8631C18.4572 43.0353 20.1868 44.803 22.3315 44.803H36.8515C38.9876 44.803 40.7258 46.5618 40.7258 48.7428C40.7258 50.9238 38.9962 52.6827 36.8515 52.6827" stroke="#814099" stroke-width="3" stroke-miterlimit="10"/>
<path d="M46.52 36.9324C49.1922 36.9324 51.3629 34.725 51.3629 32.0076C51.3629 29.2901 49.1922 27.0828 46.52 27.0828H38.78C36.8428 27.0828 35.8743 28.0677 35.8743 30.0377C35.8743 32.0076 38.78 32.0076 39.7486 32.0076C41.6857 32.0076 44.5915 32.0076 44.5915 30.0377" stroke="#814099" stroke-width="3" stroke-miterlimit="10"/>
<path d="M41.6772 44.8036C43.8132 44.8036 45.5515 43.0447 45.5515 40.8637C45.5515 38.6827 43.8219 36.9239 41.6772 36.9239H17.48C14.8077 36.9239 12.6371 34.7165 12.6371 31.999C12.6371 29.2816 14.8077 27.0742 17.48 27.0742H25.22C27.1571 27.0742 28.1257 28.0592 28.1257 30.0291C28.1257 31.999 26.1885 31.999 25.22 31.999C23.2828 31.999 19.4171 31.999 19.4171 30.0291" stroke="#814099" stroke-width="3" stroke-miterlimit="10"/>
</svg>
