<svg width="62" height="61" viewBox="0 0 62 61" fill="none" xmlns="http://www.w3.org/2000/svg">
<path d="M25.0489 17.4515L24.2808 15.1589H6.35918L5.59112 17.4515C5.24975 18.4658 4.72917 19.4118 4.03791 20.2385C2.63832 21.9089 1.87878 24.0226 1.87878 26.1959V58.6248H28.7612V26.1959C28.7612 24.014 27.9931 21.9089 26.6021 20.2385C25.9108 19.4118 25.3902 18.4743 25.0489 17.4515Z" stroke="#814099" stroke-width="3" stroke-miterlimit="10"/>
<path d="M27.4811 2.375H3.1589C2.45191 2.375 1.87878 2.94736 1.87878 3.65341V13.8807C1.87878 14.5867 2.45191 15.1591 3.1589 15.1591H27.4811C28.1881 15.1591 28.7612 14.5867 28.7612 13.8807V3.65341C28.7612 2.94736 28.1881 2.375 27.4811 2.375Z" stroke="#814099" stroke-width="3" stroke-miterlimit="10"/>
<path d="M5.71918 4.29248V13.2413" stroke="#814099" stroke-width="3" stroke-miterlimit="10"/>
<path d="M9.55951 4.29248V13.2413" stroke="#814099" stroke-width="3" stroke-miterlimit="10"/>
<path d="M13.3999 4.29248V13.2413" stroke="#814099" stroke-width="3" stroke-miterlimit="10"/>
<path d="M17.2402 4.29248V13.2413" stroke="#814099" stroke-width="3" stroke-miterlimit="10"/>
<path d="M21.0805 4.29248V13.2413" stroke="#814099" stroke-width="3" stroke-miterlimit="10"/>
<path d="M24.9209 4.29248V13.2413" stroke="#814099" stroke-width="3" stroke-miterlimit="10"/>
<path d="M28.7612 28.582H9.55951V50.315H28.7612V28.582Z" stroke="#814099" stroke-width="3" stroke-miterlimit="10"/>
<path d="M11.4797 32.4175H26.8411" stroke="#814099" stroke-width="3" stroke-miterlimit="10"/>
<path d="M11.4797 37.531H26.8411" stroke="#814099" stroke-width="3" stroke-miterlimit="10"/>
<path d="M11.4797 42.645H17.8803" stroke="#814099" stroke-width="3" stroke-miterlimit="10"/>
<path d="M48.6542 57.1421C41.2466 59.4773 34.2913 58.3694 33.1221 54.6705C31.953 50.9717 37.0137 46.0796 44.4213 43.7529C51.8289 41.4177 58.7842 42.5256 59.9533 46.2245C61.1225 49.9234 56.0618 54.8154 48.6542 57.1421Z" stroke="#814099" stroke-width="3" stroke-miterlimit="10"/>
<path d="M47.6985 54.0905L44.4299 43.7439" stroke="#814099" stroke-width="3" stroke-miterlimit="10"/>
<path d="M36.3565 45.3462C36.1687 42.1331 37.8926 37.6331 41.1697 33.4996C46 27.4229 52.3835 24.4484 55.4216 26.8604C58.1867 29.0507 57.2479 34.9144 53.4417 40.5308" stroke="#814099" stroke-width="3" stroke-miterlimit="10"/>
<path d="M49.6783 40.25L41.1698 33.5" stroke="#814099" stroke-width="3" stroke-miterlimit="10"/>
</svg>
