<svg width="87" height="88" viewBox="0 0 87 88" fill="none" xmlns="http://www.w3.org/2000/svg">
<g clip-path="url(#clip0_3093_1941)">
<path d="M77.3407 36.9638C79.561 34.3766 75.5815 31.7433 74.2408 29.8201C74.2259 29.8015 74.2162 29.7792 74.2128 29.7556C74.2094 29.7319 74.2124 29.7079 74.2215 29.6858L75.8915 25.2253C77.054 22.0316 72.4816 20.9299 70.5597 19.5672C70.087 17.2641 71.8307 12.6155 68.2348 11.9668L63.6082 11.1991C63.5851 11.1946 63.5634 11.1845 63.5452 11.1698C63.527 11.1551 63.5126 11.1361 63.5035 11.1146C62.5 8.93431 62.2907 4.26657 58.8382 4.83852L54.2542 5.70605C54.2301 5.71093 54.2051 5.70923 54.1819 5.70111C54.1587 5.693 54.1381 5.67878 54.1225 5.65998L51.1543 2.03634C48.9572 -0.631482 45.683 2.80406 43.5673 3.80594C43.5459 3.81536 43.5228 3.82023 43.4995 3.82023C43.4761 3.82023 43.453 3.81536 43.4317 3.80594L39.4173 1.41065C36.4142 -0.351265 34.5427 4.00939 32.8765 5.67534C32.8614 5.69382 32.8415 5.70787 32.819 5.71599C32.7965 5.7241 32.7721 5.72598 32.7486 5.7214L28.1569 4.83852C24.7199 4.25506 24.499 8.94966 23.4721 11.1146C23.4653 11.1375 23.4516 11.1577 23.4329 11.1728C23.4143 11.1878 23.3915 11.197 23.3675 11.1991L18.7448 11.9668C15.1489 12.6155 16.9004 17.2564 16.4199 19.5672C14.4863 20.9606 9.91394 22.0201 11.0919 25.2253L12.7659 29.6858C12.7737 29.7077 12.7757 29.7312 12.7716 29.7541C12.7675 29.7769 12.7575 29.7984 12.7426 29.8163L9.6427 33.4284C7.42627 36.0118 11.4096 38.6643 12.7426 40.5797L12.7659 40.7102C12.1652 43.0441 9.32496 46.7752 12.3125 48.5026L16.4237 50.8288C16.4447 50.8398 16.462 50.8564 16.4737 50.8768C16.4853 50.8972 16.4909 50.9205 16.4896 50.9439L16.4392 55.7C16.385 57.6922 18.2217 58.5367 19.977 58.6327L11.6111 74.2404C11.493 74.4518 11.4366 74.6916 11.4483 74.9329C11.4599 75.1742 11.5392 75.4076 11.6772 75.6068C11.8151 75.806 12.0064 75.9633 12.2294 76.0609C12.4525 76.1586 12.6986 76.1928 12.9402 76.1597L26.2117 74.4707L32.2488 86.2898C32.3608 86.4975 32.5272 86.6716 32.7305 86.7937C32.9338 86.9158 33.1666 86.9815 33.4043 86.9838C33.6421 86.9862 33.8761 86.9251 34.0818 86.8071C34.2876 86.689 34.4575 86.5183 34.5737 86.3128L43.4859 69.6494L52.3981 86.3128C52.5126 86.5204 52.6819 86.6933 52.8878 86.813C53.0938 86.9327 53.3288 86.9947 53.5676 86.9923C53.8064 86.99 54.04 86.9233 54.2435 86.7996C54.4471 86.6758 54.6128 86.4996 54.7231 86.2898L60.7446 74.4515L74.02 76.1405C74.2616 76.1736 74.5077 76.1394 74.7308 76.0417C74.9538 75.9441 75.1451 75.7868 75.283 75.5876C75.421 75.3884 75.5003 75.155 75.5119 74.9137C75.5236 74.6724 75.4672 74.4326 75.349 74.2212L66.9871 58.6135C68.7385 58.5175 70.5713 57.6692 70.521 55.6846L70.4706 50.9286C72.2569 49.374 77.0966 48.4681 75.8683 45.1707L74.1982 40.7064C74.1886 40.6851 74.1853 40.6615 74.1887 40.6384C74.1921 40.6152 74.2022 40.5936 74.2176 40.5759L77.3407 36.9638ZM33.4422 82.8657L28.1453 72.4478C28.0205 72.2085 27.8248 72.0129 27.5843 71.8873C27.3439 71.7617 27.0704 71.7122 26.8007 71.7453L15.1257 73.2347L22.7088 59.0856C22.8095 59.1202 23.4528 59.1509 23.4838 59.2814C24.5067 61.4579 24.7199 66.1333 28.1724 65.5421L32.7602 64.6746C32.7838 64.6705 32.808 64.6725 32.8304 64.6806C32.8529 64.6887 32.8728 64.7025 32.8881 64.7207C35.9105 68.2368 36.7049 71.3307 41.5756 67.7071L33.4422 82.8657ZM71.8733 73.2347L60.1983 71.7453C59.9288 71.7144 59.6561 71.7649 59.4162 71.8903C59.1762 72.0156 58.9801 72.21 58.8537 72.4478L53.5606 82.8657L45.4233 67.7033L47.57 68.9815C50.5847 70.7434 52.4485 66.3905 54.1147 64.7207C54.1298 64.7022 54.1496 64.6882 54.1722 64.68C54.1947 64.6719 54.2191 64.67 54.2426 64.6746L58.8304 65.5421C62.283 66.1294 62.4922 61.4579 63.5152 59.2814C63.5578 59.1355 64.1778 59.1355 64.2901 59.0856L71.8733 73.2347ZM71.7725 41.6162L73.4426 46.0766C73.453 46.1056 73.4533 46.1372 73.4435 46.1665C73.4336 46.1957 73.4142 46.2208 73.3884 46.2378C71.571 47.5084 67.7117 48.541 67.8822 50.9708L67.9364 55.7268C65.9718 56.6136 61.7095 55.9111 61.043 58.4139L59.493 62.8782C59.484 62.9084 59.4639 62.9342 59.4367 62.9505C59.4094 62.9668 59.377 62.9725 59.3458 62.9664C57.2727 62.7899 53.5606 61.0471 52.092 63.0662L49.1239 66.7052C49.103 66.7296 49.0744 66.7463 49.0427 66.7525C49.0111 66.7588 48.9782 66.7543 48.9495 66.7398C47.1283 65.903 44.1601 62.9242 42.091 64.3445L38.0611 66.7551C38.0337 66.7698 38.0019 66.7744 37.9714 66.7681C37.9409 66.7618 37.9136 66.7449 37.8945 66.7206L34.9224 63.0816C33.4616 61.0663 29.8076 62.7899 27.6686 62.9818C27.637 62.9872 27.6044 62.9813 27.5767 62.9651C27.5491 62.949 27.5281 62.9236 27.5175 62.8935L25.9676 58.4292C25.3088 55.9073 21.0387 56.6174 19.0742 55.7422C18.8882 53.5081 19.9421 49.6657 17.7335 48.5832L13.6261 46.2532C13.8314 44.1112 16.5942 40.7371 14.7575 38.9099L11.6576 35.2978C11.6367 35.2746 11.6251 35.2445 11.6251 35.2134C11.6251 35.1822 11.6367 35.1521 11.6576 35.1289L14.7575 31.513C16.5942 29.6973 13.8276 26.2925 13.6261 24.1697C15.424 22.9145 19.2873 21.8666 19.1284 19.4406L19.0742 14.6653C19.0737 14.6334 19.0847 14.6023 19.1053 14.5776C19.1259 14.553 19.1547 14.5365 19.1865 14.531L23.8093 13.7633C26.2776 13.4984 26.5914 9.54081 27.5253 7.491C29.6565 7.32594 33.4306 9.47171 34.9302 7.30674L37.8945 3.68694C37.9113 3.65993 37.9381 3.64044 37.9692 3.63256C38.0002 3.62469 38.0332 3.62905 38.0611 3.64472C39.8978 4.48537 42.8504 7.44877 44.9235 6.03617L48.934 3.64472C48.9633 3.6295 48.9971 3.62539 49.0292 3.63316C49.0613 3.64094 49.0895 3.66006 49.1084 3.68694L52.0765 7.32977C53.5722 9.49091 57.3812 7.32977 59.4775 7.51403C60.4191 9.56384 60.7214 13.5099 63.1974 13.7863L67.8202 14.554C67.8516 14.5602 67.88 14.5769 67.9005 14.6014C67.9209 14.6259 67.9323 14.6566 67.9325 14.6884C68.1185 16.9915 67.0646 20.7572 69.2732 21.855L73.3806 24.1774C73.1752 26.3117 70.4163 29.6935 72.2491 31.5206L75.349 35.1366C75.37 35.1598 75.3816 35.1899 75.3816 35.221C75.3816 35.2522 75.37 35.2823 75.349 35.3055C74.0975 37.0521 70.7767 39.3859 71.7725 41.6162ZM43.4859 12.4428C37.397 12.4529 31.5603 14.8536 27.2548 19.1189C22.9492 23.3841 20.5259 29.1661 20.5156 35.198C21.6006 65.331 65.41 65.3195 66.4872 35.198C66.48 29.1584 64.0539 23.3684 59.7414 19.0992C55.4289 14.83 49.5826 12.4305 43.4859 12.4274V12.4428ZM43.4859 55.3775C39.4601 55.3775 35.5247 54.1949 32.1774 51.9793C28.8301 49.7636 26.2212 46.6144 24.6806 42.9299C23.14 39.2453 22.7369 35.191 23.5223 31.2795C24.3077 27.3681 26.2463 23.7752 29.0929 20.9551C31.9396 18.1351 35.5665 16.2147 39.5149 15.4366C43.4633 14.6586 47.556 15.0579 51.2753 16.5841C54.9947 18.1103 58.1737 20.6948 60.4103 24.0108C62.6469 27.3267 63.8407 31.2253 63.8407 35.2134C63.8304 40.5567 61.6821 45.6781 57.8666 49.4549C54.0511 53.2318 48.8798 55.3561 43.4859 55.3622V55.3775ZM48.4535 29.5591C48.4718 29.8915 48.6179 30.2043 48.8619 30.4333C49.1059 30.6622 49.4291 30.7897 49.7652 30.7897C50.1012 30.7897 50.4245 30.6622 50.6684 30.4333C50.9124 30.2043 51.0586 29.8915 51.0768 29.5591C51.0195 27.8658 50.3569 26.2477 49.2072 24.9935C48.0575 23.7392 46.4954 22.9303 44.7995 22.711C44.7607 21.6324 45.187 19.4905 43.4859 19.4981C41.7848 19.5058 42.2072 21.6362 42.1723 22.711C40.4731 22.9064 38.9056 23.7135 37.7679 24.979C36.6302 26.2444 36.0016 27.8799 36.0016 29.5745C36.0016 31.269 36.6302 32.9045 37.7679 34.17C38.9056 35.4354 40.4731 36.2425 42.1723 36.4379V45.0287C41.1795 44.8362 40.2803 44.32 39.6181 43.5624C38.9559 42.8048 38.5687 41.8494 38.5183 40.8484C38.5 40.515 38.3535 40.2012 38.1088 39.9716C37.8641 39.742 37.5398 39.6141 37.2028 39.6141C36.8657 39.6141 36.5415 39.742 36.2968 39.9716C36.0521 40.2012 35.9055 40.515 35.8873 40.8484C35.9442 42.5427 36.6077 44.1616 37.7592 45.4156C38.9107 46.6695 40.4751 47.4767 42.1723 47.6927C42.2111 48.7713 41.7848 50.9171 43.4859 50.9132C45.187 50.9094 44.7607 48.7675 44.7995 47.6927C46.4889 47.4865 48.0439 46.6755 49.1715 45.4124C50.2992 44.1493 50.9216 42.5212 50.9216 40.835C50.9216 39.1488 50.2992 37.5207 49.1715 36.2576C48.0439 34.9945 46.4889 34.1835 44.7995 33.9773V25.3712C45.7944 25.5586 46.6968 26.0719 47.3616 26.8287C48.0265 27.5855 48.4151 28.5417 48.4651 29.5438L48.4535 29.5591ZM38.5183 29.5591C38.5677 28.5587 38.9547 27.6037 39.6172 26.8471C40.2798 26.0905 41.1796 25.5762 42.1723 25.3866V33.8315C41.6465 33.7935 41.1336 33.6516 40.664 33.4142C40.1944 33.1767 39.7775 32.8485 39.438 32.4488C39.0985 32.0492 38.8433 31.5862 38.6873 31.0873C38.5313 30.5884 38.4778 30.0635 38.5299 29.5438L38.5183 29.5591ZM48.4535 40.8638C48.4031 41.8647 48.0159 42.8201 47.3537 43.5777C46.6915 44.3353 45.7923 44.8515 44.7995 45.044V36.5991C45.3238 36.6343 45.8357 36.7729 46.3053 37.0067C46.7748 37.2405 47.1925 37.5647 47.5339 37.9605C47.8753 38.3563 48.1335 38.8156 48.2934 39.3115C48.4534 39.8074 48.5117 40.3299 48.4651 40.8484L48.4535 40.8638Z" fill="#3190BD" fill-opacity="0.9"/>
</g>
<defs>
<clipPath id="clip0_3093_1941">
<rect width="69" height="86" fill="white" transform="translate(9 1)"/>
</clipPath>
</defs>
</svg>
