<svg width="88" height="88" viewBox="0 0 88 88" fill="none" xmlns="http://www.w3.org/2000/svg">
<g clip-path="url(#clip0_3093_2702)">
<path d="M52.9932 24.8946V21.0042C52.9932 19.7196 51.9482 18.6744 50.6635 18.6744H39.2167C37.9321 18.6744 36.8869 19.7195 36.8869 21.0042V24.8946C36.8869 26.0696 37.7622 27.0417 38.8947 27.1994V28.5515L37.3003 29.6145C35.8496 30.5817 34.9835 32.2001 34.9835 33.9437V43.9359C34.9835 46.1534 36.7876 47.9574 39.005 47.9574H51.0368C53.2544 47.9574 55.0583 46.1533 55.0583 43.9359V33.9437C55.0583 32.2001 54.1923 30.5817 52.7414 29.6145L51.147 28.5515V27.1731C52.2004 26.9498 52.9932 26.0134 52.9932 24.8946ZM39.2887 21.0761H50.5916V24.8225H39.2887V21.0761ZM45.441 35.1445C45.4727 35.1445 45.4985 35.1703 45.4985 35.202V41.0787C45.4985 41.1104 45.4727 41.1364 45.441 41.1364H37.3852V35.1444L45.441 35.1445ZM51.4093 31.6127C52.1903 32.1335 52.6567 33.0048 52.6567 33.9437V43.9359C52.6567 44.8291 51.9301 45.5557 51.0368 45.5557H39.005C38.1118 45.5557 37.3852 44.8291 37.3852 43.9359V43.5382H45.441C46.797 43.5382 47.9001 42.4349 47.9001 41.0789V35.2022C47.9001 33.8462 46.7968 32.743 45.441 32.743H37.6558C37.8697 32.2918 38.2032 31.8993 38.6326 31.6128L40.7616 30.1934C41.0956 29.9707 41.2964 29.5959 41.2964 29.1943V27.2245H48.7453V29.1943C48.7453 29.5959 48.946 29.9709 49.2801 30.1934L51.4093 31.6127Z" fill="#3190BD" fill-opacity="0.9"/>
<path d="M65.8463 61.8442H63.4303V59.4281C63.4303 58.4241 62.6134 57.6074 61.6095 57.6074H57.7238C56.7197 57.6074 55.903 58.4242 55.903 59.4281V61.8442H53.4869C52.4829 61.8442 51.6661 62.6611 51.6661 63.665V67.5505C51.6661 68.5546 52.483 69.3713 53.4869 69.3713H55.903V71.7874C55.903 72.7914 56.7199 73.6083 57.7238 73.6083H61.6095C62.6135 73.6083 63.4303 72.7914 63.4303 71.7874V69.3713H65.8463C66.8504 69.3713 67.6671 68.5544 67.6671 67.5505V63.665C67.6671 62.6611 66.8504 61.8442 65.8463 61.8442ZM65.2655 66.9697H62.2294C61.5661 66.9697 61.0286 67.5072 61.0286 68.1705V71.2067H58.3046V68.1705C58.3046 67.5072 57.7672 66.9697 57.1038 66.9697H54.0678V64.2459H57.1038C57.7672 64.2459 58.3046 63.7084 58.3046 63.045V60.009H61.0286V63.045C61.0286 63.7084 61.5661 64.2459 62.2294 64.2459H65.2655V66.9697Z" fill="#3190BD" fill-opacity="0.9"/>
<path d="M16.566 20.746C16.566 21.7203 17.3587 22.5128 18.333 22.5128H21.8807C22.855 22.5128 23.6477 21.7203 23.6477 20.746V18.6444H25.7491C26.7234 18.6444 27.5161 17.8517 27.5161 16.8774V13.3297C27.5161 12.3554 26.7234 11.5629 25.7491 11.5629H23.6477V9.4611C23.6477 8.48682 22.855 7.69427 21.8807 7.69427H18.333C17.3587 7.69427 16.566 8.48682 16.566 9.4611V11.5627H14.4644C13.4901 11.5627 12.6974 12.3553 12.6974 13.3295V16.8773C12.6974 17.8515 13.4901 18.6442 14.4644 18.6442H16.566V20.746ZM15.0992 16.2427V13.9644H17.7668C18.43 13.9644 18.9676 13.4269 18.9676 12.7635V10.0959H21.2459V12.7635C21.2459 13.4269 21.7835 13.9644 22.4467 13.9644H25.1143V16.2427H22.4468C21.7837 16.2427 21.246 16.7802 21.246 17.4436V20.1112H18.9676V17.4436C18.9676 16.7802 18.43 16.2427 17.7668 16.2427H15.0992Z" fill="#3190BD" fill-opacity="0.9"/>
<path d="M72.9009 33.362C72.9009 38.227 70.0518 45.5099 64.4325 55.0088C64.0948 55.5795 64.2838 56.316 64.8547 56.6536C65.0465 56.7672 65.2571 56.8211 65.4651 56.8211C65.8754 56.8211 66.2755 56.6106 66.4997 56.2314C72.3409 46.3574 75.3026 38.6628 75.3026 33.3619C75.3026 27.2674 73.5034 21.3885 70.0995 16.3605C69.7275 15.8112 68.9811 15.6677 68.4318 16.0394C67.8826 16.4111 67.7388 17.1577 68.1106 17.7071C71.2444 22.336 72.9009 27.7492 72.9009 33.362Z" fill="#3190BD" fill-opacity="0.9"/>
<path d="M53.6175 73.3008C53.0854 72.9047 52.333 73.0158 51.9374 73.548C48.8268 77.7317 46.2282 80.9898 44.9401 82.5784C42.0144 78.9692 32.052 66.4016 24.8542 53.9947C24.5214 53.4208 23.7865 53.2255 23.2129 53.5585C22.6393 53.8912 22.4441 54.6261 22.7768 55.1998C30.083 67.7935 40.1799 80.5218 43.1004 84.123C43.5524 84.6802 44.2228 85.0001 44.9399 85.0001C45.6571 85.0001 46.3276 84.6805 46.7796 84.1232C48.0703 82.532 50.7066 79.2283 53.8645 74.9808C54.2605 74.4486 54.1498 73.6966 53.6175 73.3008Z" fill="#3190BD" fill-opacity="0.9"/>
<path d="M16.9798 33.362C16.9798 30.9333 17.2931 28.5184 17.9111 26.1846C18.081 25.5435 17.6988 24.8863 17.0578 24.7164C16.4164 24.5457 15.7594 24.9287 15.5895 25.5698C14.9184 28.1042 14.5781 30.7258 14.5781 33.362C14.5781 37.6205 16.4948 43.4452 20.2752 50.6743C20.4896 51.0844 20.9076 51.3189 21.3402 51.3189C21.5277 51.3189 21.7179 51.2749 21.8957 51.182C22.4833 50.8746 22.7106 50.1492 22.4032 49.5614C18.8046 42.6792 16.9798 37.2289 16.9798 33.362Z" fill="#3190BD" fill-opacity="0.9"/>
<path d="M29.5767 9.99971C34.1413 6.99172 39.4539 5.40166 44.9404 5.40166C52.5697 5.40166 59.6983 8.4199 65.0132 13.9002C65.2487 14.1431 65.5619 14.2649 65.8754 14.2649C66.1765 14.2649 66.478 14.1523 66.7113 13.9261C67.1875 13.4643 67.199 12.7041 66.7372 12.2281C60.966 6.2773 53.225 3 44.9404 3C38.9829 3 33.2133 4.72695 28.2553 7.99417C27.7016 8.35906 27.5484 9.1039 27.9133 9.65772C28.2782 10.2114 29.023 10.364 29.5767 9.99971Z" fill="#3190BD" fill-opacity="0.9"/>
<path d="M42.2241 11.7093C31.3326 13.0623 23.1193 22.3709 23.1193 33.3619C23.1193 45.3939 32.9081 55.1827 44.9401 55.1827C56.9723 55.1827 66.7611 45.3939 66.7611 33.3619C66.7611 22.3612 58.5394 13.0515 47.6368 11.7071C46.9801 11.6253 46.3793 12.0938 46.2982 12.7518C46.217 13.41 46.6847 14.0093 47.3429 14.0905C57.044 15.287 64.3594 23.5718 64.3594 33.3617C64.3594 44.0694 55.648 52.7809 44.9401 52.7809C34.2322 52.7809 25.5209 44.0698 25.5209 33.3621C25.5209 23.5806 32.829 15.2966 42.5202 14.0926C43.1782 14.0109 43.6456 13.411 43.5638 12.7529C43.4823 12.0949 42.8835 11.6283 42.2241 11.7093Z" fill="#3190BD" fill-opacity="0.9"/>
</g>
<defs>
<clipPath id="clip0_3093_2702">
<rect width="82" height="82" fill="white" transform="translate(3 3)"/>
</clipPath>
</defs>
</svg>
