<svg width="87" height="88" viewBox="0 0 87 88" fill="none" xmlns="http://www.w3.org/2000/svg">
<g clip-path="url(#clip0_3093_650)">
<path d="M22.445 45.7281H19.1256C17.008 45.7281 15.2852 44.0162 15.2852 41.912C15.2852 41.2728 14.7672 40.7548 14.1279 40.7548C13.4887 40.7548 12.9707 41.2728 12.9707 41.912C12.9707 45.2924 15.7318 48.0426 19.1258 48.0426H22.445C23.0842 48.0426 23.6022 47.5246 23.6022 46.8853C23.6022 46.2461 23.0842 45.7281 22.445 45.7281Z" fill="#3190BD" fill-opacity="0.9"/>
<path d="M33.319 54.2928H23.4329C20.1676 54.2928 17.5111 56.9386 17.5111 60.191C17.5111 60.8302 18.0291 61.3482 18.6683 61.3482C19.3076 61.3482 19.8256 60.8301 19.8256 60.191C19.8256 58.2149 21.4437 56.6073 23.4329 56.6073H33.319C33.9582 56.6073 34.4762 56.0893 34.4762 55.4501C34.4762 54.8108 33.9582 54.2928 33.319 54.2928Z" fill="#3190BD" fill-opacity="0.9"/>
<path d="M42.7481 54.2928H37.9481C37.3089 54.2928 36.7909 54.8108 36.7909 55.4501C36.7909 56.0893 37.3089 56.6073 37.9481 56.6073H42.7481C43.3874 56.6073 43.9054 56.0893 43.9054 55.4501C43.9054 54.8108 43.3872 54.2928 42.7481 54.2928Z" fill="#3190BD" fill-opacity="0.9"/>
<path d="M34.6112 31.807C33.972 31.807 33.454 32.3251 33.454 32.9642C33.454 36.2733 30.7461 38.9653 27.4176 38.9653C26.7784 38.9653 26.2604 39.4833 26.2604 40.1225C26.2604 40.7618 26.7784 41.2798 27.4176 41.2798C32.0223 41.2798 35.7685 37.5495 35.7685 32.9642C35.7685 32.3251 35.2505 31.807 34.6112 31.807Z" fill="#3190BD" fill-opacity="0.9"/>
<path d="M32.4781 14.3127C29.7138 14.1352 27.3169 16.231 27.1376 18.9862C27.0961 19.624 27.5795 20.1746 28.2172 20.2162C28.2428 20.2179 28.2683 20.2187 28.2936 20.2187C28.8985 20.2187 29.4073 19.7487 29.4473 19.1366C29.5436 17.6541 30.8366 16.5282 32.3294 16.6223C32.9677 16.6651 33.5175 16.1798 33.5585 15.542C33.5997 14.9041 33.116 14.3539 32.4781 14.3127Z" fill="#3190BD" fill-opacity="0.9"/>
<path d="M28.5863 59.4457C27.9471 59.4457 27.4291 59.9637 27.4291 60.603C27.4291 61.2422 27.9471 61.7602 28.5863 61.7602C30.4973 61.7602 32.052 63.3046 32.052 65.2027C32.052 67.1013 30.4973 68.6457 28.5863 68.6457C27.9471 68.6457 27.4291 69.1637 27.4291 69.8029C27.4291 70.4422 27.9471 70.9601 28.5863 70.9601C31.7735 70.9601 34.3664 68.3775 34.3664 65.2027C34.3664 62.0284 31.7735 59.4457 28.5863 59.4457Z" fill="#3190BD" fill-opacity="0.9"/>
<path d="M40.4294 32.1952C39.7902 32.1952 39.2722 32.7132 39.2722 33.3524C39.2722 33.9917 39.7902 34.5096 40.4294 34.5096C41.9645 34.5096 43.2136 35.7497 43.2136 37.2742C43.2136 38.7988 41.9645 40.039 40.4294 40.039C39.7902 40.039 39.2722 40.557 39.2722 41.1963C39.2722 41.8355 39.7902 42.3535 40.4294 42.3535C43.2409 42.3535 45.528 40.0748 45.528 37.2742C45.528 34.4737 43.2409 32.1952 40.4294 32.1952Z" fill="#3190BD" fill-opacity="0.9"/>
<path d="M20.0439 24.8374C19.4047 24.8374 18.8867 25.3554 18.8867 25.9946C18.8867 26.6339 19.4047 27.1519 20.0439 27.1519C22.6815 27.1519 24.8271 29.2842 24.8271 31.9054C24.8271 34.5268 22.6815 36.6593 20.0439 36.6593C19.4047 36.6593 18.8867 37.1773 18.8867 37.8165C18.8867 38.4558 19.4047 38.9738 20.0439 38.9738C23.9575 38.9738 27.1416 35.803 27.1416 31.9054C27.1416 28.008 23.9575 24.8374 20.0439 24.8374Z" fill="#3190BD" fill-opacity="0.9"/>
<path d="M74.4461 24.785C72.271 24.785 70.5013 26.5484 70.5013 28.716C70.5013 30.8837 72.271 32.6472 74.4461 32.6472C76.6212 32.6472 78.3908 30.8837 78.3908 28.716C78.3908 26.5484 76.6212 24.785 74.4461 24.785ZM74.4462 30.3329C73.5473 30.3329 72.816 29.6077 72.816 28.7162C72.8158 27.8248 73.5472 27.0996 74.4462 27.0996C75.3452 27.0996 76.0766 27.8248 76.0766 28.7162C76.0766 29.6075 75.3452 30.3329 74.4462 30.3329Z" fill="#3190BD" fill-opacity="0.9"/>
<path d="M78.3127 54.4024C76.1374 54.4024 74.3679 56.1659 74.3679 58.3336C74.3679 60.5013 76.1376 62.2646 78.3127 62.2646C80.4878 62.2646 82.2573 60.5011 82.2573 58.3336C82.2573 56.166 80.4878 54.4024 78.3127 54.4024ZM78.3127 59.9501C77.4137 59.9501 76.6824 59.225 76.6824 58.3336C76.6824 57.4422 77.4137 56.7169 78.3127 56.7169C79.2116 56.7169 79.9428 57.4421 79.9428 58.3336C79.943 59.225 79.2116 59.9501 78.3127 59.9501Z" fill="#3190BD" fill-opacity="0.9"/>
<path d="M75.8848 40.5331C75.2173 40.5333 74.5884 40.6999 74.0366 40.9929L71.7808 38.7482C71.3275 38.2974 70.595 38.2994 70.1443 38.7522C69.6935 39.2052 69.6953 39.9378 70.1483 40.3887L72.3984 42.6277C72.1064 43.1764 71.94 43.8011 71.94 44.4641C71.94 46.6319 73.7097 48.3953 75.8848 48.3953C78.0601 48.3953 79.8295 46.6319 79.8295 44.4641C79.8295 42.2966 78.0599 40.5331 75.8848 40.5331ZM75.8849 46.081C74.986 46.081 74.2546 45.3558 74.2546 44.4643C74.2546 43.5731 74.986 42.8477 75.8849 42.8477C76.7839 42.8477 77.5152 43.5729 77.5152 44.4643C77.5152 45.3557 76.7839 46.081 75.8849 46.081Z" fill="#3190BD" fill-opacity="0.9"/>
<path d="M73.2771 66.482C71.1019 66.482 69.3324 68.2455 69.3324 70.4132C69.3324 72.5809 71.102 74.3443 73.2771 74.3443C75.4524 74.3443 77.2219 72.5809 77.2219 70.4132C77.2219 68.2455 75.4524 66.482 73.2771 66.482ZM73.2771 72.0297C72.3782 72.0297 71.6469 71.3045 71.6469 70.413C71.6469 69.5216 72.3782 68.7963 73.2771 68.7963C74.1761 68.7963 74.9075 69.5215 74.9075 70.413C74.9076 71.3045 74.1762 72.0297 73.2771 72.0297Z" fill="#3190BD" fill-opacity="0.9"/>
<path d="M59.7369 26.2474C60.4724 26.2474 61.35 25.8851 61.8714 25.3663L66.342 20.9177C66.7913 21.0952 67.2801 21.194 67.7919 21.194C69.9672 21.194 71.7367 19.4305 71.7367 17.2628C71.7367 15.0953 69.9671 13.332 67.7919 13.332C65.6168 13.332 63.8473 15.0954 63.8473 17.2628C63.8473 18.0767 64.0968 18.8339 64.5239 19.4619L60.2393 23.7254C60.1487 23.8123 59.862 23.9308 59.7369 23.9329H50.185V16.2725H52.8717C53.3687 17.8771 54.8706 19.0465 56.6418 19.0465C58.8171 19.0465 60.5866 17.283 60.5866 15.1153C60.5866 12.9478 58.8169 11.1843 56.6418 11.1843C54.8706 11.1843 53.3687 12.3536 52.8717 13.9581H50.185V13.7828C50.185 8.66416 46.0027 4.5 40.8619 4.5C37.1868 4.5 33.8901 6.64195 32.3857 9.91706C32.1544 9.9007 31.9238 9.89237 31.6949 9.89237C26.352 9.89237 21.9908 14.1581 21.8668 19.4489C21.4055 19.3832 20.9389 19.35 20.4703 19.35C15.0496 19.35 10.6396 23.741 10.6396 29.1381C10.6396 30.3228 10.8474 31.4691 11.2585 32.5595C7.2122 34.9604 4.74268 39.2492 4.74268 44C4.74268 46.5508 5.46926 49.0304 6.84374 51.1703C7.97597 52.933 9.50135 54.4002 11.2955 55.4621C10.8644 56.5794 10.6396 57.7758 10.6396 58.9771C10.6396 61.3598 11.5095 63.6559 13.0891 65.4425C13.5123 65.9213 14.2437 65.9663 14.7226 65.5429C15.2015 65.1195 15.2464 64.3883 14.823 63.9094C13.6177 62.5462 12.954 60.7944 12.954 58.977C12.954 57.7543 13.243 56.5882 13.8121 55.5105C14.4913 54.2205 15.5465 53.1311 16.8814 52.4084C17.4435 52.104 17.6522 51.4018 17.3478 50.8398C17.0435 50.2776 16.341 50.0685 15.7792 50.3734C14.3969 51.1222 13.2444 52.1722 12.3827 53.4152C9.07363 51.4246 7.05713 47.9049 7.05713 44C7.05713 39.8247 9.36973 36.0818 13.1034 34.1873C13.1034 34.1873 15.2639 32.9854 18.1319 32.9854C18.7712 32.9854 19.2892 32.4674 19.2892 31.8281C19.2892 31.1889 18.7712 30.6709 18.1319 30.6709C16.4507 30.6709 14.8414 30.9818 13.3577 31.5476C13.0917 30.7761 12.9544 29.9699 12.9544 29.1383C12.9544 25.0172 16.3261 21.6646 20.4706 21.6646C21.2497 21.6646 22.0204 21.7839 22.7613 22.0192C23.141 22.1397 23.5559 22.0565 23.8597 21.7988C24.1637 21.5412 24.3137 21.1455 24.2568 20.7512C24.2051 20.392 24.1788 20.0318 24.1788 19.6807C24.1788 15.5597 27.5507 12.207 31.6953 12.207C32.1023 12.207 32.5183 12.2418 32.9323 12.3099C36.49 12.8984 39.2115 15.9786 39.2115 19.6807C39.2115 20.3199 39.7295 20.8379 40.3687 20.8379C41.008 20.8379 41.526 20.3199 41.526 19.6807C41.526 15.3446 38.6784 11.6605 34.7479 10.3789C35.9697 8.20606 38.2919 6.81445 40.8619 6.81445C44.7264 6.81445 47.8705 9.94051 47.8705 13.7828V13.9113H45.6448C45.0055 13.9113 44.4875 14.4293 44.4875 15.0686C44.4875 15.7078 45.0055 16.2258 45.6448 16.2258H47.8705V23.9328H38.5109C36.3931 23.9328 34.6703 22.221 34.6703 20.117C34.6703 19.4778 34.1523 18.9598 33.513 18.9598C32.8738 18.9598 32.3558 19.4778 32.3558 20.117C32.3558 23.4972 35.1169 26.2472 38.5109 26.2472H47.8705V45.7281H29.0991C28.4598 45.7281 27.9418 46.2461 27.9418 46.8854C27.9418 47.5246 28.4598 48.0426 29.0991 48.0426H47.8705V63.9315H44.2945C41.0293 63.9315 38.3729 66.5772 38.3729 69.8295C38.3729 70.4687 38.8909 70.9867 39.5301 70.9867C40.1694 70.9867 40.6874 70.4687 40.6874 69.8295C40.6874 67.8535 42.3055 66.2459 44.2945 66.2459H47.8705V74.2172C47.8705 74.399 47.8612 74.5786 47.8475 74.7568H45.6448C45.0055 74.7568 44.4875 75.2747 44.4875 75.914C44.4875 76.5532 45.0055 77.0712 45.6448 77.0712H47.2532C46.1544 79.494 43.7039 81.1855 40.8619 81.1855C38.3092 81.1855 35.9955 79.8083 34.7675 77.6563C36.1652 77.1998 37.4516 76.4323 38.5354 75.3868C38.9953 74.943 39.0085 74.2104 38.5647 73.7506C38.1209 73.2903 37.3883 73.2774 36.9285 73.7211C35.8235 74.7873 34.442 75.4756 32.9503 75.7244C32.5297 75.7947 32.1074 75.8305 31.6949 75.8305C27.5504 75.8305 24.1785 72.4778 24.1785 68.3567C24.1785 68.2513 24.1849 68.1419 24.1899 68.0336C25.1241 67.6534 26.0015 67.1331 26.7841 66.4798C27.2748 66.0703 27.3404 65.3405 26.9307 64.8498C26.5211 64.3592 25.8033 64.3084 25.3007 64.7032C22.9786 66.5273 20.7326 66.499 19.8341 66.4244C19.1954 66.3703 18.638 66.845 18.585 67.4818C18.532 68.1188 19.0056 68.6779 19.6425 68.731C20.3824 68.7921 21.1361 68.7707 21.869 68.6662C22.0335 73.9209 26.3782 78.145 31.6951 78.145C31.9293 78.145 32.1656 78.1362 32.4025 78.1189C33.915 81.3724 37.205 83.5 40.8619 83.5C46.0026 83.5 50.185 79.3358 50.185 74.2172V71.6599H56.3195C56.4451 71.662 56.7318 71.7804 56.822 71.8671L59.581 74.6125C59.2078 75.2129 58.9916 75.92 58.9916 76.6767C58.9916 78.8444 60.7612 80.6079 62.9364 80.6079C65.1116 80.6079 66.8811 78.8444 66.8811 76.6767C66.8811 74.509 65.1115 72.7455 62.9364 72.7455C62.3644 72.7455 61.8211 72.8685 61.3298 73.0876L58.4545 70.2265C57.9331 69.7077 57.0555 69.3454 56.32 69.3454H50.185V63.1594H60.2451C60.7421 64.7639 62.244 65.9333 64.0154 65.9333C66.1906 65.9333 67.9601 64.1698 67.9601 62.0021C67.9601 59.8344 66.1905 58.0709 64.0154 58.0709C62.2442 58.0709 60.7421 59.2402 60.2451 60.8449H50.185V53.093H62.2235C62.7205 54.6976 64.2224 55.867 65.9938 55.867C68.169 55.867 69.9385 54.1035 69.9385 51.9358C69.9385 49.7681 68.1689 48.0046 65.9938 48.0046C64.2224 48.0046 62.7205 49.1739 62.2235 50.7786H50.185V42.3557H53.0515C53.5486 43.96 55.0506 45.1295 56.8217 45.1295C58.997 45.1295 60.7665 43.366 60.7665 41.1984C60.7665 39.0307 58.9969 37.2673 56.8217 37.2673C55.0506 37.2673 53.5485 38.4365 53.0515 40.0412H50.185V33.3631H62.7938C62.9192 33.3654 63.2061 33.4836 63.2963 33.5703L65.6734 35.936C65.8992 36.1606 66.1943 36.273 66.4897 36.273C66.7867 36.273 67.0839 36.1593 67.3099 35.932C67.7608 35.479 67.7589 34.7462 67.3059 34.2953L64.9288 31.9297C64.4074 31.4109 63.5298 31.0486 62.7943 31.0486H50.185V26.2474H59.7369ZM67.7919 15.6463C68.6909 15.6463 69.4222 16.3714 69.4222 17.2627C69.4222 18.154 68.6909 18.8794 67.7919 18.8794C66.893 18.8794 66.1618 18.1542 66.1618 17.2627C66.1618 16.3714 66.893 15.6463 67.7919 15.6463ZM56.6418 13.4987C57.5408 13.4987 58.2721 14.2239 58.2721 15.1153C58.2721 16.0067 57.5408 16.732 56.6418 16.732C55.7429 16.732 55.0117 16.0068 55.0117 15.1153C55.0115 14.2239 55.7429 13.4987 56.6418 13.4987ZM62.9364 75.0598C63.8353 75.0598 64.5667 75.7852 64.5667 76.6765C64.5667 77.5679 63.8353 78.2933 62.9364 78.2933C62.0374 78.2933 61.3061 77.5681 61.3061 76.6765C61.3061 75.7852 62.0374 75.0598 62.9364 75.0598ZM64.0154 60.3854C64.9143 60.3854 65.6457 61.1106 65.6457 62.0021C65.6457 62.8935 64.9143 63.6188 64.0154 63.6188C63.1164 63.6188 62.3851 62.8937 62.3851 62.0021C62.3851 61.1108 63.1164 60.3854 64.0154 60.3854ZM65.9936 50.3191C66.8925 50.3191 67.6239 51.0443 67.6239 51.9358C67.6239 52.8272 66.8925 53.5525 65.9936 53.5525C65.0947 53.5525 64.3633 52.8273 64.3633 51.9358C64.3633 51.0443 65.0947 50.3191 65.9936 50.3191ZM56.8217 39.5817C57.7207 39.5817 58.452 40.3069 58.452 41.1984C58.452 42.0896 57.7207 42.815 56.8217 42.815C55.9228 42.815 55.1914 42.0898 55.1914 41.1984C55.1914 40.3069 55.9228 39.5817 56.8217 39.5817Z" fill="#3190BD" fill-opacity="0.9"/>
</g>
<defs>
<clipPath id="clip0_3093_650">
<rect width="79" height="79" fill="white" transform="translate(4 4.5)"/>
</clipPath>
</defs>
</svg>
