<svg width="100" height="95" viewBox="0 0 100 95" fill="none" xmlns="http://www.w3.org/2000/svg">
<path d="M93.9149 1.5H6.08511C3.82896 1.5 2 3.32578 2 5.578V70.2551C2 72.5074 3.82896 74.3331 6.08511 74.3331H93.9149C96.171 74.3331 98 72.5074 98 70.2551V5.578C98 3.32578 96.171 1.5 93.9149 1.5Z" stroke="#3190BD" stroke-opacity="0.9" stroke-width="3" stroke-miterlimit="10"/>
<path d="M92.24 7.25H7.76001V62.8332H92.24V7.25Z" stroke="#3190BD" stroke-opacity="0.9" stroke-width="3" stroke-miterlimit="10"/>
<path d="M48.0801 68.5833H51.9201" stroke="#3190BD" stroke-opacity="0.9" stroke-width="3" stroke-miterlimit="10"/>
<path d="M36.5599 93.4999H63.4399L57.6799 74.3333H42.3199L36.5599 93.4999Z" stroke="#3190BD" stroke-opacity="0.9" stroke-width="3" stroke-miterlimit="10"/>
<path d="M30.8 93.5H69.2" stroke="#3190BD" stroke-opacity="0.9" stroke-width="3" stroke-miterlimit="10"/>
<path d="M23.12 41.7498V58.9997" stroke="#3190BD" stroke-opacity="0.9" stroke-width="3" stroke-miterlimit="10"/>
<path d="M30.8 37.9165V58.9998" stroke="#3190BD" stroke-opacity="0.9" stroke-width="3" stroke-miterlimit="10"/>
<path d="M38.4801 34.0833V58.9999" stroke="#3190BD" stroke-opacity="0.9" stroke-width="3" stroke-miterlimit="10"/>
<path d="M46.1599 30.2498V58.9997" stroke="#3190BD" stroke-opacity="0.9" stroke-width="3" stroke-miterlimit="10"/>
<path d="M53.8401 26.4167V59" stroke="#3190BD" stroke-opacity="0.9" stroke-width="3" stroke-miterlimit="10"/>
<path d="M61.52 22.5833V58.9998" stroke="#3190BD" stroke-opacity="0.9" stroke-width="3" stroke-miterlimit="10"/>
<path d="M69.2 18.75V58.9999" stroke="#3190BD" stroke-opacity="0.9" stroke-width="3" stroke-miterlimit="10"/>
<path d="M76.8799 14.9167V59" stroke="#3190BD" stroke-opacity="0.9" stroke-width="3" stroke-miterlimit="10"/>
</svg>
