<svg width="90" height="90" viewBox="0 0 90 90" fill="none" xmlns="http://www.w3.org/2000/svg">
<path d="M10.5013 7.46643V25.366" stroke="#3190BD" stroke-opacity="0.9" stroke-width="3" stroke-miterlimit="10"/>
<path d="M15.0836 7.46643H10.5013V16.4537H15.0836C17.7576 16.4537 19.5026 14.8435 19.5026 11.9476C19.5026 9.05168 17.7576 7.47891 15.0836 7.47891V7.46643Z" stroke="#3190BD" stroke-opacity="0.9" stroke-width="3" stroke-miterlimit="10"/>
<path d="M10.5013 16.4163L25.5035 31.3326" stroke="#3190BD" stroke-opacity="0.9" stroke-width="3" stroke-miterlimit="10"/>
<path d="M25.5035 17.902L11.9952 31.3329" stroke="#3190BD" stroke-opacity="0.9" stroke-width="3" stroke-miterlimit="10"/>
<path d="M43.3177 1.5V22.5701H64.5091L43.3177 1.5Z" stroke="#3190BD" stroke-opacity="0.9" stroke-width="3" stroke-linejoin="round"/>
<path d="M43.3177 1.5H1.5V88.0146H64.509V22.5701L43.3177 1.5Z" stroke="#3190BD" stroke-opacity="0.9" stroke-width="3" stroke-linejoin="round"/>
<path d="M5.99438 62.6505H31.5043" stroke="#3190BD" stroke-opacity="0.9" stroke-width="3" stroke-miterlimit="10"/>
<path d="M5.99438 53.7008H60.0021" stroke="#3190BD" stroke-opacity="0.9" stroke-width="3" stroke-miterlimit="10"/>
<path d="M31.5043 35.8014H60.0021" stroke="#3190BD" stroke-opacity="0.9" stroke-width="3" stroke-miterlimit="10"/>
<path d="M5.99438 44.7511H60.0021" stroke="#3190BD" stroke-opacity="0.9" stroke-width="3" stroke-miterlimit="10"/>
<path d="M76.4104 82.5099C79.6692 82.5099 82.3109 64.3752 82.3109 42.005C82.3109 19.6347 79.6692 1.5 76.4104 1.5C73.1517 1.5 70.51 19.6347 70.51 42.005C70.51 64.3752 73.1517 82.5099 76.4104 82.5099Z" stroke="#3190BD" stroke-opacity="0.9" stroke-width="3" stroke-miterlimit="10"/>
<path d="M72.0039 13.433H81.0052" stroke="#3190BD" stroke-opacity="0.9" stroke-width="3" stroke-miterlimit="10"/>
<path d="M70.51 40.2822H82.5117" stroke="#3190BD" stroke-opacity="0.9" stroke-width="3" stroke-miterlimit="10"/>
<path d="M76.5109 82.0479V89.4998" stroke="#3190BD" stroke-opacity="0.9" stroke-width="3" stroke-miterlimit="10"/>
<path d="M79.5112 5.96863H84.0056C86.6043 5.96863 88.5 7.97827 88.5 10.4373V37.2866" stroke="#3190BD" stroke-opacity="0.9" stroke-width="3" stroke-miterlimit="10"/>
</svg>
