<svg width="92" height="100" viewBox="0 0 92 100" fill="none" xmlns="http://www.w3.org/2000/svg">
<path d="M29.5211 78.4121L12.2147 84.0558C5.74729 86.6691 1.5 92.9801 1.5 99.9999" stroke="#3190BD" stroke-opacity="0.9" stroke-width="3" stroke-miterlimit="10"/>
<path d="M62.479 78.4121L79.7853 84.0558C86.2528 86.6691 90.5001 92.9801 90.5001 99.9999" stroke="#3190BD" stroke-opacity="0.9" stroke-width="3" stroke-miterlimit="10"/>
<path d="M57.5418 73.4219L45.9997 80.0664L50.9503 88.3791L62.4786 78.4122L57.5418 73.4219Z" stroke="#3190BD" stroke-opacity="0.9" stroke-width="3" stroke-miterlimit="10"/>
<path d="M34.4717 73.4219L29.5211 78.4122L41.0633 88.3791L46 80.0664L34.4717 73.4219Z" stroke="#3190BD" stroke-opacity="0.9" stroke-width="3" stroke-miterlimit="10"/>
<path d="M22.9294 25.2559C22.9294 12.4116 33.2581 2 45.9999 2C58.7418 2 69.0704 12.4116 69.0704 25.2559" stroke="#3190BD" stroke-opacity="0.9" stroke-width="3" stroke-miterlimit="10"/>
<path d="M71.5385 25.2559C75.6341 25.2559 77.3027 28.2306 77.3027 31.9004C77.3027 35.5702 75.6341 38.545 71.5385 38.545H69.0701V25.2559H71.5385Z" stroke="#3190BD" stroke-opacity="0.9" stroke-width="3" stroke-miterlimit="10"/>
<path d="M20.4612 25.2559C16.3656 25.2559 14.697 28.2306 14.697 31.9004C14.697 35.5702 16.3656 38.545 20.4612 38.545H22.9296V25.2559H20.4612Z" stroke="#3190BD" stroke-opacity="0.9" stroke-width="3" stroke-miterlimit="10"/>
<path d="M52.5913 61.8008C52.5913 63.6357 51.1157 65.1231 49.2955 65.1231C47.4752 65.1231 45.9997 63.6357 45.9997 61.8008C45.9997 59.9659 47.4752 58.4785 49.2955 58.4785C51.1157 58.4785 52.5913 59.9659 52.5913 61.8008Z" stroke="#3190BD" stroke-opacity="0.9" stroke-width="3" stroke-miterlimit="10"/>
<path d="M69.0704 41.8672V51.834C69.0704 57.2692 66.0366 61.8008 60.8379 61.8008H52.6053" stroke="#3190BD" stroke-opacity="0.9" stroke-width="3" stroke-miterlimit="10"/>
<path d="M42.7042 11.9668C42.7042 22.8372 53.7223 30.2324 64.1199 30.2324" stroke="#3190BD" stroke-opacity="0.9" stroke-width="3" stroke-miterlimit="10"/>
<path d="M42.704 16.9431C32.3064 19.0421 27.8799 24.2132 27.8799 36.4458C27.8799 46.8436 27.8799 60.1327 42.704 63.4549" stroke="#3190BD" stroke-opacity="0.9" stroke-width="3" stroke-miterlimit="10"/>
<path d="M50.9506 36.8766C50.9506 36.8766 50.9506 35.2224 54.2463 35.2224C55.9011 35.2224 57.5421 36.8766 57.5421 36.8766H59.1831" stroke="#3190BD" stroke-opacity="0.9" stroke-width="3" stroke-linecap="round" stroke-linejoin="round"/>
<path d="M41.0631 36.8766C41.0631 36.8766 41.0631 35.2224 37.7673 35.2224C36.1263 35.2224 34.4715 36.8766 34.4715 36.8766H32.8305" stroke="#3190BD" stroke-opacity="0.9" stroke-width="3" stroke-linecap="round" stroke-linejoin="round"/>
<path d="M50.9505 50.1659C50.9505 50.1659 48.7441 53.4882 46.0137 53.4882C43.2833 53.4882 41.0769 50.1659 41.0769 50.1659C41.0769 50.1659 43.2833 48.5117 46.0137 48.5117C48.7441 48.5117 50.9505 50.1659 50.9505 50.1659Z" stroke="#3190BD" stroke-opacity="0.9" stroke-width="3" stroke-miterlimit="10"/>
<path d="M36.1123 61.801V70.0998" stroke="#3190BD" stroke-opacity="0.9" stroke-width="3" stroke-miterlimit="10"/>
</svg>
