<svg width="17" height="25" viewBox="0 0 17 25" fill="none" xmlns="http://www.w3.org/2000/svg">
<path d="M10.2473 1.03223L1.03966 10.0497C0.710095 10.3718 0.448627 10.7544 0.270228 11.1756C0.0918285 11.5968 0 12.0483 0 12.5043C0 12.9603 0.0918285 13.4118 0.270228 13.833C0.448627 14.2542 0.710095 14.6368 1.03966 14.9589L10.2473 23.9764C12.487 26.1698 16.3265 24.6031 16.3265 21.5044V3.46939C16.3265 0.370717 12.487 -1.16121 10.2473 1.03223Z" fill="#3A5FAC"/>
<path d="M10.2473 1.03223L1.03966 10.0497C0.710095 10.3718 0.448627 10.7544 0.270228 11.1756C0.0918285 11.5968 0 12.0483 0 12.5043C0 12.9603 0.0918285 13.4118 0.270228 13.833C0.448627 14.2542 0.710095 14.6368 1.03966 14.9589L10.2473 23.9764C12.487 26.1698 16.3265 24.6031 16.3265 21.5044V3.46939C16.3265 0.370717 12.487 -1.16121 10.2473 1.03223Z" fill="url(#paint0_radial_80_4865)" fill-opacity="0.4"/>
<defs>
<radialGradient id="paint0_radial_80_4865" cx="0" cy="0" r="1" gradientUnits="userSpaceOnUse" gradientTransform="translate(1.63776 1.21951) rotate(76.4081) scale(16.6084 5.22857)">
<stop stop-color="white"/>
<stop offset="1" stop-color="white" stop-opacity="0"/>
</radialGradient>
</defs>
</svg>
