<svg width="28" height="28" viewBox="0 0 28 28" fill="none" xmlns="http://www.w3.org/2000/svg">
<path fill-rule="evenodd" clip-rule="evenodd" d="M8.86736 2.54541H19.1323C22.6185 2.54541 25.4546 5.38157 25.4545 8.86749V19.1324C25.4545 22.6183 22.6185 25.4545 19.1323 25.4545H8.86736C5.38144 25.4545 2.54541 22.6185 2.54541 19.1324V8.86749C2.54541 5.38157 5.38144 2.54541 8.86736 2.54541ZM19.1324 23.4219C21.4977 23.4219 23.422 21.4977 23.422 19.1324H23.4219V8.86749C23.4219 6.50235 21.4976 4.57802 19.1323 4.57802H8.86736C6.50222 4.57802 4.57802 6.50235 4.57802 8.86749V19.1324C4.57802 21.4977 6.50222 23.422 8.86736 23.4219H19.1324ZM7.99995 14.0001C7.99995 10.6916 10.6915 7.99996 14 7.99996C17.3084 7.99996 20 10.6916 20 14.0001C20 17.3085 17.3084 20 14 20C10.6915 20 7.99995 17.3085 7.99995 14.0001ZM10.0659 14C10.0659 16.1691 11.8308 17.9338 14 17.9338C16.1691 17.9338 17.934 16.1691 17.934 14C17.934 11.8306 16.1692 10.0658 14 10.0658C11.8307 10.0658 10.0659 11.8306 10.0659 14Z" fill="white"/>
<path fill-rule="evenodd" clip-rule="evenodd" d="M8.86736 2.54541H19.1323C22.6185 2.54541 25.4546 5.38157 25.4545 8.86749V19.1324C25.4545 22.6183 22.6185 25.4545 19.1323 25.4545H8.86736C5.38144 25.4545 2.54541 22.6185 2.54541 19.1324V8.86749C2.54541 5.38157 5.38144 2.54541 8.86736 2.54541ZM19.1324 23.4219C21.4977 23.4219 23.422 21.4977 23.422 19.1324H23.4219V8.86749C23.4219 6.50235 21.4976 4.57802 19.1323 4.57802H8.86736C6.50222 4.57802 4.57802 6.50235 4.57802 8.86749V19.1324C4.57802 21.4977 6.50222 23.422 8.86736 23.4219H19.1324ZM7.99995 14.0001C7.99995 10.6916 10.6915 7.99996 14 7.99996C17.3084 7.99996 20 10.6916 20 14.0001C20 17.3085 17.3084 20 14 20C10.6915 20 7.99995 17.3085 7.99995 14.0001ZM10.0659 14C10.0659 16.1691 11.8308 17.9338 14 17.9338C16.1691 17.9338 17.934 16.1691 17.934 14C17.934 11.8306 16.1692 10.0658 14 10.0658C11.8307 10.0658 10.0659 11.8306 10.0659 14Z" fill="url(#paint0_linear_465_1236)"/>
<mask id="mask0_465_1236" style="mask-type:luminance" maskUnits="userSpaceOnUse" x="2" y="2" width="24" height="24">
<path fill-rule="evenodd" clip-rule="evenodd" d="M8.86736 2.54541H19.1323C22.6185 2.54541 25.4546 5.38157 25.4545 8.86749V19.1324C25.4545 22.6183 22.6185 25.4545 19.1323 25.4545H8.86736C5.38144 25.4545 2.54541 22.6185 2.54541 19.1324V8.86749C2.54541 5.38157 5.38144 2.54541 8.86736 2.54541ZM19.1324 23.4219C21.4977 23.4219 23.422 21.4977 23.422 19.1324H23.4219V8.86749C23.4219 6.50235 21.4976 4.57802 19.1323 4.57802H8.86736C6.50222 4.57802 4.57802 6.50235 4.57802 8.86749V19.1324C4.57802 21.4977 6.50222 23.422 8.86736 23.4219H19.1324ZM7.99995 14.0001C7.99995 10.6916 10.6915 7.99996 14 7.99996C17.3084 7.99996 20 10.6916 20 14.0001C20 17.3085 17.3084 20 14 20C10.6915 20 7.99995 17.3085 7.99995 14.0001ZM10.0659 14C10.0659 16.1691 11.8308 17.9338 14 17.9338C16.1691 17.9338 17.934 16.1691 17.934 14C17.934 11.8306 16.1692 10.0658 14 10.0658C11.8307 10.0658 10.0659 11.8306 10.0659 14Z" fill="white"/>
</mask>
<g mask="url(#mask0_465_1236)">
</g>
<defs>
<linearGradient id="paint0_linear_465_1236" x1="14" y1="2.54541" x2="14" y2="25.4545" gradientUnits="userSpaceOnUse">
<stop stop-color="white"/>
<stop offset="1" stop-color="white" stop-opacity="0"/>
</linearGradient>
</defs>
</svg>
