<svg width="200" height="52" viewBox="0 0 200 52" fill="none" xmlns="http://www.w3.org/2000/svg">
<path d="M25.685 10.2539L24.275 20.1277L11.2325 34.4807L3.26001 34.6183L25.685 10.2539Z" fill="url(#paint0_linear_465_1198)"/>
<path d="M56.5125 34.258H50.5425L55.3625 9.43848H61.3325L56.5125 34.258Z" fill="white"/>
<path d="M73.66 34.258L71.36 24.8694H68.2675L66.435 34.258H60.465L65.2825 9.43848H74.6325C79.63 9.43848 82.685 12.102 82.685 16.2736C82.685 19.9775 80.78 22.531 77.255 23.899L80.2025 34.258H73.66ZM71.9 19.9075C74.6675 19.9075 76.61 19.5124 76.61 16.6337C76.61 14.798 75.0975 14.4054 72.9425 14.4054H70.28L69.2375 19.91H71.9V19.9075Z" fill="white"/>
<path d="M103.1 23.7915C101.625 31.3094 97.5974 34.6181 91.2349 34.6181C85.5899 34.6181 82.2099 30.5541 83.5399 23.7915L84.2949 19.9075C85.7324 12.4246 89.7974 9.08081 96.1974 9.08081C101.84 9.08081 105.185 13.0373 103.855 19.9075L103.1 23.7915ZM89.5074 23.7915C88.7149 27.8555 89.6874 29.6537 92.1699 29.6537C94.6524 29.6537 96.3399 27.8555 97.1324 23.7915L97.8874 19.9075C98.6799 15.8434 97.7074 14.0427 95.2249 14.0427C92.7424 14.0427 91.0549 15.8409 90.2624 19.9075L89.5074 23.7915Z" fill="white"/>
<path d="M128.478 9.43848L123.658 34.258H118.913L112.403 20.2651L109.708 34.258H104.098L108.918 9.43848H113.593L120.138 23.6114L122.868 9.43848H128.478Z" fill="white"/>
<path d="M143.637 16.3086C142.99 14.653 141.877 14.0427 139.647 14.0427C137.417 14.0427 136.34 15.1581 136.34 16.5612C136.34 17.7842 137.527 18.612 140.187 19.4023C144.467 20.6978 146.337 22.7836 146.337 26.1649C146.337 31.2368 142.705 34.6181 136.017 34.6181C131.487 34.6181 128.79 33.3226 127.065 30.5166L131.952 27.4229C132.887 28.971 134.252 29.6537 136.482 29.6537C139.107 29.6537 140.15 28.4658 140.15 27.1002C140.15 25.9123 139.142 25.1945 136.087 24.1516C132.492 22.9286 130.227 20.7703 130.227 17.3165C130.227 12.9273 133.102 9.08081 140.547 9.08081C144.502 9.08081 147.27 10.5564 148.53 13.2899L143.64 16.3111L143.637 16.3086Z" fill="white"/>
<path d="M144.24 34.258L157.688 9.43848H163.443L167.253 34.258H161.103L160.6 30.0139H152.943L150.823 34.258H144.243H144.24ZM155.46 25.0495H160.025L159.163 17.7117L155.46 25.0495Z" fill="white"/>
<path d="M174.65 34.258H168.68L173.5 9.43848H179.47L174.65 34.258Z" fill="white"/>
<path d="M185.543 29.2936H195.25L194.28 34.258H178.603L183.42 9.43848H189.39L185.543 29.2936Z" fill="white"/>
<path d="M37.3175 34.5282H14.3275L43.93 1.04028L37.3175 34.5282Z" fill="url(#paint1_linear_465_1198)"/>
<path d="M71.1726 44.0117C70.8576 43.3965 70.4401 43.0338 69.4226 43.0338C68.3526 43.0338 67.6851 43.5565 67.6851 44.4319C67.6851 45.1246 68.2601 45.4498 69.3301 45.6974C70.7276 46.025 71.6651 46.6402 71.6651 48.0358C71.6651 49.5363 70.5676 50.9619 68.0226 50.9619C66.4826 50.9619 65.5951 50.3867 65.0076 49.4338L66.2851 48.6635C66.7026 49.3062 67.1726 49.6439 68.2051 49.6439C69.6801 49.6439 70.0976 48.9261 70.0976 48.2058C70.0976 47.6331 69.6801 47.2279 68.3876 46.9403C67.0676 46.6527 66.1426 45.9074 66.1426 44.5894C66.1426 43.0738 67.2401 41.7158 69.6926 41.7158C71.0251 41.7158 71.9526 42.251 72.4351 43.2189L71.1701 44.0167L71.1726 44.0117Z" fill="white"/>
<path d="M80.5776 50.9594C78.5676 50.9594 77.4701 49.5889 77.9926 46.9104L78.2151 45.7624C78.7651 42.9263 80.2401 41.7134 82.3801 41.7134C84.4051 41.7134 85.4876 43.0714 84.9651 45.7624L84.7426 46.9104C84.1926 49.7465 82.7826 50.9594 80.5776 50.9594ZM79.5051 46.9104C79.1276 48.8561 79.6376 49.6414 80.8376 49.6414C82.0376 49.6414 82.8476 48.8561 83.2276 46.9104L83.4526 45.7624C83.8301 43.8167 83.3201 43.0339 82.1201 43.0339C80.9201 43.0339 80.1101 43.8167 79.7301 45.7624L79.5051 46.9104Z" fill="white"/>
<path d="M92.3201 49.5338H96.3276L96.0801 50.8418H90.5576L92.3076 41.8308H93.8226L92.3226 49.5363L92.3201 49.5338Z" fill="white"/>
<path d="M110.578 41.8308L109.533 47.1854C109.01 49.8489 107.6 50.9618 105.42 50.9618C103.488 50.9618 102.3 49.7088 102.785 47.2004L103.828 41.8308H105.343L104.3 47.2004C103.96 48.926 104.443 49.6438 105.683 49.6438C106.923 49.6438 107.668 48.926 108.008 47.2004L109.053 41.8308H110.58H110.578Z" fill="white"/>
<path d="M123.298 41.8308L123.038 43.1488H120.453L118.963 50.8418H117.448L118.938 43.1488H116.338L116.6 41.8308H123.295H123.298Z" fill="white"/>
<path d="M129.233 50.8418H127.715L129.465 41.8308H130.983L129.233 50.8418Z" fill="white"/>
<path d="M139.265 50.9594C137.255 50.9594 136.158 49.5889 136.683 46.9104L136.905 45.7624C137.453 42.9263 138.928 41.7134 141.07 41.7134C143.095 41.7134 144.178 43.0714 143.655 45.7624L143.433 46.9104C142.883 49.7465 141.473 50.9594 139.268 50.9594H139.265ZM138.195 46.9104C137.818 48.8561 138.325 49.6414 139.528 49.6414C140.73 49.6414 141.538 48.8561 141.918 46.9104L142.14 45.7624C142.518 43.8167 142.008 43.0339 140.808 43.0339C139.608 43.0339 138.798 43.8167 138.418 45.7624L138.195 46.9104Z" fill="white"/>
<path d="M157.468 41.8308L155.718 50.8418H154.425L151.908 44.6894L150.705 50.8418H149.245L150.995 41.8308H152.26L154.795 48.0732L156.01 41.8308H157.47H157.468Z" fill="white"/>
<path d="M168.663 44.0117C168.348 43.3965 167.93 43.0338 166.913 43.0338C165.843 43.0338 165.178 43.5565 165.178 44.4319C165.178 45.1246 165.75 45.4498 166.82 45.6974C168.218 46.025 169.158 46.6402 169.158 48.0358C169.158 49.5363 168.06 50.9619 165.515 50.9619C163.973 50.9619 163.088 50.3867 162.498 49.4338L163.775 48.6635C164.193 49.3062 164.663 49.6439 165.695 49.6439C167.17 49.6439 167.588 48.9261 167.588 48.2058C167.588 47.6331 167.17 47.2279 165.878 46.9403C164.56 46.6527 163.633 45.9074 163.633 44.5894C163.633 43.0738 164.73 41.7158 167.185 41.7158C168.518 41.7158 169.443 42.251 169.925 43.2189L168.66 44.0167L168.663 44.0117Z" fill="white"/>
<defs>
<linearGradient id="paint0_linear_465_1198" x1="28.2075" y1="15.5584" x2="-4.7833" y2="38.5829" gradientUnits="userSpaceOnUse">
<stop stop-color="#BC6CAC"/>
<stop offset="0.93" stop-color="#814099"/>
</linearGradient>
<linearGradient id="paint1_linear_465_1198" x1="64.7925" y1="27.6355" x2="-0.388537" y2="9.64395" gradientUnits="userSpaceOnUse">
<stop offset="0.03" stop-color="#3BACE2"/>
<stop offset="1" stop-color="#3A5FAC"/>
</linearGradient>
</defs>
</svg>
