<svg width="28" height="28" viewBox="0 0 28 28" fill="none" xmlns="http://www.w3.org/2000/svg">
<path d="M22.4 3.5H5.6C4.445 3.5 3.5 4.445 3.5 5.6V22.4C3.5 23.555 4.445 24.5 5.6 24.5H22.4C23.555 24.5 24.5 23.555 24.5 22.4V5.6C24.5 4.445 23.555 3.5 22.4 3.5ZM9.8 21.35H6.65V11.9H9.8V21.35ZM8.225 10.115C7.175 10.115 6.335 9.275 6.335 8.225C6.335 7.175 7.175 6.335 8.225 6.335C9.275 6.335 10.115 7.175 10.115 8.225C10.115 9.275 9.275 10.115 8.225 10.115ZM21.35 21.35H18.2V15.785C18.2 14.945 17.465 14.21 16.625 14.21C15.785 14.21 15.05 14.945 15.05 15.785V21.35H11.9V11.9H15.05V13.16C15.575 12.32 16.73 11.69 17.675 11.69C19.67 11.69 21.35 13.37 21.35 15.365V21.35Z" fill="white"/>
<path d="M22.4 3.5H5.6C4.445 3.5 3.5 4.445 3.5 5.6V22.4C3.5 23.555 4.445 24.5 5.6 24.5H22.4C23.555 24.5 24.5 23.555 24.5 22.4V5.6C24.5 4.445 23.555 3.5 22.4 3.5ZM9.8 21.35H6.65V11.9H9.8V21.35ZM8.225 10.115C7.175 10.115 6.335 9.275 6.335 8.225C6.335 7.175 7.175 6.335 8.225 6.335C9.275 6.335 10.115 7.175 10.115 8.225C10.115 9.275 9.275 10.115 8.225 10.115ZM21.35 21.35H18.2V15.785C18.2 14.945 17.465 14.21 16.625 14.21C15.785 14.21 15.05 14.945 15.05 15.785V21.35H11.9V11.9H15.05V13.16C15.575 12.32 16.73 11.69 17.675 11.69C19.67 11.69 21.35 13.37 21.35 15.365V21.35Z" fill="url(#paint0_linear_465_1251)"/>
<defs>
<linearGradient id="paint0_linear_465_1251" x1="14" y1="3.5" x2="14" y2="24.5" gradientUnits="userSpaceOnUse">
<stop stop-color="white"/>
<stop offset="1" stop-color="white" stop-opacity="0"/>
</linearGradient>
</defs>
</svg>
