<svg width="88" height="88" viewBox="0 0 88 88" fill="none" xmlns="http://www.w3.org/2000/svg">
<path d="M42.4293 59.2345V61.4094C42.4293 62.2769 43.1333 62.9809 44.0008 62.9809C44.8682 62.9809 45.5722 62.2769 45.5722 61.4094V59.2345C45.5722 58.3671 44.8682 57.6631 44.0008 57.6631C43.1333 57.6631 42.4293 58.3671 42.4293 59.2345Z" fill="#3190BD" fill-opacity="0.9"/>
<path d="M87.9702 42.5975C87.9859 42.5033 88.0016 42.3933 88.0016 42.2833V34.3616C88.0016 34.2516 87.9859 34.1416 87.9702 34.0473C87.7187 30.4801 82.9415 27.5886 73.7642 25.4813C74.0156 23.3912 74.3928 21.3169 74.8485 19.2583L78.73 1.90788C78.9186 1.05929 78.4 0.226431 77.5514 0.0378563C76.7028 -0.150718 75.8542 0.383568 75.6656 1.23215L71.7841 18.5826C71.2027 21.1598 70.7784 23.7684 70.4955 26.3943C70.4798 26.5043 70.4641 26.6143 70.4641 26.7086C70.1813 29.3172 70.0398 31.9415 70.0713 34.5674C70.0713 36.626 70.1656 38.6689 70.3698 40.7118C63.5654 42.0475 54.6082 42.959 44.0008 42.959C34.195 42.959 24.9391 42.1575 17.6318 40.7432C17.9776 37.0503 18.0404 33.3244 17.789 29.6158C17.6161 26.85 17.2704 24.0685 16.7518 21.3169C16.7675 21.3012 16.7675 21.2698 16.7518 21.2383C16.7518 21.2069 16.7518 21.1912 16.7361 21.1598C16.7361 21.1283 16.7361 21.0969 16.7047 21.0655C16.579 20.2326 16.4061 19.3997 16.2175 18.5826L15.6361 15.9583C19.9576 14.984 25.442 14.1982 32.1364 13.7111H32.2463C32.3092 13.7111 32.3564 13.6954 32.4192 13.6797C32.4805 13.6687 32.5308 13.6372 32.589 13.6199C32.6691 13.5948 32.7476 13.5744 32.8215 13.5366C32.9346 13.4816 33.0336 13.4094 33.1279 13.3292C33.1719 13.2931 33.2222 13.2664 33.2615 13.2239C33.2678 13.2176 33.2756 13.2145 33.2819 13.2082C33.3448 13.1454 33.4077 13.0668 33.4548 12.9725C33.4784 12.9379 33.4894 12.8939 33.5098 12.8546C33.5412 12.7933 33.5727 12.7368 33.5962 12.6724C33.6607 12.5026 33.7063 12.3235 33.7063 12.1396V12.0296C33.7063 12.0265 33.7031 12.0233 33.7031 12.0202V4.23364C33.7031 4.22892 33.7063 4.2242 33.7063 4.21949V4.10949C33.7063 4.06234 33.6905 3.99949 33.6748 3.95235C33.6622 3.86906 33.6277 3.79677 33.6025 3.71977C33.5852 3.66948 33.579 3.6192 33.557 3.57206C33.4941 3.4322 33.4155 3.30177 33.3134 3.18234C33.2977 3.15876 33.2757 3.14462 33.2568 3.12576C33.2442 3.11319 33.2332 3.10219 33.2222 3.09119C33.2144 3.08491 33.2112 3.07705 33.2034 3.07233C33.1248 3.00948 33.062 2.94662 32.9677 2.89947C32.9378 2.88062 32.9001 2.87119 32.8686 2.85233C32.7963 2.81305 32.7272 2.7769 32.6471 2.74861C32.4978 2.69361 32.3422 2.66061 32.1819 2.65433C32.1647 2.65433 32.1489 2.64332 32.1316 2.64332C32.1269 2.64332 32.1222 2.64646 32.1175 2.64646H32.0248C25.5347 3.10219 18.8403 3.98221 13.2616 5.36509L12.3345 1.23215C12.1459 0.383568 11.2973 -0.150718 10.4487 0.0378563C9.60011 0.226431 9.08153 1.05929 9.27011 1.90788L10.2287 6.19795C4.33576 8.00513 0.265713 10.4723 0.0299949 13.6781C0.0142804 13.7724 -0.00146484 13.8824 -0.00146484 13.9924V21.9141C-0.00146484 22.0241 0.0142804 22.1341 0.0299949 22.2284C0.281428 25.8584 5.21579 28.7813 14.7074 30.8887C14.8645 33.953 14.8016 37.033 14.5345 40.0832C11.7059 39.4075 9.27012 38.6375 7.32152 37.7732C7.31052 37.7685 7.29636 37.7653 7.28536 37.7606C7.25393 37.7465 7.21938 37.7386 7.18638 37.7261C7.12666 37.7025 7.07011 37.6726 7.00726 37.6632C6.95697 37.6537 6.90666 37.6648 6.8548 37.6585C6.78251 37.6475 6.71807 37.616 6.64264 37.616C6.58607 37.616 6.53736 37.6427 6.48078 37.649C6.47764 37.649 6.47292 37.6506 6.47292 37.6506C5.68876 37.7386 5.07119 38.3798 5.07119 39.1875V47.1123C5.07119 47.4219 5.18435 47.6938 5.33835 47.9374C5.33992 47.9405 5.34306 47.9436 5.34464 47.9468C5.42792 48.0756 5.51748 48.1935 5.63377 48.2925C5.64163 48.3004 5.64635 48.3114 5.65578 48.3176C5.72178 48.3742 5.80509 48.4135 5.88209 48.4591C5.93709 48.4905 5.98264 48.5361 6.04078 48.5612L6.04864 48.5691C7.90296 49.3862 10.1659 50.1248 12.7431 50.7848C12.3345 52.4349 11.8473 54.0849 11.313 55.7035C9.31728 61.7237 6.91294 67.3967 4.13147 72.551C3.23574 74.2325 2.46574 76.0711 1.83716 78.0511C1.79001 78.1297 1.75859 78.2083 1.74287 78.3026C1.74287 78.3183 1.72714 78.3497 1.72714 78.3654C0.957132 80.7697 0.391414 83.4098 0.014265 86.2243C-0.0957368 87.0886 0.501393 87.8743 1.36569 87.9843C1.42855 88 1.50713 88 1.56999 88C2.35572 88 3.01576 87.4343 3.12576 86.6328C3.42434 84.3432 3.86273 82.3522 4.3326 80.611C7.59651 81.3716 12.0595 82.0348 17.3867 82.5424C17.437 82.5471 17.4873 82.5486 17.5376 82.5486C18.339 82.5486 19.0226 81.9389 19.1011 81.1265C19.1829 80.2622 18.5496 79.4953 17.6853 79.4136C12.6267 78.9312 8.40742 78.312 5.31322 77.6095C5.86323 76.1497 6.41321 74.9554 6.91451 74.0439C7.38594 73.1639 7.84167 72.2682 8.29739 71.3426C14.8032 73.5018 28.4041 74.8705 43.8625 74.8705C59.3414 74.8705 73.2676 73.4405 79.6571 71.2577L79.6587 71.2609C80.1302 72.2038 80.6016 73.1309 81.0888 74.0424C81.5759 74.9381 82.1259 76.101 82.6759 77.531L82.6775 77.5373C74.9035 79.3664 60.0265 80.5262 43.839 80.5262C37.836 80.5262 32.0106 80.3722 26.5231 80.0673C25.6557 80.0139 24.9155 80.6833 24.8668 81.5492C24.8181 82.4151 25.4828 83.1568 26.3487 83.2055C31.8944 83.5135 37.7779 83.6691 43.839 83.6691C60.3817 83.6691 75.6656 82.4528 83.6502 80.5372C84.1216 82.2956 84.5601 84.3212 84.8744 86.6297C84.9844 87.4311 85.6444 87.9969 86.4301 87.9969C86.493 87.9969 86.5715 87.9969 86.6344 87.9812C87.4987 87.8712 88.0958 87.0854 87.9858 86.2211C87.6087 83.3611 87.0273 80.7053 86.2415 78.268C86.2415 78.2523 86.2258 78.2209 86.2258 78.2051L86.2242 78.202V78.1988C86.2242 78.1988 86.2227 78.1957 86.2211 78.1926C86.1913 78.1156 86.1614 78.0276 86.1315 77.9537C85.5029 76.0051 84.7486 74.1979 83.8686 72.5479C83.2086 71.3222 82.5643 70.065 81.9515 68.7764C81.9515 68.7623 81.9373 68.7481 81.9232 68.734C81.909 68.6947 81.9137 68.6538 81.8964 68.6145C81.8792 68.5753 81.8446 68.5517 81.8242 68.514C81.8085 68.481 81.7943 68.4496 81.7786 68.4134C81.7786 68.3977 81.7786 68.3977 81.7786 68.3977C79.8614 64.4062 78.1642 60.146 76.6871 55.6988C76.1528 54.0802 75.6657 52.4301 75.2571 50.7801C82.7215 48.8834 87.7187 46.1333 87.9702 42.5975ZM13.1532 19.2583C13.1689 19.2897 13.1689 19.3369 13.1846 19.3683C11.4089 18.9126 9.91598 18.4254 8.67453 17.9697C9.80598 17.5297 11.1103 17.1054 12.5875 16.7126L13.1532 19.2583ZM10.9217 9.26386C11.8489 8.98099 12.8546 8.69813 13.9389 8.43099C18.1818 7.37811 23.6961 6.46667 30.5618 5.91666V10.6782C25.1732 11.1025 19.7203 11.8411 14.9447 12.8939C13.8918 13.1296 12.8703 13.3811 11.896 13.6482C9.24028 14.3711 6.88308 15.204 4.99733 16.1626C4.32161 16.5083 3.69304 16.8697 3.14303 17.2468V13.9939C3.14303 12.6896 5.67309 10.8825 10.9217 9.26386ZM3.14303 21.9156C3.14303 21.2871 3.72449 20.5485 4.93451 19.747C7.15026 20.8785 10.1203 21.8999 13.8446 22.7642C14.1118 24.3671 14.3318 25.9857 14.4732 27.62C5.57877 25.4986 3.14303 22.9999 3.14303 21.9156ZM84.8587 34.3616C84.8587 35.053 84.2615 35.7916 83.0986 36.5302C80.6943 35.2887 77.3942 34.2044 73.2142 33.293C73.2299 31.7372 73.2928 30.1815 73.4342 28.6415C82.4229 30.7629 84.8587 33.2615 84.8587 34.3616ZM73.2456 36.516C75.7442 37.0975 77.74 37.7103 79.3272 38.3232C77.7086 38.9361 75.7442 39.5175 73.4656 40.0518C73.3556 38.8732 73.277 37.6946 73.2456 36.516ZM73.7013 56.6951C75.0512 60.7604 76.5881 64.6828 78.2979 68.4024C72.2116 70.3872 58.6028 71.7292 43.861 71.7292C29.1742 71.7292 15.8954 70.4437 9.66455 68.481C11.3932 64.7409 12.9489 60.7966 14.3004 56.6951C14.8661 54.9665 15.3847 53.2221 15.8089 51.4778C23.5405 53.1121 33.5035 54.0393 44.0008 54.0393C54.0739 54.0393 64.194 53.1907 72.1927 51.4936C72.6327 53.2379 73.1356 54.9822 73.7013 56.6951ZM74.5657 47.7048C73.6071 47.9562 72.5699 48.1919 71.4856 48.4119C64.5712 49.8734 55.1896 50.8948 44.0008 50.8948C33.6921 50.8948 23.9648 49.9991 16.5004 48.4277C15.4318 48.2076 14.3946 47.9719 13.436 47.7205C11.4717 47.2176 9.72744 46.6676 8.21884 46.0705L8.21568 46.0689V41.496L8.21884 41.4975C9.96316 42.1261 11.9746 42.7075 14.1903 43.2104C15.1804 43.4461 16.2018 43.6504 17.2704 43.8547C19.3604 44.2476 21.6076 44.609 23.9648 44.9076V46.4162C23.9648 47.2805 24.672 47.9876 25.5363 47.9876C26.4163 47.9876 27.1077 47.2805 27.1077 46.4162V45.269C31.9006 45.7562 37.0707 46.0547 42.4294 46.0862V47.1076C42.4294 47.9719 43.1365 48.6791 44.0008 48.6791C44.8651 48.6791 45.5723 47.9719 45.5723 47.1076V46.0862C50.7895 46.0547 56.0068 45.7719 60.894 45.269V46.4162C60.894 47.2805 61.5854 47.9876 62.4654 47.9876C63.3297 47.9876 64.0369 47.2805 64.0369 46.4162V44.9233C66.3783 44.6247 68.6255 44.279 70.7313 43.8704C71.7999 43.6662 72.8213 43.4461 73.8113 43.2261C77.4728 42.3618 80.6157 41.3404 83.0043 40.1146C83.6801 39.7689 84.3086 39.4075 84.8587 39.0304V42.2833C84.8587 43.9804 81.1815 46.0233 74.5657 47.7048Z" fill="#3190BD" fill-opacity="0.9"/>
</svg>
