<svg width="90" height="90" viewBox="0 0 90 90" fill="none" xmlns="http://www.w3.org/2000/svg">
<mask id="path-1-outside-1_485_1295" maskUnits="userSpaceOnUse" x="0" y="0" width="90" height="90" fill="black">
<rect fill="white" width="90" height="90"/>
<path d="M88.5504 1.4413C88.261 1.15665 87.8764 1 87.4675 1H87.4666L71.6295 1.00892C71.22 1.00923 70.8351 1.16652 70.546 1.45149C70.2566 1.73678 70.098 2.11567 70.099 2.51877L70.1074 6.22017C70.1084 6.62358 70.2689 7.00216 70.56 7.28617C70.8487 7.56827 71.2317 7.72333 71.6383 7.72333C71.6412 7.72333 71.6441 7.72333 71.647 7.72333L77.3638 7.69404L70.9733 13.9796C60.9751 6.49017 46.8359 7.41003 37.9089 16.1905C36.2897 17.7832 34.9246 19.5576 33.8194 21.462C31.3521 20.6927 28.7938 20.2982 26.206 20.2982C12.3073 20.2982 1 31.4202 1 45.0907C1 57.5087 10.3369 67.9923 22.7908 69.6505V76.5175H18.7706C17.926 76.5175 17.2391 77.1931 17.2391 78.0238V81.73C17.2391 82.5607 17.926 83.2363 18.7706 83.2363H22.7908V87.4937C22.7908 88.3244 23.4777 89 24.3223 89H28.0903C28.9349 89 29.6218 88.3244 29.6218 87.4937V83.2363H33.642C34.4866 83.2363 35.1735 82.5607 35.1735 81.73V78.0238C35.1735 77.1931 34.4866 76.5175 33.642 76.5175H29.6218V69.6505C37.4178 68.6119 44.2245 64.0664 48.1133 57.3482C50.6461 58.1375 53.2312 58.5275 55.7908 58.5272C62.3519 58.5269 68.7339 55.9956 73.5563 51.2524C82.4836 42.4716 83.4182 28.5645 75.8041 18.7304L82.1946 12.4449L82.1648 18.0678C82.1628 18.4709 82.3205 18.8508 82.6092 19.1367C82.898 19.4229 83.2829 19.5809 83.6927 19.5818L87.4559 19.5901C87.4572 19.5901 87.4581 19.5901 87.4594 19.5901C87.8676 19.5901 88.2516 19.4341 88.541 19.1504C88.8307 18.8661 88.9909 18.4875 88.9909 18.0847L89 2.50762C88.999 2.10485 88.8398 1.72595 88.5504 1.4413ZM29.0786 68.7545C28.8342 68.7829 28.65 68.987 28.65 69.229V76.9944C28.65 77.2584 28.8672 77.472 29.1356 77.472H33.6414C33.9505 77.472 34.2017 77.7191 34.2017 78.0232V81.7293C34.2017 82.0334 33.9505 82.2805 33.6414 82.2805H29.1356C28.8672 82.2805 28.65 82.4941 28.65 82.7581V87.493C28.65 87.7971 28.3988 88.0442 28.0897 88.0442H24.3216C24.0128 88.0442 23.7613 87.7971 23.7613 87.493V82.7581C23.7613 82.4941 23.5441 82.2805 23.2757 82.2805H18.7699C18.4608 82.2805 18.2096 82.0334 18.2096 81.7293V78.0232C18.2096 77.7191 18.4608 77.472 18.7699 77.472H23.2757C23.5441 77.472 23.7613 77.2584 23.7613 76.9944V69.229C23.7613 68.987 23.5771 68.7832 23.3327 68.7545C11.1543 67.3393 1.97082 57.1657 1.97082 45.0901C1.97082 31.9462 12.8427 21.2528 26.2057 21.2528C28.6303 21.2528 31.0293 21.6088 33.3458 22.3118C32.5504 23.8172 31.9189 25.3987 31.456 27.0352C29.7532 26.5567 27.9893 26.3144 26.206 26.3144C20.9392 26.3144 16.0349 28.3786 12.3967 32.1268C8.76072 35.8731 6.89289 40.7939 7.13761 45.9839C7.58693 55.5027 15.516 63.3459 25.1895 63.84C32.4304 64.2075 39.173 60.5949 42.7772 54.4058C43.1848 53.7057 43.5444 52.9842 43.8549 52.2439C44.3725 51.0098 44.7538 49.7238 44.9934 48.3999V48.3989C45.1934 47.2934 45.2951 46.1806 45.2951 45.0907C45.2951 39.2583 42.6238 33.8824 37.9552 30.2947C38.3003 28.5531 38.9027 26.8859 39.7492 25.3283C46.4543 29.7783 50.4408 37.1276 50.4408 45.0907C50.4408 47.0948 50.1815 49.101 49.6697 51.0534C49.5875 51.3674 49.4956 51.6823 49.3988 51.9965C49.3781 52.0643 49.3567 52.1318 49.3353 52.1997C49.2369 52.5101 49.1337 52.8196 49.0226 53.1259C49.0223 53.1272 49.0217 53.1281 49.0213 53.1294L48.9731 53.2596C48.9669 53.2765 48.9602 53.293 48.9537 53.3099C48.853 53.5799 48.7455 53.8509 48.6329 54.1215C48.618 54.1572 48.6031 54.1925 48.5882 54.2279C48.471 54.5052 48.349 54.7819 48.2208 55.056C48.2205 55.0567 48.2201 55.0573 48.2198 55.0579C48.1638 55.177 48.1072 55.2958 48.0492 55.4142C47.9861 55.5432 47.9226 55.6718 47.8576 55.7995C47.8479 55.8189 47.8385 55.8383 47.8284 55.8578C44.1439 62.9969 37.1346 67.8185 29.0786 68.7545ZM31.2109 27.9627C30.7619 29.8279 30.5256 31.7562 30.5256 33.721C30.5256 40.3434 33.1477 46.5691 37.9086 51.2518C39.061 52.3856 40.3393 53.4083 41.7048 54.3097C38.2329 59.9521 31.9668 63.2303 25.2397 62.8861C16.0592 62.4174 8.53379 54.9736 8.10779 45.9399C7.87536 41.0133 9.64802 36.3421 13.0991 32.7868C16.5522 29.229 21.2069 27.2699 26.206 27.2699C27.9068 27.2696 29.5878 27.5046 31.2109 27.9627ZM37.7703 31.3808C41.943 34.7813 44.3236 39.7308 44.3236 45.0904C44.3236 45.8616 44.2695 46.6452 44.1637 47.43C43.7257 47.0734 43.3084 46.7031 42.9206 46.322C39.387 42.846 37.5039 38.2248 37.6188 33.3087C37.6341 32.6585 37.6862 32.0157 37.7703 31.3808ZM40.2254 24.4954C41.1188 23.0492 42.2266 21.7161 43.5399 20.538C50.3764 14.405 61.0871 14.4053 67.9236 20.538C71.6272 23.8605 73.7301 28.3958 73.845 33.3087C73.9599 38.2245 72.0772 42.846 68.5432 46.3217C63.8604 50.9273 57.0685 52.6375 50.7199 50.842C51.1769 48.9536 51.4116 47.0212 51.4116 45.0898C51.4116 36.7821 47.2377 29.1189 40.2254 24.4954ZM88.0188 18.0837C88.0185 18.2312 87.9602 18.3697 87.854 18.4738C87.7482 18.5776 87.6077 18.6346 87.4585 18.6346C87.4585 18.6346 87.4578 18.6346 87.4572 18.6346L83.694 18.6263C83.5441 18.626 83.4033 18.568 83.2975 18.4636C83.1916 18.3588 83.134 18.22 83.1346 18.0723L83.1706 11.2878C83.1715 11.0942 83.0537 10.9191 82.8721 10.8446C82.6905 10.7698 82.4807 10.8105 82.3419 10.9478L74.8139 18.3522C74.6397 18.5235 74.6235 18.7957 74.776 18.9855C82.3697 28.4566 81.5497 42.0376 72.8684 50.5765C66.4679 56.8715 57.2116 59.1144 48.5863 56.4977C48.6018 56.4681 48.6154 56.4372 48.6309 56.4076C48.6517 56.3682 48.6737 56.3293 48.6941 56.2895C48.7721 56.1376 48.8475 55.9845 48.9223 55.8313C48.9831 55.7068 49.043 55.5817 49.1016 55.4563C49.1026 55.454 49.1036 55.4518 49.1045 55.4496C49.1764 55.2958 49.2424 55.1391 49.3111 54.9841C49.4011 54.7809 49.4897 54.5784 49.5739 54.3743C49.6357 54.2234 49.695 54.0715 49.7539 53.919C49.794 53.8155 49.8384 53.7121 49.8766 53.6086L49.9352 53.4497C49.963 53.3733 49.986 53.2956 50.0132 53.2189C50.0744 53.045 50.1326 52.8705 50.1899 52.6951C50.2605 52.4792 50.3278 52.264 50.3923 52.0468C50.4198 51.9542 50.4521 51.8631 50.4787 51.7701C57.1592 53.6487 64.3022 51.8434 69.2295 46.997C72.9525 43.3351 74.9366 38.4661 74.8155 33.2867C74.6944 28.1102 72.4793 23.3319 68.5779 19.8321C61.3746 13.3702 50.0889 13.3702 42.8853 19.8321C38.9839 23.3319 36.7688 28.1102 36.6474 33.2867C36.5263 38.4661 38.51 43.3351 42.2334 46.9973C42.7698 47.5249 43.356 48.0337 43.9792 48.5132C43.9607 48.6068 43.9419 48.7008 43.9219 48.7941C43.9024 48.8848 43.8837 48.9755 43.8626 49.066C43.826 49.2248 43.7856 49.3825 43.7445 49.5397C43.7251 49.6136 43.7076 49.6881 43.6872 49.762C43.6241 49.9916 43.5567 50.2198 43.4845 50.4465C43.4771 50.4701 43.4683 50.493 43.4606 50.5166C43.3945 50.7201 43.3249 50.9226 43.2515 51.1238C43.2239 51.1993 43.1938 51.2738 43.1654 51.3486C43.1087 51.497 43.0511 51.6453 42.9905 51.7921C42.9553 51.8771 42.9184 51.9615 42.8821 52.0459C42.8232 52.1825 42.763 52.3184 42.7005 52.4537C42.6607 52.5397 42.6199 52.6254 42.5788 52.7107C42.5144 52.8447 42.4477 52.9775 42.3797 53.11C42.3373 53.1927 42.2949 53.2752 42.2509 53.3574C42.2282 53.3997 42.2039 53.4414 42.1809 53.4834C40.8903 52.626 39.6857 51.6498 38.5942 50.5765C34.0169 46.0743 31.4958 40.0884 31.4958 33.721C31.4958 31.7132 31.7476 29.7436 32.2345 27.8462C32.2491 27.8172 32.2607 27.7863 32.2691 27.7545C32.7693 25.8438 33.5129 23.9967 34.4795 22.264C34.4882 22.2487 34.4931 22.2319 34.4999 22.2156C35.5895 20.2769 36.9578 18.4751 38.5945 16.8652C47.2755 8.32638 61.0832 7.51988 70.7124 14.9892C70.9054 15.1389 71.1825 15.1229 71.3563 14.952L78.8843 7.54757C79.0235 7.41066 79.0649 7.20466 78.9892 7.02603C78.9137 6.84805 78.737 6.73247 78.5411 6.73247C78.5402 6.73247 78.5395 6.73247 78.5385 6.73247L71.6408 6.76782C71.6399 6.76782 71.6389 6.76782 71.6376 6.76782C71.489 6.76782 71.3489 6.71114 71.2433 6.60798C71.1368 6.50418 71.0779 6.36568 71.0776 6.21794L71.0692 2.51654C71.0688 2.36912 71.1271 2.23062 71.2326 2.12618C71.3385 2.02175 71.4793 1.96443 71.6292 1.96411L87.4662 1.9552H87.4666C87.6161 1.9552 87.7569 2.01251 87.8628 2.11663C87.9686 2.22075 88.0269 2.35925 88.0269 2.50667L88.0188 18.0837Z"/>
</mask>
<path d="M88.5504 1.4413C88.261 1.15665 87.8764 1 87.4675 1H87.4666L71.6295 1.00892C71.22 1.00923 70.8351 1.16652 70.546 1.45149C70.2566 1.73678 70.098 2.11567 70.099 2.51877L70.1074 6.22017C70.1084 6.62358 70.2689 7.00216 70.56 7.28617C70.8487 7.56827 71.2317 7.72333 71.6383 7.72333C71.6412 7.72333 71.6441 7.72333 71.647 7.72333L77.3638 7.69404L70.9733 13.9796C60.9751 6.49017 46.8359 7.41003 37.9089 16.1905C36.2897 17.7832 34.9246 19.5576 33.8194 21.462C31.3521 20.6927 28.7938 20.2982 26.206 20.2982C12.3073 20.2982 1 31.4202 1 45.0907C1 57.5087 10.3369 67.9923 22.7908 69.6505V76.5175H18.7706C17.926 76.5175 17.2391 77.1931 17.2391 78.0238V81.73C17.2391 82.5607 17.926 83.2363 18.7706 83.2363H22.7908V87.4937C22.7908 88.3244 23.4777 89 24.3223 89H28.0903C28.9349 89 29.6218 88.3244 29.6218 87.4937V83.2363H33.642C34.4866 83.2363 35.1735 82.5607 35.1735 81.73V78.0238C35.1735 77.1931 34.4866 76.5175 33.642 76.5175H29.6218V69.6505C37.4178 68.6119 44.2245 64.0664 48.1133 57.3482C50.6461 58.1375 53.2312 58.5275 55.7908 58.5272C62.3519 58.5269 68.7339 55.9956 73.5563 51.2524C82.4836 42.4716 83.4182 28.5645 75.8041 18.7304L82.1946 12.4449L82.1648 18.0678C82.1628 18.4709 82.3205 18.8508 82.6092 19.1367C82.898 19.4229 83.2829 19.5809 83.6927 19.5818L87.4559 19.5901C87.4572 19.5901 87.4581 19.5901 87.4594 19.5901C87.8676 19.5901 88.2516 19.4341 88.541 19.1504C88.8307 18.8661 88.9909 18.4875 88.9909 18.0847L89 2.50762C88.999 2.10485 88.8398 1.72595 88.5504 1.4413ZM29.0786 68.7545C28.8342 68.7829 28.65 68.987 28.65 69.229V76.9944C28.65 77.2584 28.8672 77.472 29.1356 77.472H33.6414C33.9505 77.472 34.2017 77.7191 34.2017 78.0232V81.7293C34.2017 82.0334 33.9505 82.2805 33.6414 82.2805H29.1356C28.8672 82.2805 28.65 82.4941 28.65 82.7581V87.493C28.65 87.7971 28.3988 88.0442 28.0897 88.0442H24.3216C24.0128 88.0442 23.7613 87.7971 23.7613 87.493V82.7581C23.7613 82.4941 23.5441 82.2805 23.2757 82.2805H18.7699C18.4608 82.2805 18.2096 82.0334 18.2096 81.7293V78.0232C18.2096 77.7191 18.4608 77.472 18.7699 77.472H23.2757C23.5441 77.472 23.7613 77.2584 23.7613 76.9944V69.229C23.7613 68.987 23.5771 68.7832 23.3327 68.7545C11.1543 67.3393 1.97082 57.1657 1.97082 45.0901C1.97082 31.9462 12.8427 21.2528 26.2057 21.2528C28.6303 21.2528 31.0293 21.6088 33.3458 22.3118C32.5504 23.8172 31.9189 25.3987 31.456 27.0352C29.7532 26.5567 27.9893 26.3144 26.206 26.3144C20.9392 26.3144 16.0349 28.3786 12.3967 32.1268C8.76072 35.8731 6.89289 40.7939 7.13761 45.9839C7.58693 55.5027 15.516 63.3459 25.1895 63.84C32.4304 64.2075 39.173 60.5949 42.7772 54.4058C43.1848 53.7057 43.5444 52.9842 43.8549 52.2439C44.3725 51.0098 44.7538 49.7238 44.9934 48.3999V48.3989C45.1934 47.2934 45.2951 46.1806 45.2951 45.0907C45.2951 39.2583 42.6238 33.8824 37.9552 30.2947C38.3003 28.5531 38.9027 26.8859 39.7492 25.3283C46.4543 29.7783 50.4408 37.1276 50.4408 45.0907C50.4408 47.0948 50.1815 49.101 49.6697 51.0534C49.5875 51.3674 49.4956 51.6823 49.3988 51.9965C49.3781 52.0643 49.3567 52.1318 49.3353 52.1997C49.2369 52.5101 49.1337 52.8196 49.0226 53.1259C49.0223 53.1272 49.0217 53.1281 49.0213 53.1294L48.9731 53.2596C48.9669 53.2765 48.9602 53.293 48.9537 53.3099C48.853 53.5799 48.7455 53.8509 48.6329 54.1215C48.618 54.1572 48.6031 54.1925 48.5882 54.2279C48.471 54.5052 48.349 54.7819 48.2208 55.056C48.2205 55.0567 48.2201 55.0573 48.2198 55.0579C48.1638 55.177 48.1072 55.2958 48.0492 55.4142C47.9861 55.5432 47.9226 55.6718 47.8576 55.7995C47.8479 55.8189 47.8385 55.8383 47.8284 55.8578C44.1439 62.9969 37.1346 67.8185 29.0786 68.7545ZM31.2109 27.9627C30.7619 29.8279 30.5256 31.7562 30.5256 33.721C30.5256 40.3434 33.1477 46.5691 37.9086 51.2518C39.061 52.3856 40.3393 53.4083 41.7048 54.3097C38.2329 59.9521 31.9668 63.2303 25.2397 62.8861C16.0592 62.4174 8.53379 54.9736 8.10779 45.9399C7.87536 41.0133 9.64802 36.3421 13.0991 32.7868C16.5522 29.229 21.2069 27.2699 26.206 27.2699C27.9068 27.2696 29.5878 27.5046 31.2109 27.9627ZM37.7703 31.3808C41.943 34.7813 44.3236 39.7308 44.3236 45.0904C44.3236 45.8616 44.2695 46.6452 44.1637 47.43C43.7257 47.0734 43.3084 46.7031 42.9206 46.322C39.387 42.846 37.5039 38.2248 37.6188 33.3087C37.6341 32.6585 37.6862 32.0157 37.7703 31.3808ZM40.2254 24.4954C41.1188 23.0492 42.2266 21.7161 43.5399 20.538C50.3764 14.405 61.0871 14.4053 67.9236 20.538C71.6272 23.8605 73.7301 28.3958 73.845 33.3087C73.9599 38.2245 72.0772 42.846 68.5432 46.3217C63.8604 50.9273 57.0685 52.6375 50.7199 50.842C51.1769 48.9536 51.4116 47.0212 51.4116 45.0898C51.4116 36.7821 47.2377 29.1189 40.2254 24.4954ZM88.0188 18.0837C88.0185 18.2312 87.9602 18.3697 87.854 18.4738C87.7482 18.5776 87.6077 18.6346 87.4585 18.6346C87.4585 18.6346 87.4578 18.6346 87.4572 18.6346L83.694 18.6263C83.5441 18.626 83.4033 18.568 83.2975 18.4636C83.1916 18.3588 83.134 18.22 83.1346 18.0723L83.1706 11.2878C83.1715 11.0942 83.0537 10.9191 82.8721 10.8446C82.6905 10.7698 82.4807 10.8105 82.3419 10.9478L74.8139 18.3522C74.6397 18.5235 74.6235 18.7957 74.776 18.9855C82.3697 28.4566 81.5497 42.0376 72.8684 50.5765C66.4679 56.8715 57.2116 59.1144 48.5863 56.4977C48.6018 56.4681 48.6154 56.4372 48.6309 56.4076C48.6517 56.3682 48.6737 56.3293 48.6941 56.2895C48.7721 56.1376 48.8475 55.9845 48.9223 55.8313C48.9831 55.7068 49.043 55.5817 49.1016 55.4563C49.1026 55.454 49.1036 55.4518 49.1045 55.4496C49.1764 55.2958 49.2424 55.1391 49.3111 54.9841C49.4011 54.7809 49.4897 54.5784 49.5739 54.3743C49.6357 54.2234 49.695 54.0715 49.7539 53.919C49.794 53.8155 49.8384 53.7121 49.8766 53.6086L49.9352 53.4497C49.963 53.3733 49.986 53.2956 50.0132 53.2189C50.0744 53.045 50.1326 52.8705 50.1899 52.6951C50.2605 52.4792 50.3278 52.264 50.3923 52.0468C50.4198 51.9542 50.4521 51.8631 50.4787 51.7701C57.1592 53.6487 64.3022 51.8434 69.2295 46.997C72.9525 43.3351 74.9366 38.4661 74.8155 33.2867C74.6944 28.1102 72.4793 23.3319 68.5779 19.8321C61.3746 13.3702 50.0889 13.3702 42.8853 19.8321C38.9839 23.3319 36.7688 28.1102 36.6474 33.2867C36.5263 38.4661 38.51 43.3351 42.2334 46.9973C42.7698 47.5249 43.356 48.0337 43.9792 48.5132C43.9607 48.6068 43.9419 48.7008 43.9219 48.7941C43.9024 48.8848 43.8837 48.9755 43.8626 49.066C43.826 49.2248 43.7856 49.3825 43.7445 49.5397C43.7251 49.6136 43.7076 49.6881 43.6872 49.762C43.6241 49.9916 43.5567 50.2198 43.4845 50.4465C43.4771 50.4701 43.4683 50.493 43.4606 50.5166C43.3945 50.7201 43.3249 50.9226 43.2515 51.1238C43.2239 51.1993 43.1938 51.2738 43.1654 51.3486C43.1087 51.497 43.0511 51.6453 42.9905 51.7921C42.9553 51.8771 42.9184 51.9615 42.8821 52.0459C42.8232 52.1825 42.763 52.3184 42.7005 52.4537C42.6607 52.5397 42.6199 52.6254 42.5788 52.7107C42.5144 52.8447 42.4477 52.9775 42.3797 53.11C42.3373 53.1927 42.2949 53.2752 42.2509 53.3574C42.2282 53.3997 42.2039 53.4414 42.1809 53.4834C40.8903 52.626 39.6857 51.6498 38.5942 50.5765C34.0169 46.0743 31.4958 40.0884 31.4958 33.721C31.4958 31.7132 31.7476 29.7436 32.2345 27.8462C32.2491 27.8172 32.2607 27.7863 32.2691 27.7545C32.7693 25.8438 33.5129 23.9967 34.4795 22.264C34.4882 22.2487 34.4931 22.2319 34.4999 22.2156C35.5895 20.2769 36.9578 18.4751 38.5945 16.8652C47.2755 8.32638 61.0832 7.51988 70.7124 14.9892C70.9054 15.1389 71.1825 15.1229 71.3563 14.952L78.8843 7.54757C79.0235 7.41066 79.0649 7.20466 78.9892 7.02603C78.9137 6.84805 78.737 6.73247 78.5411 6.73247C78.5402 6.73247 78.5395 6.73247 78.5385 6.73247L71.6408 6.76782C71.6399 6.76782 71.6389 6.76782 71.6376 6.76782C71.489 6.76782 71.3489 6.71114 71.2433 6.60798C71.1368 6.50418 71.0779 6.36568 71.0776 6.21794L71.0692 2.51654C71.0688 2.36912 71.1271 2.23062 71.2326 2.12618C71.3385 2.02175 71.4793 1.96443 71.6292 1.96411L87.4662 1.9552H87.4666C87.6161 1.9552 87.7569 2.01251 87.8628 2.11663C87.9686 2.22075 88.0269 2.35925 88.0269 2.50667L88.0188 18.0837Z" fill="#3190BD" fill-opacity="0.9"/>
<path d="M88.5504 1.4413C88.261 1.15665 87.8764 1 87.4675 1H87.4666L71.6295 1.00892C71.22 1.00923 70.8351 1.16652 70.546 1.45149C70.2566 1.73678 70.098 2.11567 70.099 2.51877L70.1074 6.22017C70.1084 6.62358 70.2689 7.00216 70.56 7.28617C70.8487 7.56827 71.2317 7.72333 71.6383 7.72333C71.6412 7.72333 71.6441 7.72333 71.647 7.72333L77.3638 7.69404L70.9733 13.9796C60.9751 6.49017 46.8359 7.41003 37.9089 16.1905C36.2897 17.7832 34.9246 19.5576 33.8194 21.462C31.3521 20.6927 28.7938 20.2982 26.206 20.2982C12.3073 20.2982 1 31.4202 1 45.0907C1 57.5087 10.3369 67.9923 22.7908 69.6505V76.5175H18.7706C17.926 76.5175 17.2391 77.1931 17.2391 78.0238V81.73C17.2391 82.5607 17.926 83.2363 18.7706 83.2363H22.7908V87.4937C22.7908 88.3244 23.4777 89 24.3223 89H28.0903C28.9349 89 29.6218 88.3244 29.6218 87.4937V83.2363H33.642C34.4866 83.2363 35.1735 82.5607 35.1735 81.73V78.0238C35.1735 77.1931 34.4866 76.5175 33.642 76.5175H29.6218V69.6505C37.4178 68.6119 44.2245 64.0664 48.1133 57.3482C50.6461 58.1375 53.2312 58.5275 55.7908 58.5272C62.3519 58.5269 68.7339 55.9956 73.5563 51.2524C82.4836 42.4716 83.4182 28.5645 75.8041 18.7304L82.1946 12.4449L82.1648 18.0678C82.1628 18.4709 82.3205 18.8508 82.6092 19.1367C82.898 19.4229 83.2829 19.5809 83.6927 19.5818L87.4559 19.5901C87.4572 19.5901 87.4581 19.5901 87.4594 19.5901C87.8676 19.5901 88.2516 19.4341 88.541 19.1504C88.8307 18.8661 88.9909 18.4875 88.9909 18.0847L89 2.50762C88.999 2.10485 88.8398 1.72595 88.5504 1.4413ZM29.0786 68.7545C28.8342 68.7829 28.65 68.987 28.65 69.229V76.9944C28.65 77.2584 28.8672 77.472 29.1356 77.472H33.6414C33.9505 77.472 34.2017 77.7191 34.2017 78.0232V81.7293C34.2017 82.0334 33.9505 82.2805 33.6414 82.2805H29.1356C28.8672 82.2805 28.65 82.4941 28.65 82.7581V87.493C28.65 87.7971 28.3988 88.0442 28.0897 88.0442H24.3216C24.0128 88.0442 23.7613 87.7971 23.7613 87.493V82.7581C23.7613 82.4941 23.5441 82.2805 23.2757 82.2805H18.7699C18.4608 82.2805 18.2096 82.0334 18.2096 81.7293V78.0232C18.2096 77.7191 18.4608 77.472 18.7699 77.472H23.2757C23.5441 77.472 23.7613 77.2584 23.7613 76.9944V69.229C23.7613 68.987 23.5771 68.7832 23.3327 68.7545C11.1543 67.3393 1.97082 57.1657 1.97082 45.0901C1.97082 31.9462 12.8427 21.2528 26.2057 21.2528C28.6303 21.2528 31.0293 21.6088 33.3458 22.3118C32.5504 23.8172 31.9189 25.3987 31.456 27.0352C29.7532 26.5567 27.9893 26.3144 26.206 26.3144C20.9392 26.3144 16.0349 28.3786 12.3967 32.1268C8.76072 35.8731 6.89289 40.7939 7.13761 45.9839C7.58693 55.5027 15.516 63.3459 25.1895 63.84C32.4304 64.2075 39.173 60.5949 42.7772 54.4058C43.1848 53.7057 43.5444 52.9842 43.8549 52.2439C44.3725 51.0098 44.7538 49.7238 44.9934 48.3999V48.3989C45.1934 47.2934 45.2951 46.1806 45.2951 45.0907C45.2951 39.2583 42.6238 33.8824 37.9552 30.2947C38.3003 28.5531 38.9027 26.8859 39.7492 25.3283C46.4543 29.7783 50.4408 37.1276 50.4408 45.0907C50.4408 47.0948 50.1815 49.101 49.6697 51.0534C49.5875 51.3674 49.4956 51.6823 49.3988 51.9965C49.3781 52.0643 49.3567 52.1318 49.3353 52.1997C49.2369 52.5101 49.1337 52.8196 49.0226 53.1259C49.0223 53.1272 49.0217 53.1281 49.0213 53.1294L48.9731 53.2596C48.9669 53.2765 48.9602 53.293 48.9537 53.3099C48.853 53.5799 48.7455 53.8509 48.6329 54.1215C48.618 54.1572 48.6031 54.1925 48.5882 54.2279C48.471 54.5052 48.349 54.7819 48.2208 55.056C48.2205 55.0567 48.2201 55.0573 48.2198 55.0579C48.1638 55.177 48.1072 55.2958 48.0492 55.4142C47.9861 55.5432 47.9226 55.6718 47.8576 55.7995C47.8479 55.8189 47.8385 55.8383 47.8284 55.8578C44.1439 62.9969 37.1346 67.8185 29.0786 68.7545ZM31.2109 27.9627C30.7619 29.8279 30.5256 31.7562 30.5256 33.721C30.5256 40.3434 33.1477 46.5691 37.9086 51.2518C39.061 52.3856 40.3393 53.4083 41.7048 54.3097C38.2329 59.9521 31.9668 63.2303 25.2397 62.8861C16.0592 62.4174 8.53379 54.9736 8.10779 45.9399C7.87536 41.0133 9.64802 36.3421 13.0991 32.7868C16.5522 29.229 21.2069 27.2699 26.206 27.2699C27.9068 27.2696 29.5878 27.5046 31.2109 27.9627ZM37.7703 31.3808C41.943 34.7813 44.3236 39.7308 44.3236 45.0904C44.3236 45.8616 44.2695 46.6452 44.1637 47.43C43.7257 47.0734 43.3084 46.7031 42.9206 46.322C39.387 42.846 37.5039 38.2248 37.6188 33.3087C37.6341 32.6585 37.6862 32.0157 37.7703 31.3808ZM40.2254 24.4954C41.1188 23.0492 42.2266 21.7161 43.5399 20.538C50.3764 14.405 61.0871 14.4053 67.9236 20.538C71.6272 23.8605 73.7301 28.3958 73.845 33.3087C73.9599 38.2245 72.0772 42.846 68.5432 46.3217C63.8604 50.9273 57.0685 52.6375 50.7199 50.842C51.1769 48.9536 51.4116 47.0212 51.4116 45.0898C51.4116 36.7821 47.2377 29.1189 40.2254 24.4954ZM88.0188 18.0837C88.0185 18.2312 87.9602 18.3697 87.854 18.4738C87.7482 18.5776 87.6077 18.6346 87.4585 18.6346C87.4585 18.6346 87.4578 18.6346 87.4572 18.6346L83.694 18.6263C83.5441 18.626 83.4033 18.568 83.2975 18.4636C83.1916 18.3588 83.134 18.22 83.1346 18.0723L83.1706 11.2878C83.1715 11.0942 83.0537 10.9191 82.8721 10.8446C82.6905 10.7698 82.4807 10.8105 82.3419 10.9478L74.8139 18.3522C74.6397 18.5235 74.6235 18.7957 74.776 18.9855C82.3697 28.4566 81.5497 42.0376 72.8684 50.5765C66.4679 56.8715 57.2116 59.1144 48.5863 56.4977C48.6018 56.4681 48.6154 56.4372 48.6309 56.4076C48.6517 56.3682 48.6737 56.3293 48.6941 56.2895C48.7721 56.1376 48.8475 55.9845 48.9223 55.8313C48.9831 55.7068 49.043 55.5817 49.1016 55.4563C49.1026 55.454 49.1036 55.4518 49.1045 55.4496C49.1764 55.2958 49.2424 55.1391 49.3111 54.9841C49.4011 54.7809 49.4897 54.5784 49.5739 54.3743C49.6357 54.2234 49.695 54.0715 49.7539 53.919C49.794 53.8155 49.8384 53.7121 49.8766 53.6086L49.9352 53.4497C49.963 53.3733 49.986 53.2956 50.0132 53.2189C50.0744 53.045 50.1326 52.8705 50.1899 52.6951C50.2605 52.4792 50.3278 52.264 50.3923 52.0468C50.4198 51.9542 50.4521 51.8631 50.4787 51.7701C57.1592 53.6487 64.3022 51.8434 69.2295 46.997C72.9525 43.3351 74.9366 38.4661 74.8155 33.2867C74.6944 28.1102 72.4793 23.3319 68.5779 19.8321C61.3746 13.3702 50.0889 13.3702 42.8853 19.8321C38.9839 23.3319 36.7688 28.1102 36.6474 33.2867C36.5263 38.4661 38.51 43.3351 42.2334 46.9973C42.7698 47.5249 43.356 48.0337 43.9792 48.5132C43.9607 48.6068 43.9419 48.7008 43.9219 48.7941C43.9024 48.8848 43.8837 48.9755 43.8626 49.066C43.826 49.2248 43.7856 49.3825 43.7445 49.5397C43.7251 49.6136 43.7076 49.6881 43.6872 49.762C43.6241 49.9916 43.5567 50.2198 43.4845 50.4465C43.4771 50.4701 43.4683 50.493 43.4606 50.5166C43.3945 50.7201 43.3249 50.9226 43.2515 51.1238C43.2239 51.1993 43.1938 51.2738 43.1654 51.3486C43.1087 51.497 43.0511 51.6453 42.9905 51.7921C42.9553 51.8771 42.9184 51.9615 42.8821 52.0459C42.8232 52.1825 42.763 52.3184 42.7005 52.4537C42.6607 52.5397 42.6199 52.6254 42.5788 52.7107C42.5144 52.8447 42.4477 52.9775 42.3797 53.11C42.3373 53.1927 42.2949 53.2752 42.2509 53.3574C42.2282 53.3997 42.2039 53.4414 42.1809 53.4834C40.8903 52.626 39.6857 51.6498 38.5942 50.5765C34.0169 46.0743 31.4958 40.0884 31.4958 33.721C31.4958 31.7132 31.7476 29.7436 32.2345 27.8462C32.2491 27.8172 32.2607 27.7863 32.2691 27.7545C32.7693 25.8438 33.5129 23.9967 34.4795 22.264C34.4882 22.2487 34.4931 22.2319 34.4999 22.2156C35.5895 20.2769 36.9578 18.4751 38.5945 16.8652C47.2755 8.32638 61.0832 7.51988 70.7124 14.9892C70.9054 15.1389 71.1825 15.1229 71.3563 14.952L78.8843 7.54757C79.0235 7.41066 79.0649 7.20466 78.9892 7.02603C78.9137 6.84805 78.737 6.73247 78.5411 6.73247C78.5402 6.73247 78.5395 6.73247 78.5385 6.73247L71.6408 6.76782C71.6399 6.76782 71.6389 6.76782 71.6376 6.76782C71.489 6.76782 71.3489 6.71114 71.2433 6.60798C71.1368 6.50418 71.0779 6.36568 71.0776 6.21794L71.0692 2.51654C71.0688 2.36912 71.1271 2.23062 71.2326 2.12618C71.3385 2.02175 71.4793 1.96443 71.6292 1.96411L87.4662 1.9552H87.4666C87.6161 1.9552 87.7569 2.01251 87.8628 2.11663C87.9686 2.22075 88.0269 2.35925 88.0269 2.50667L88.0188 18.0837Z" stroke="#3190BD" stroke-opacity="0.9" stroke-width="1.5" mask="url(#path-1-outside-1_485_1295)"/>
</svg>
