<svg width="90" height="90" viewBox="0 0 90 90" fill="none" xmlns="http://www.w3.org/2000/svg">
<mask id="path-1-outside-1_485_2419" maskUnits="userSpaceOnUse" x="0.343262" y="0" width="89" height="90" fill="black">
<rect fill="white" x="0.343262" width="89" height="90"/>
<path d="M88.5162 62.4089C88.2209 61.8891 87.568 61.7234 87.0605 62.0126L83.3666 64.1552C82.3414 62.9601 80.829 62.2009 79.1386 62.2009C77.275 62.2009 75.629 63.1231 74.6132 64.5359L70.1731 62.3912C70.287 61.9423 70.3545 61.4743 70.3545 60.99C70.3545 58.2443 68.4056 55.9605 65.8264 55.4598V43.7042C68.4056 43.2035 70.3545 40.9197 70.3545 38.174C70.3545 35.062 67.851 32.5394 64.7636 32.5394C63.0616 32.5394 61.5404 33.3082 60.5151 34.517L50.3081 28.6382C50.4895 28.0829 50.5911 27.4914 50.5911 26.8748C50.5911 24.1298 48.6429 21.8466 46.065 21.3446V16.2489C48.6429 15.7475 50.5911 13.4636 50.5911 10.7186C50.5911 10.2582 50.5304 9.81341 50.4274 9.3857L61.4217 3.00482C61.9292 2.70944 62.1039 2.05321 61.8126 1.5375C61.509 1.01975 60.8514 0.849887 60.3569 1.14321L49.5311 7.42654C48.5153 6.00971 46.8666 5.08405 45.0002 5.08405C43.1332 5.08405 41.4844 6.00971 40.4693 7.42654L29.6435 1.14321C29.1278 0.849887 28.4832 1.01975 28.1878 1.5375C27.8966 2.05321 28.0712 2.70944 28.5787 3.00482L39.5737 9.3857C39.4707 9.81409 39.41 10.2589 39.41 10.7193C39.41 13.4643 41.3582 15.7475 43.9361 16.2495V21.3452C41.3575 21.8466 39.41 24.1305 39.41 26.8755C39.41 27.4922 39.5116 28.0836 39.693 28.6388L29.4859 34.5176C28.4607 33.3089 26.9388 32.5401 25.2375 32.5401C22.1494 32.5401 19.6459 35.0627 19.6459 38.1747C19.6459 40.9203 21.5948 43.2042 24.174 43.7049V55.4605C21.5948 55.9612 19.6459 58.2451 19.6459 60.9907C19.6459 61.4757 19.7134 61.943 19.8273 62.3918L15.3722 64.5441C14.3564 63.1272 12.7077 62.2015 10.8413 62.2015C9.15434 62.2015 7.64542 62.958 6.62014 64.1484L2.9399 62.014C2.42419 61.7247 1.77548 61.8905 1.4842 62.4103C1.19292 62.924 1.36755 63.5802 1.87508 63.8756L5.55598 66.0107C5.36088 66.5844 5.24967 67.197 5.24967 67.8368C5.24967 70.5825 7.19929 72.8664 9.77852 73.3671V87.927C9.77852 88.5204 10.2567 89 10.8433 89C11.43 89 11.9082 88.5198 11.9082 87.927V73.3664C14.4854 72.8643 16.4322 70.5811 16.4322 67.8368C16.4322 67.3737 16.3709 66.9261 16.2658 66.495L20.7428 64.3326C21.7612 65.7215 23.3923 66.626 25.2375 66.626C26.9313 66.626 28.4457 65.864 29.471 64.6648L39.7039 70.5941C39.5163 71.1576 39.41 71.7592 39.41 72.3868C39.41 75.4988 41.9134 78.0214 45.0009 78.0214C48.089 78.0214 50.5918 75.4988 50.5918 72.3868C50.5918 71.7592 50.4861 71.1582 50.2978 70.5941L60.5308 64.6648C61.5561 65.864 63.0705 66.626 64.7643 66.626C66.6088 66.626 68.2406 65.7215 69.259 64.3326L73.7169 66.4861C73.6111 66.9193 73.5484 67.3702 73.5484 67.8368C73.5484 70.588 75.5062 72.8752 78.0936 73.3698V87.927C78.0936 88.5204 78.5718 89 79.1584 89C79.7451 89 80.2233 88.5198 80.2233 87.927V73.3643C82.7923 72.8554 84.7309 70.5757 84.7309 67.8375C84.7309 67.2011 84.6211 66.5919 84.4287 66.0209L88.1267 63.8762C88.6322 63.5788 88.8068 62.9226 88.5162 62.4089ZM10.8386 64.3374C12.7554 64.3374 14.3094 65.9036 14.3094 67.8355C14.3094 69.7673 12.7554 71.3335 10.8386 71.3335C8.9217 71.3335 7.36708 69.7673 7.36708 67.8355C7.36776 65.9036 8.9217 64.3374 10.8386 64.3374ZM64.7629 34.6766C66.6798 34.6766 68.2344 36.2428 68.2344 38.1747C68.2344 40.1065 66.6805 41.6728 64.7629 41.6728C62.8461 41.6728 61.2914 40.1065 61.2914 38.1747C61.2914 36.2428 62.8461 34.6766 64.7629 34.6766ZM41.5274 10.7193C41.5274 8.78746 43.0813 7.22124 44.9988 7.22124C46.9157 7.22124 48.4703 8.78746 48.4703 10.7193C48.4703 12.6512 46.9164 14.2174 44.9988 14.2174C43.082 14.2174 41.5274 12.6512 41.5274 10.7193ZM44.9988 23.3767C46.9157 23.3767 48.4703 24.9429 48.4703 26.8748C48.4703 28.8066 46.9164 30.3729 44.9988 30.3729C43.082 30.3729 41.5274 28.8066 41.5274 26.8748C41.5274 24.9429 43.082 23.3767 44.9988 23.3767ZM21.764 38.1747C21.764 36.2428 23.3179 34.6766 25.2355 34.6766C27.1523 34.6766 28.7069 36.2428 28.7069 38.1747C28.7069 40.1065 27.153 41.6728 25.2355 41.6728C23.3179 41.6728 21.764 40.1065 21.764 38.1747ZM25.2348 64.4881C23.3179 64.4881 21.7633 62.9219 21.7633 60.99C21.7633 59.0582 23.3172 57.4919 25.2348 57.4919C27.1516 57.4919 28.7063 59.0582 28.7063 60.99C28.7063 62.9219 27.1516 64.4881 25.2348 64.4881ZM44.9988 75.8842C43.082 75.8842 41.5274 74.318 41.5274 72.3861C41.5274 70.4542 43.0813 68.888 44.9988 68.888C46.9157 68.888 48.4703 70.4542 48.4703 72.3861C48.4703 74.318 46.9157 75.8842 44.9988 75.8842ZM59.1713 60.99C59.1713 61.6244 59.2798 62.2315 59.4714 62.8005L49.2446 68.7263C48.2193 67.5189 46.6988 66.7515 44.9982 66.7515C43.2976 66.7515 41.777 67.5196 40.7517 68.7263L30.5256 62.8005C30.7173 62.2315 30.8257 61.6244 30.8257 60.99C30.8257 58.4476 29.1544 56.3002 26.859 55.599C26.6741 55.5369 26.4879 55.4851 26.301 55.4482V43.7035C28.8782 43.2015 30.825 40.9183 30.825 38.174C30.825 37.5485 30.72 36.9482 30.5331 36.3861L40.732 30.5121C41.7572 31.7324 43.2873 32.5094 44.9982 32.5094C46.7097 32.5094 48.2391 31.7324 49.2643 30.5121L59.4632 36.3861C59.2763 36.9482 59.1706 37.5485 59.1706 38.174C59.1706 40.9183 61.1175 43.2015 63.6946 43.7035V55.4598C61.1188 55.9625 59.1713 58.2464 59.1713 60.99ZM64.7629 64.4881C62.8461 64.4881 61.2914 62.9219 61.2914 60.99C61.2914 59.0582 62.8454 57.4919 64.7629 57.4919C66.6798 57.4919 68.2344 59.0582 68.2344 60.99C68.2344 62.9219 66.6798 64.4881 64.7629 64.4881ZM79.138 71.3335C77.2211 71.3335 75.6665 69.7673 75.6665 67.8355C75.6665 65.9036 77.2204 64.3374 79.138 64.3374C81.0548 64.3374 82.6095 65.9036 82.6095 67.8355C82.6095 69.7673 81.0555 71.3335 79.138 71.3335Z"/>
</mask>
<path d="M88.5162 62.4089C88.2209 61.8891 87.568 61.7234 87.0605 62.0126L83.3666 64.1552C82.3414 62.9601 80.829 62.2009 79.1386 62.2009C77.275 62.2009 75.629 63.1231 74.6132 64.5359L70.1731 62.3912C70.287 61.9423 70.3545 61.4743 70.3545 60.99C70.3545 58.2443 68.4056 55.9605 65.8264 55.4598V43.7042C68.4056 43.2035 70.3545 40.9197 70.3545 38.174C70.3545 35.062 67.851 32.5394 64.7636 32.5394C63.0616 32.5394 61.5404 33.3082 60.5151 34.517L50.3081 28.6382C50.4895 28.0829 50.5911 27.4914 50.5911 26.8748C50.5911 24.1298 48.6429 21.8466 46.065 21.3446V16.2489C48.6429 15.7475 50.5911 13.4636 50.5911 10.7186C50.5911 10.2582 50.5304 9.81341 50.4274 9.3857L61.4217 3.00482C61.9292 2.70944 62.1039 2.05321 61.8126 1.5375C61.509 1.01975 60.8514 0.849887 60.3569 1.14321L49.5311 7.42654C48.5153 6.00971 46.8666 5.08405 45.0002 5.08405C43.1332 5.08405 41.4844 6.00971 40.4693 7.42654L29.6435 1.14321C29.1278 0.849887 28.4832 1.01975 28.1878 1.5375C27.8966 2.05321 28.0712 2.70944 28.5787 3.00482L39.5737 9.3857C39.4707 9.81409 39.41 10.2589 39.41 10.7193C39.41 13.4643 41.3582 15.7475 43.9361 16.2495V21.3452C41.3575 21.8466 39.41 24.1305 39.41 26.8755C39.41 27.4922 39.5116 28.0836 39.693 28.6388L29.4859 34.5176C28.4607 33.3089 26.9388 32.5401 25.2375 32.5401C22.1494 32.5401 19.6459 35.0627 19.6459 38.1747C19.6459 40.9203 21.5948 43.2042 24.174 43.7049V55.4605C21.5948 55.9612 19.6459 58.2451 19.6459 60.9907C19.6459 61.4757 19.7134 61.943 19.8273 62.3918L15.3722 64.5441C14.3564 63.1272 12.7077 62.2015 10.8413 62.2015C9.15434 62.2015 7.64542 62.958 6.62014 64.1484L2.9399 62.014C2.42419 61.7247 1.77548 61.8905 1.4842 62.4103C1.19292 62.924 1.36755 63.5802 1.87508 63.8756L5.55598 66.0107C5.36088 66.5844 5.24967 67.197 5.24967 67.8368C5.24967 70.5825 7.19929 72.8664 9.77852 73.3671V87.927C9.77852 88.5204 10.2567 89 10.8433 89C11.43 89 11.9082 88.5198 11.9082 87.927V73.3664C14.4854 72.8643 16.4322 70.5811 16.4322 67.8368C16.4322 67.3737 16.3709 66.9261 16.2658 66.495L20.7428 64.3326C21.7612 65.7215 23.3923 66.626 25.2375 66.626C26.9313 66.626 28.4457 65.864 29.471 64.6648L39.7039 70.5941C39.5163 71.1576 39.41 71.7592 39.41 72.3868C39.41 75.4988 41.9134 78.0214 45.0009 78.0214C48.089 78.0214 50.5918 75.4988 50.5918 72.3868C50.5918 71.7592 50.4861 71.1582 50.2978 70.5941L60.5308 64.6648C61.5561 65.864 63.0705 66.626 64.7643 66.626C66.6088 66.626 68.2406 65.7215 69.259 64.3326L73.7169 66.4861C73.6111 66.9193 73.5484 67.3702 73.5484 67.8368C73.5484 70.588 75.5062 72.8752 78.0936 73.3698V87.927C78.0936 88.5204 78.5718 89 79.1584 89C79.7451 89 80.2233 88.5198 80.2233 87.927V73.3643C82.7923 72.8554 84.7309 70.5757 84.7309 67.8375C84.7309 67.2011 84.6211 66.5919 84.4287 66.0209L88.1267 63.8762C88.6322 63.5788 88.8068 62.9226 88.5162 62.4089ZM10.8386 64.3374C12.7554 64.3374 14.3094 65.9036 14.3094 67.8355C14.3094 69.7673 12.7554 71.3335 10.8386 71.3335C8.9217 71.3335 7.36708 69.7673 7.36708 67.8355C7.36776 65.9036 8.9217 64.3374 10.8386 64.3374ZM64.7629 34.6766C66.6798 34.6766 68.2344 36.2428 68.2344 38.1747C68.2344 40.1065 66.6805 41.6728 64.7629 41.6728C62.8461 41.6728 61.2914 40.1065 61.2914 38.1747C61.2914 36.2428 62.8461 34.6766 64.7629 34.6766ZM41.5274 10.7193C41.5274 8.78746 43.0813 7.22124 44.9988 7.22124C46.9157 7.22124 48.4703 8.78746 48.4703 10.7193C48.4703 12.6512 46.9164 14.2174 44.9988 14.2174C43.082 14.2174 41.5274 12.6512 41.5274 10.7193ZM44.9988 23.3767C46.9157 23.3767 48.4703 24.9429 48.4703 26.8748C48.4703 28.8066 46.9164 30.3729 44.9988 30.3729C43.082 30.3729 41.5274 28.8066 41.5274 26.8748C41.5274 24.9429 43.082 23.3767 44.9988 23.3767ZM21.764 38.1747C21.764 36.2428 23.3179 34.6766 25.2355 34.6766C27.1523 34.6766 28.7069 36.2428 28.7069 38.1747C28.7069 40.1065 27.153 41.6728 25.2355 41.6728C23.3179 41.6728 21.764 40.1065 21.764 38.1747ZM25.2348 64.4881C23.3179 64.4881 21.7633 62.9219 21.7633 60.99C21.7633 59.0582 23.3172 57.4919 25.2348 57.4919C27.1516 57.4919 28.7063 59.0582 28.7063 60.99C28.7063 62.9219 27.1516 64.4881 25.2348 64.4881ZM44.9988 75.8842C43.082 75.8842 41.5274 74.318 41.5274 72.3861C41.5274 70.4542 43.0813 68.888 44.9988 68.888C46.9157 68.888 48.4703 70.4542 48.4703 72.3861C48.4703 74.318 46.9157 75.8842 44.9988 75.8842ZM59.1713 60.99C59.1713 61.6244 59.2798 62.2315 59.4714 62.8005L49.2446 68.7263C48.2193 67.5189 46.6988 66.7515 44.9982 66.7515C43.2976 66.7515 41.777 67.5196 40.7517 68.7263L30.5256 62.8005C30.7173 62.2315 30.8257 61.6244 30.8257 60.99C30.8257 58.4476 29.1544 56.3002 26.859 55.599C26.6741 55.5369 26.4879 55.4851 26.301 55.4482V43.7035C28.8782 43.2015 30.825 40.9183 30.825 38.174C30.825 37.5485 30.72 36.9482 30.5331 36.3861L40.732 30.5121C41.7572 31.7324 43.2873 32.5094 44.9982 32.5094C46.7097 32.5094 48.2391 31.7324 49.2643 30.5121L59.4632 36.3861C59.2763 36.9482 59.1706 37.5485 59.1706 38.174C59.1706 40.9183 61.1175 43.2015 63.6946 43.7035V55.4598C61.1188 55.9625 59.1713 58.2464 59.1713 60.99ZM64.7629 64.4881C62.8461 64.4881 61.2914 62.9219 61.2914 60.99C61.2914 59.0582 62.8454 57.4919 64.7629 57.4919C66.6798 57.4919 68.2344 59.0582 68.2344 60.99C68.2344 62.9219 66.6798 64.4881 64.7629 64.4881ZM79.138 71.3335C77.2211 71.3335 75.6665 69.7673 75.6665 67.8355C75.6665 65.9036 77.2204 64.3374 79.138 64.3374C81.0548 64.3374 82.6095 65.9036 82.6095 67.8355C82.6095 69.7673 81.0555 71.3335 79.138 71.3335Z" fill="#3190BD" fill-opacity="0.9"/>
<path d="M88.5162 62.4089C88.2209 61.8891 87.568 61.7234 87.0605 62.0126L83.3666 64.1552C82.3414 62.9601 80.829 62.2009 79.1386 62.2009C77.275 62.2009 75.629 63.1231 74.6132 64.5359L70.1731 62.3912C70.287 61.9423 70.3545 61.4743 70.3545 60.99C70.3545 58.2443 68.4056 55.9605 65.8264 55.4598V43.7042C68.4056 43.2035 70.3545 40.9197 70.3545 38.174C70.3545 35.062 67.851 32.5394 64.7636 32.5394C63.0616 32.5394 61.5404 33.3082 60.5151 34.517L50.3081 28.6382C50.4895 28.0829 50.5911 27.4914 50.5911 26.8748C50.5911 24.1298 48.6429 21.8466 46.065 21.3446V16.2489C48.6429 15.7475 50.5911 13.4636 50.5911 10.7186C50.5911 10.2582 50.5304 9.81341 50.4274 9.3857L61.4217 3.00482C61.9292 2.70944 62.1039 2.05321 61.8126 1.5375C61.509 1.01975 60.8514 0.849887 60.3569 1.14321L49.5311 7.42654C48.5153 6.00971 46.8666 5.08405 45.0002 5.08405C43.1332 5.08405 41.4844 6.00971 40.4693 7.42654L29.6435 1.14321C29.1278 0.849887 28.4832 1.01975 28.1878 1.5375C27.8966 2.05321 28.0712 2.70944 28.5787 3.00482L39.5737 9.3857C39.4707 9.81409 39.41 10.2589 39.41 10.7193C39.41 13.4643 41.3582 15.7475 43.9361 16.2495V21.3452C41.3575 21.8466 39.41 24.1305 39.41 26.8755C39.41 27.4922 39.5116 28.0836 39.693 28.6388L29.4859 34.5176C28.4607 33.3089 26.9388 32.5401 25.2375 32.5401C22.1494 32.5401 19.6459 35.0627 19.6459 38.1747C19.6459 40.9203 21.5948 43.2042 24.174 43.7049V55.4605C21.5948 55.9612 19.6459 58.2451 19.6459 60.9907C19.6459 61.4757 19.7134 61.943 19.8273 62.3918L15.3722 64.5441C14.3564 63.1272 12.7077 62.2015 10.8413 62.2015C9.15434 62.2015 7.64542 62.958 6.62014 64.1484L2.9399 62.014C2.42419 61.7247 1.77548 61.8905 1.4842 62.4103C1.19292 62.924 1.36755 63.5802 1.87508 63.8756L5.55598 66.0107C5.36088 66.5844 5.24967 67.197 5.24967 67.8368C5.24967 70.5825 7.19929 72.8664 9.77852 73.3671V87.927C9.77852 88.5204 10.2567 89 10.8433 89C11.43 89 11.9082 88.5198 11.9082 87.927V73.3664C14.4854 72.8643 16.4322 70.5811 16.4322 67.8368C16.4322 67.3737 16.3709 66.9261 16.2658 66.495L20.7428 64.3326C21.7612 65.7215 23.3923 66.626 25.2375 66.626C26.9313 66.626 28.4457 65.864 29.471 64.6648L39.7039 70.5941C39.5163 71.1576 39.41 71.7592 39.41 72.3868C39.41 75.4988 41.9134 78.0214 45.0009 78.0214C48.089 78.0214 50.5918 75.4988 50.5918 72.3868C50.5918 71.7592 50.4861 71.1582 50.2978 70.5941L60.5308 64.6648C61.5561 65.864 63.0705 66.626 64.7643 66.626C66.6088 66.626 68.2406 65.7215 69.259 64.3326L73.7169 66.4861C73.6111 66.9193 73.5484 67.3702 73.5484 67.8368C73.5484 70.588 75.5062 72.8752 78.0936 73.3698V87.927C78.0936 88.5204 78.5718 89 79.1584 89C79.7451 89 80.2233 88.5198 80.2233 87.927V73.3643C82.7923 72.8554 84.7309 70.5757 84.7309 67.8375C84.7309 67.2011 84.6211 66.5919 84.4287 66.0209L88.1267 63.8762C88.6322 63.5788 88.8068 62.9226 88.5162 62.4089ZM10.8386 64.3374C12.7554 64.3374 14.3094 65.9036 14.3094 67.8355C14.3094 69.7673 12.7554 71.3335 10.8386 71.3335C8.9217 71.3335 7.36708 69.7673 7.36708 67.8355C7.36776 65.9036 8.9217 64.3374 10.8386 64.3374ZM64.7629 34.6766C66.6798 34.6766 68.2344 36.2428 68.2344 38.1747C68.2344 40.1065 66.6805 41.6728 64.7629 41.6728C62.8461 41.6728 61.2914 40.1065 61.2914 38.1747C61.2914 36.2428 62.8461 34.6766 64.7629 34.6766ZM41.5274 10.7193C41.5274 8.78746 43.0813 7.22124 44.9988 7.22124C46.9157 7.22124 48.4703 8.78746 48.4703 10.7193C48.4703 12.6512 46.9164 14.2174 44.9988 14.2174C43.082 14.2174 41.5274 12.6512 41.5274 10.7193ZM44.9988 23.3767C46.9157 23.3767 48.4703 24.9429 48.4703 26.8748C48.4703 28.8066 46.9164 30.3729 44.9988 30.3729C43.082 30.3729 41.5274 28.8066 41.5274 26.8748C41.5274 24.9429 43.082 23.3767 44.9988 23.3767ZM21.764 38.1747C21.764 36.2428 23.3179 34.6766 25.2355 34.6766C27.1523 34.6766 28.7069 36.2428 28.7069 38.1747C28.7069 40.1065 27.153 41.6728 25.2355 41.6728C23.3179 41.6728 21.764 40.1065 21.764 38.1747ZM25.2348 64.4881C23.3179 64.4881 21.7633 62.9219 21.7633 60.99C21.7633 59.0582 23.3172 57.4919 25.2348 57.4919C27.1516 57.4919 28.7063 59.0582 28.7063 60.99C28.7063 62.9219 27.1516 64.4881 25.2348 64.4881ZM44.9988 75.8842C43.082 75.8842 41.5274 74.318 41.5274 72.3861C41.5274 70.4542 43.0813 68.888 44.9988 68.888C46.9157 68.888 48.4703 70.4542 48.4703 72.3861C48.4703 74.318 46.9157 75.8842 44.9988 75.8842ZM59.1713 60.99C59.1713 61.6244 59.2798 62.2315 59.4714 62.8005L49.2446 68.7263C48.2193 67.5189 46.6988 66.7515 44.9982 66.7515C43.2976 66.7515 41.777 67.5196 40.7517 68.7263L30.5256 62.8005C30.7173 62.2315 30.8257 61.6244 30.8257 60.99C30.8257 58.4476 29.1544 56.3002 26.859 55.599C26.6741 55.5369 26.4879 55.4851 26.301 55.4482V43.7035C28.8782 43.2015 30.825 40.9183 30.825 38.174C30.825 37.5485 30.72 36.9482 30.5331 36.3861L40.732 30.5121C41.7572 31.7324 43.2873 32.5094 44.9982 32.5094C46.7097 32.5094 48.2391 31.7324 49.2643 30.5121L59.4632 36.3861C59.2763 36.9482 59.1706 37.5485 59.1706 38.174C59.1706 40.9183 61.1175 43.2015 63.6946 43.7035V55.4598C61.1188 55.9625 59.1713 58.2464 59.1713 60.99ZM64.7629 64.4881C62.8461 64.4881 61.2914 62.9219 61.2914 60.99C61.2914 59.0582 62.8454 57.4919 64.7629 57.4919C66.6798 57.4919 68.2344 59.0582 68.2344 60.99C68.2344 62.9219 66.6798 64.4881 64.7629 64.4881ZM79.138 71.3335C77.2211 71.3335 75.6665 69.7673 75.6665 67.8355C75.6665 65.9036 77.2204 64.3374 79.138 64.3374C81.0548 64.3374 82.6095 65.9036 82.6095 67.8355C82.6095 69.7673 81.0555 71.3335 79.138 71.3335Z" stroke="#3190BD" stroke-opacity="0.9" mask="url(#path-1-outside-1_485_2419)"/>
</svg>
