<svg width="78" height="88" viewBox="0 0 78 88" fill="none" xmlns="http://www.w3.org/2000/svg">
<path d="M39.0102 69.8292C38.7683 69.8292 38.5242 69.7666 38.3082 69.6395L17.1087 57.4265C16.6746 57.1786 16.4067 56.7151 16.4067 56.2129V31.7826C16.4067 31.2825 16.6746 30.8191 17.1087 30.5691L38.3082 18.3539C38.7424 18.1039 39.278 18.1039 39.7122 18.3539L60.9117 30.5691C61.3458 30.8191 61.6137 31.2825 61.6137 31.7826V56.2129C61.6137 56.713 61.3458 57.1764 60.9117 57.4265L39.7122 69.6395C39.4962 69.7666 39.2543 69.8292 39.0102 69.8292ZM19.2146 55.4068L39.0102 66.8093L58.8058 55.4068V32.5952L39.0102 21.1884L19.2146 32.5952V55.4068Z" fill="#3190BD" fill-opacity="0.9"/>
<path d="M39.0099 40.7561C38.2345 40.7561 37.606 40.1288 37.606 39.355V10.715C37.606 9.9412 38.2345 9.31396 39.0099 9.31396C39.7853 9.31396 40.4138 9.9412 40.4138 10.715V39.355C40.4138 40.1288 39.7853 40.7561 39.0099 40.7561Z" fill="#3190BD" fill-opacity="0.9"/>
<path d="M39.0099 78.686C38.2345 78.686 37.606 78.0588 37.606 77.285V48.6709C37.606 47.897 38.2345 47.2698 39.0099 47.2698C39.7853 47.2698 40.4138 47.897 40.4138 48.6709V77.285C40.4138 78.0588 39.7853 78.686 39.0099 78.686Z" fill="#3190BD" fill-opacity="0.9"/>
<path d="M39.01 12.116C35.6643 12.116 32.9407 9.39791 32.9407 6.05906C32.9407 2.71805 35.6643 0 39.01 0C42.3579 0 45.0815 2.71805 45.0815 6.05906C45.0815 9.39791 42.3579 12.116 39.01 12.116ZM39.01 2.80211C37.213 2.80211 35.7486 4.26354 35.7486 6.05906C35.7486 7.85458 37.213 9.31387 39.01 9.31387C40.8092 9.31387 42.2736 7.85243 42.2736 6.05906C42.2736 4.26354 40.8092 2.80211 39.01 2.80211Z" fill="#3190BD" fill-opacity="0.9"/>
<path d="M39.01 50.07C35.6643 50.07 32.9407 47.3498 32.9407 44.0109C32.9407 40.672 35.6643 37.954 39.01 37.954C42.3579 37.954 45.0815 40.672 45.0815 44.0109C45.0815 47.3498 42.3579 50.07 39.01 50.07ZM39.01 40.7561C37.213 40.7561 35.7486 42.2175 35.7486 44.0109C35.7486 45.8064 37.213 47.2657 39.01 47.2657C40.8092 47.2657 42.2736 45.8064 42.2736 44.0109C42.2736 42.2175 40.8092 40.7561 39.01 40.7561Z" fill="#3190BD" fill-opacity="0.9"/>
<path d="M39.01 88C35.6643 88 32.9407 85.2819 32.9407 81.9409C32.9407 78.5999 35.6643 75.8818 39.01 75.8818C42.3579 75.8818 45.0815 78.6021 45.0815 81.9409C45.0815 85.2819 42.3579 88 39.01 88ZM39.01 78.6861C37.213 78.6861 35.7486 80.1475 35.7486 81.9431C35.7486 83.7386 37.213 85.1979 39.01 85.1979C40.8092 85.1979 42.2736 83.7386 42.2736 81.9431C42.2736 80.1475 40.8092 78.6861 39.01 78.6861Z" fill="#3190BD" fill-opacity="0.9"/>
<path d="M34.9687 43.084C34.7311 43.084 34.4892 43.0236 34.2667 42.8965L9.4148 28.5754C8.74306 28.1874 8.51413 27.3316 8.90076 26.6613C9.28954 25.9909 10.147 25.7625 10.8188 26.1483L35.6707 40.4694C36.3424 40.8574 36.5713 41.7131 36.1847 42.3834C35.9255 42.8339 35.4525 43.084 34.9687 43.084Z" fill="#3190BD" fill-opacity="0.9"/>
<path d="M67.8839 62.0501C67.6463 62.0501 67.4043 61.9898 67.1819 61.8604L42.3494 47.5523C41.6798 47.1665 41.4487 46.3107 41.8353 45.6382C42.2241 44.9679 43.0816 44.7394 43.7533 45.1252L68.5858 59.4334C69.2576 59.8192 69.4865 60.6749 69.0999 61.3474C68.8407 61.7979 68.3699 62.0501 67.8839 62.0501Z" fill="#3190BD" fill-opacity="0.9"/>
<path d="M6.06487 31.0971C5.01299 31.0971 3.97407 30.8212 3.03883 30.2823C1.63489 29.474 0.63054 28.1678 0.209358 26.605C-0.209665 25.0423 0.00414596 23.4106 0.816272 22.0074C2.4902 19.1169 6.21606 18.1211 9.10817 19.7894C12.0068 21.4599 13.0047 25.1717 11.3307 28.0643C10.5186 29.4654 9.2097 30.4699 7.64377 30.888C7.12323 31.026 6.59405 31.0971 6.06487 31.0971ZM6.08214 21.7811C4.95251 21.7811 3.8531 22.3652 3.25049 23.4085C2.81419 24.1607 2.69971 25.038 2.92434 25.8787C3.14897 26.7193 3.68897 27.4198 4.44494 27.8552C5.20091 28.2885 6.07566 28.4049 6.92018 28.1807C7.76255 27.9565 8.46454 27.4177 8.90084 26.6633C9.79936 25.107 9.26368 23.1132 7.70639 22.2165C7.19449 21.9212 6.63508 21.7811 6.08214 21.7811Z" fill="#3190BD" fill-opacity="0.9"/>
<path d="M71.9162 69.036C70.8643 69.036 69.8254 68.76 68.8902 68.2212C67.4862 67.4129 66.4819 66.1066 66.0629 64.5439C65.6439 62.979 65.8577 61.3495 66.6698 59.9462C67.4819 58.5452 68.7887 57.5429 70.3546 57.1225C71.9227 56.7087 73.5577 56.9199 74.9617 57.7282C76.3656 58.5366 77.37 59.8428 77.789 61.4055C78.208 62.9704 77.9942 64.5999 77.1821 66.0031C76.3721 67.4021 75.0632 68.4065 73.4973 68.8269C72.9746 68.967 72.4432 69.036 71.9162 69.036ZM70.2941 65.7962C71.0479 66.2273 71.9292 66.3459 72.7694 66.1195C73.6117 65.8954 74.3137 65.3565 74.75 64.6021C75.1863 63.8477 75.3008 62.9725 75.0762 62.134C74.8516 61.2934 74.3116 60.5907 73.5556 60.1553C72.8018 59.7221 71.9227 59.6014 71.0803 59.832C70.238 60.0583 69.536 60.5972 69.0997 61.3495C68.6634 62.1039 68.5489 62.979 68.7735 63.8197C69.0003 64.6582 69.5403 65.3608 70.2941 65.7962Z" fill="#3190BD" fill-opacity="0.9"/>
<path d="M10.1168 62.0631C9.63078 62.0631 9.15994 61.8109 8.90076 61.3625C8.51413 60.69 8.74306 59.8343 9.4148 59.4485L34.2667 45.1274C34.9406 44.7394 35.7959 44.9701 36.1847 45.6404C36.5713 46.3129 36.3424 47.1687 35.6707 47.5545L10.8188 61.8756C10.5984 62.0027 10.3565 62.0631 10.1168 62.0631Z" fill="#3190BD" fill-opacity="0.9"/>
<path d="M43.0533 43.084C42.5673 43.084 42.0964 42.8339 41.8351 42.3834C41.4484 41.7131 41.6774 40.8574 42.3491 40.4694L67.1816 26.1612C67.8555 25.7754 68.713 26.0039 69.0996 26.6742C69.4862 27.3446 69.2573 28.2003 68.5856 28.5883L43.7531 42.8965C43.5328 43.0236 43.2909 43.084 43.0533 43.084Z" fill="#3190BD" fill-opacity="0.9"/>
<path d="M6.08651 69.0489C5.55949 69.0489 5.02817 68.9799 4.50547 68.8398C2.93953 68.4217 1.63063 67.4194 0.818501 66.0162C0.00853475 64.6151 -0.207469 62.9834 0.211554 61.4185C0.630576 59.8557 1.63709 58.5495 3.04103 57.7412C4.44497 56.9286 6.08003 56.713 7.64596 57.1355C9.2119 57.5537 10.5208 58.556 11.3329 59.9592C13.0047 62.8519 12.009 66.5636 9.1104 68.2341C8.17516 68.773 7.13839 69.0489 6.08651 69.0489ZM6.07138 59.7307C5.50549 59.7307 4.94825 59.8795 4.44499 60.1683C3.68902 60.6037 3.14902 61.3064 2.92439 62.1471C2.6976 62.9877 2.81424 63.8628 3.25054 64.6172C3.68684 65.3717 4.38883 65.9105 5.23119 66.1347C6.07356 66.3589 6.95263 66.2425 7.70644 65.8114C9.26374 64.9125 9.79941 62.9165 8.90089 61.3646C8.46459 60.6102 7.7626 60.0713 6.92024 59.8471C6.63945 59.7674 6.35433 59.7307 6.07138 59.7307Z" fill="#3190BD" fill-opacity="0.9"/>
<path d="M71.9357 31.108C71.4086 31.108 70.8773 31.039 70.3546 30.8989C68.7887 30.4808 67.4798 29.4785 66.6698 28.0774C65.8577 26.6763 65.6439 25.0425 66.0629 23.4797C66.4819 21.9148 67.4862 20.6086 68.8923 19.8003C70.2963 18.992 71.9335 18.7743 73.4973 19.1946C75.0654 19.6128 76.3743 20.6151 77.1843 22.0162C77.9942 23.4172 78.2102 25.0489 77.7912 26.6117C77.3721 28.1744 76.3678 29.4806 74.9639 30.2889C74.0265 30.8321 72.9875 31.108 71.9357 31.108ZM71.9205 21.7898C71.3546 21.7898 70.7974 21.9386 70.2941 22.2274C69.5403 22.6628 69.0003 23.3633 68.7757 24.204C68.5511 25.0446 68.6656 25.9219 69.1019 26.6763C69.5382 27.4286 70.2401 27.9675 71.0825 28.1916C71.9248 28.418 72.8018 28.2994 73.5578 27.8662C74.3137 27.4308 74.8537 26.7302 75.0783 25.8896C75.3051 25.049 75.1885 24.1716 74.7522 23.4194C74.3159 22.665 73.6139 22.1261 72.7716 21.9019C72.4886 21.8265 72.2056 21.7898 71.9205 21.7898Z" fill="#3190BD" fill-opacity="0.9"/>
</svg>
