<svg width="122" height="121" viewBox="0 0 122 121" fill="none" xmlns="http://www.w3.org/2000/svg">
<path d="M97.1325 97.8222V83.4011H105.671C109.467 83.4011 112.503 80.365 112.503 76.5694C112.503 70.499 112.503 25.5269 112.503 19.0749C112.503 15.2793 109.467 12.2431 105.671 12.2431H82.5215C81.5721 9.58676 79.1056 7.5 76.0695 7.5H47.0374C44.0013 7.5 41.345 9.58676 40.5855 12.2431H17.2459C13.4502 12.2431 10.416 15.2793 10.416 19.0749C10.416 25.5269 10.416 70.499 10.416 76.5694C10.416 80.3631 13.4521 83.4011 17.2459 83.4011H25.7846V97.8222C22.3687 98.3919 19.9023 101.238 19.9023 104.842C19.9023 108.827 23.1282 112.053 27.1137 112.053C30.7176 112.053 33.5657 109.397 34.1335 106.171H54.4369C55.0065 109.585 57.8528 112.053 61.4585 112.053C65.0624 112.053 67.9105 109.397 68.4783 106.171H88.7817C89.3513 109.585 92.1976 112.053 95.8015 112.053C99.787 112.053 103.011 108.827 103.011 104.842C103.015 101.428 100.358 98.3919 97.1325 97.8222ZM94.666 97.8222C91.6299 98.3919 89.3532 100.67 88.7836 103.705H68.4801C67.9105 100.67 65.6339 98.3919 62.5978 97.8222V88.1461H75.8796C78.9158 88.1461 81.5721 86.0594 82.3316 83.403H94.4761V97.8241L94.666 97.8222ZM12.8825 46.0221H40.2076V49.8158H12.8825V46.0221ZM40.2076 59.3039H18.9548C18.3851 59.3039 18.0054 58.9241 18.0054 58.3545C18.0054 57.7849 18.3851 57.4051 18.9548 57.4051H40.2076V59.3039ZM40.2076 67.6509H18.9548C18.3851 67.6509 18.0054 67.273 18.0054 66.7034C18.0054 66.1338 18.3851 65.754 18.9548 65.754H40.2076V67.6509ZM40.2076 76.0016H18.9548C18.3851 76.0016 18.0054 75.6218 18.0054 75.0522C18.0054 74.4826 18.3851 74.1047 18.9548 74.1047H40.2076V76.0016ZM42.4842 43.174H80.4348C80.4348 48.1088 80.4348 76.951 80.4348 81.5042C80.4348 83.9726 78.348 85.8695 76.0714 85.8695H47.0393C44.5728 85.8695 42.676 83.7827 42.676 81.5042C42.4842 76.951 42.4842 48.1088 42.4842 43.174ZM110.036 49.8158H82.9013V46.0221H110.036V49.8158ZM82.9013 74.1047H103.964C104.534 74.1047 104.912 74.4826 104.912 75.0522C104.912 75.6218 104.532 76.0016 103.964 76.0016H82.9013V74.1047ZM82.9013 65.7559H103.964C104.534 65.7559 104.912 66.1357 104.912 66.7053C104.912 67.2749 104.532 67.6528 103.964 67.6528H82.9013V65.7559ZM82.9013 57.4051H103.964C104.534 57.4051 104.912 57.7849 104.912 58.3545C104.912 58.9241 104.532 59.3039 103.964 59.3039H82.9013V57.4051ZM110.036 76.7611C110.036 79.2258 107.95 81.1245 105.671 81.1245H82.9013V78.2764H103.964C105.861 78.2764 107.19 76.7593 107.19 75.0504C107.19 73.3434 105.671 71.8244 103.964 71.8244H82.9013V70.1173H103.964C105.861 70.1173 107.19 68.5984 107.19 66.8914C107.19 64.9927 105.671 63.6654 103.964 63.6654H82.9013V61.5805H103.964C105.861 61.5805 107.19 60.0615 107.19 58.3545C107.19 56.6475 105.671 55.1285 103.964 55.1285H82.9013V52.2823H110.036V76.7611ZM110.036 19.2647V43.7416H82.9013V14.7115H105.671C107.948 14.7115 110.036 16.8001 110.036 19.2647ZM47.0374 9.96835H76.0695C78.536 9.96835 80.4329 12.0551 80.4329 14.3317V40.7074H42.4823V14.5198C42.4842 12.0551 44.5709 9.96835 47.0374 9.96835ZM17.2459 14.7115H40.0158V43.5537H12.8806V19.2647C12.8825 16.8001 14.7794 14.7115 17.2459 14.7115ZM12.8825 76.7611V52.2823H40.2076V55.1285H18.9548C17.0579 55.1285 15.7288 56.6475 15.7288 58.3545C15.7288 60.2514 17.2459 61.5805 18.9548 61.5805H40.2076V63.4793H18.9548C17.0579 63.4793 15.7288 64.9964 15.7288 66.7053C15.7288 68.6022 17.2459 69.9312 18.9548 69.9312H40.2076V71.6383H18.9548C17.0579 71.6383 15.7288 73.1573 15.7288 74.8643C15.7288 76.763 17.2459 78.0903 18.9548 78.0903H40.2076V80.9365H17.2459C14.7794 81.1245 12.8825 79.2276 12.8825 76.7611ZM40.3956 83.591C41.345 86.2474 43.8114 88.3341 46.8476 88.3341H60.1294V98.0121C57.0933 98.5817 54.8167 100.858 54.2471 103.894H34.1335C33.5638 100.858 31.2872 98.5817 28.2511 98.0121V83.5891H40.3956V83.591ZM27.1137 109.587C24.4574 109.587 22.3706 107.5 22.3706 104.844C22.3706 102.187 24.4574 100.101 27.1137 100.101C29.7701 100.101 31.8568 102.187 31.8568 104.844C31.8568 107.5 29.7701 109.587 27.1137 109.587ZM61.4585 109.587C58.8022 109.587 56.7154 107.5 56.7154 104.844C56.7154 102.187 58.8022 100.101 61.4585 100.101C64.1149 100.101 66.2016 102.187 66.2016 104.844C66.2035 107.5 64.1149 109.587 61.4585 109.587ZM95.8033 109.587C93.147 109.587 91.0602 107.5 91.0602 104.844C91.0602 102.187 93.147 100.101 95.8033 100.101C98.4597 100.101 100.546 102.187 100.546 104.844C100.548 107.5 98.4597 109.587 95.8033 109.587Z" fill="#3190BD" fill-opacity="0.9"/>
<path d="M57.6625 27.9953C56.3334 29.1327 55.5758 30.6517 55.5758 32.5485C55.5758 35.7745 58.2322 38.4309 61.4582 38.4309C64.6841 38.4309 67.3405 35.7745 67.3405 32.5485C67.3405 30.8416 66.581 29.1346 65.2538 27.9953C67.9101 26.6662 69.6171 23.8199 69.6171 20.5958C69.6171 16.0407 65.8215 12.2469 61.2683 12.2469C56.715 12.2469 52.9194 16.0426 52.9194 20.5958C53.1093 23.8199 55.0062 26.6662 57.6625 27.9953ZM65.0639 32.5485C65.0639 34.4473 63.5468 36.1543 61.46 36.1543C59.3733 36.1543 57.8543 34.6353 57.8543 32.5485C57.8543 30.4618 59.3733 28.9447 61.46 28.9447C63.3569 28.9447 65.0639 30.6517 65.0639 32.5485ZM61.4582 14.7116C64.6841 14.7116 67.3405 17.3679 67.3405 20.5939C67.3405 23.8199 64.6841 26.4763 61.4582 26.4763C58.2322 26.4763 55.5758 23.8199 55.5758 20.5939C55.5758 17.3679 58.2322 14.7116 61.4582 14.7116Z" fill="#3190BD" fill-opacity="0.9"/>
<path d="M61.4588 24.1998C63.3556 24.1998 65.0626 22.6808 65.0626 20.594C65.0626 18.5073 63.5455 16.9883 61.4588 16.9883C59.372 16.9883 57.853 18.5073 57.853 20.594C57.853 22.6826 59.5619 24.1998 61.4588 24.1998ZM61.4588 19.4566C62.0284 19.4566 62.5961 20.0263 62.5961 20.594C62.5961 21.1636 62.0265 21.7314 61.4588 21.7314C60.8891 21.7314 60.3195 21.1618 60.3195 20.594C60.3195 20.0263 60.891 19.4566 61.4588 19.4566Z" fill="#3190BD" fill-opacity="0.9"/>
<path d="M49.6942 63.2876H73.4135C75.3104 63.2876 77.0174 61.7686 77.0174 59.6819C77.0174 57.597 75.5003 56.078 73.4135 56.078H49.6942C47.7973 56.078 46.0903 57.597 46.0903 59.6819C46.0903 61.7686 47.6075 63.2876 49.6942 63.2876ZM49.6942 58.5445H73.4135C73.9832 58.5445 74.5509 59.1141 74.5509 59.6819C74.5509 60.2496 73.9813 60.8211 73.4135 60.8211H49.6942C49.1246 60.8211 48.5568 60.2496 48.5568 59.6819C48.367 59.1141 48.9366 58.5445 49.6942 58.5445Z" fill="#3190BD" fill-opacity="0.9"/>
<path d="M49.6942 72.7756H73.4135C75.3104 72.7756 77.0174 71.2566 77.0174 69.1698C77.0174 67.273 75.5003 65.5641 73.4135 65.5641H49.6942C47.7973 65.5641 46.0903 67.0831 46.0903 69.1698C46.0903 71.2566 47.6075 72.7756 49.6942 72.7756ZM49.6942 68.0325H73.4135C73.9832 68.0325 74.5509 68.6021 74.5509 69.1698C74.5509 69.7395 73.9813 70.3072 73.4135 70.3072H49.6942C49.1246 70.3072 48.5568 69.7376 48.5568 69.1698C48.367 68.6002 48.9366 68.0325 49.6942 68.0325Z" fill="#3190BD" fill-opacity="0.9"/>
<path d="M49.6942 82.2639H73.4135C75.3104 82.2639 77.0174 80.7449 77.0174 78.6582C77.0174 76.7613 75.5003 75.0524 73.4135 75.0524H49.6942C47.7973 75.0524 46.0903 76.5714 46.0903 78.6582C46.0903 80.7449 47.6075 82.2639 49.6942 82.2639ZM49.6942 77.5189H73.4135C73.9832 77.5189 74.5509 78.0885 74.5509 78.6563C74.5509 79.2259 73.9813 79.7936 73.4135 79.7936H49.6942C49.1246 79.7936 48.5568 79.224 48.5568 78.6563C48.367 78.0885 48.9366 77.5189 49.6942 77.5189Z" fill="#3190BD" fill-opacity="0.9"/>
<path d="M89.7297 31.4094C88.5923 32.3588 88.0227 33.8778 88.0227 35.395C88.0227 38.4292 90.4892 40.7077 93.3354 40.7077C96.1817 40.7077 98.6482 38.2393 98.6482 35.395C98.6482 33.876 97.8887 32.3588 96.9393 31.4094C99.2159 30.0822 100.735 27.6138 100.735 24.9575C100.735 20.7821 97.319 17.558 93.3354 17.558C89.3518 17.558 85.9341 20.9739 85.9341 24.9575C85.936 27.8037 87.4531 30.272 89.7297 31.4094ZM96.3716 35.395C96.3716 37.102 95.0443 38.4292 93.3354 38.4292C91.6266 38.4292 90.2993 37.102 90.2993 35.395C90.2993 33.688 91.6266 32.3588 93.3354 32.3588C95.0443 32.3588 96.3716 33.8778 96.3716 35.395ZM93.3354 20.0263C96.1817 20.0263 98.4583 22.303 98.4583 25.1492C98.4583 27.9973 96.1817 30.2739 93.3354 30.2739C90.4892 30.2739 88.2107 27.9973 88.2107 25.1492C88.4025 22.3011 90.6791 20.0263 93.3354 20.0263Z" fill="#3190BD" fill-opacity="0.9"/>
<path d="M93.3368 28.373C95.2337 28.373 96.5628 26.8559 96.5628 25.147C96.5628 23.44 95.2356 21.733 93.3368 21.733C91.44 21.733 90.1108 23.252 90.1108 24.959C90.1108 26.8559 91.6298 28.373 93.3368 28.373ZM93.3368 24.1995C93.9065 24.1995 94.2843 24.5774 94.2843 25.147C94.2843 25.7185 93.9046 26.0964 93.3368 26.0964C92.7672 26.0964 92.3875 25.7185 92.3875 25.147C92.3875 24.5774 92.9571 24.1995 93.3368 24.1995Z" fill="#3190BD" fill-opacity="0.9"/>
<path d="M25.7877 31.4094C24.6485 32.3588 24.0788 33.8778 24.0788 35.395C24.0788 38.4292 26.5453 40.7077 29.3916 40.7077C32.4277 40.7077 34.7043 38.2393 34.7043 35.395C34.7043 33.876 33.9448 32.3588 32.9973 31.4094C35.2739 30.0822 36.7929 27.6138 36.7929 24.9575C36.7929 20.7821 33.3771 17.558 29.3916 17.558C25.2162 17.558 21.9902 20.9739 21.9902 24.9575C21.9921 27.8037 23.5092 30.272 25.7877 31.4094ZM32.4277 35.395C32.4277 37.102 31.0986 38.4292 29.3916 38.4292C27.6846 38.4292 26.3555 37.102 26.3555 35.395C26.3555 33.688 27.6846 32.3588 29.3916 32.3588C31.0986 32.3588 32.4277 33.8778 32.4277 35.395ZM29.3916 20.0263C32.2378 20.0263 34.5145 22.303 34.5145 25.1492C34.5145 27.9973 32.2378 30.2739 29.3916 30.2739C26.5453 30.2739 24.2687 27.9973 24.2687 25.1492C24.2687 22.3011 26.5453 20.0263 29.3916 20.0263Z" fill="#3190BD" fill-opacity="0.9"/>
<path d="M29.3901 28.373C31.2869 28.373 32.6161 26.8559 32.6161 25.147C32.6161 23.44 31.0971 21.733 29.3901 21.733C27.4932 21.733 26.1641 23.252 26.1641 24.959C26.1641 26.8559 27.4932 28.373 29.3901 28.373ZM29.3901 24.1995C29.9597 24.1995 30.3394 24.5774 30.3394 25.147C30.3394 25.7185 29.9597 26.0964 29.3901 26.0964C28.8204 26.0964 28.4407 25.7185 28.4407 25.147C28.4407 24.5774 28.8204 24.1995 29.3901 24.1995Z" fill="#3190BD" fill-opacity="0.9"/>
<path d="M110.036 88.3344C107.379 88.3344 105.292 90.4211 105.292 93.0775C105.292 95.7339 107.379 97.8206 110.036 97.8206C112.692 97.8206 114.779 95.7339 114.779 93.0775C114.779 90.423 112.692 88.3344 110.036 88.3344ZM110.036 95.3579C108.708 95.3579 107.567 94.2167 107.567 92.8895C107.567 91.5604 108.706 90.4211 110.036 90.4211C111.365 90.4211 112.502 91.5585 112.502 92.8895C112.502 94.4085 111.363 95.3579 110.036 95.3579Z" fill="#3190BD" fill-opacity="0.9"/>
<path d="M12.8824 88.3344C9.65636 88.3344 7 90.9907 7 94.2167C7 97.4427 9.65636 100.099 12.8824 100.099C16.1084 100.099 18.7647 97.4427 18.7647 94.2167C18.7647 90.9926 16.1084 88.3344 12.8824 88.3344ZM12.8824 97.8225C10.9855 97.8225 9.27662 96.3035 9.27662 94.2167C9.27662 92.3198 10.7956 90.6129 12.8824 90.6129C14.9691 90.6129 16.4881 92.13 16.4881 94.2167C16.4881 96.1155 14.7792 97.8225 12.8824 97.8225Z" fill="#3190BD" fill-opacity="0.9"/>
<path d="M110.793 101.428C111.735 101.428 112.5 102.193 112.5 103.135C112.5 104.078 111.735 104.842 110.793 104.842C109.849 104.842 109.084 104.078 109.084 103.135C109.086 102.193 109.849 101.428 110.793 101.428Z" fill="#3190BD" fill-opacity="0.9"/>
<path d="M85.747 89.4753C86.6907 89.4753 87.4559 90.2386 87.4559 91.1823C87.4559 92.1242 86.6907 92.8893 85.747 92.8893C84.8052 92.8893 84.04 92.1242 84.04 91.1823C84.04 90.2386 84.8033 89.4753 85.747 89.4753Z" fill="#3190BD" fill-opacity="0.9"/>
<path d="M71.517 110.916C72.4588 110.916 73.2239 111.679 73.2239 112.623C73.2239 113.567 72.4588 114.33 71.517 114.33C70.5732 114.33 69.8081 113.567 69.8081 112.623C69.8081 111.679 70.5732 110.916 71.517 110.916Z" fill="#3190BD" fill-opacity="0.9"/>
<path d="M43.0536 93.079C43.9955 93.079 44.7606 93.8441 44.7606 94.786C44.7606 95.7297 43.9955 96.4948 43.0536 96.4948C42.1099 96.4948 41.3447 95.7297 41.3447 94.786C41.3447 93.8441 42.1099 93.079 43.0536 93.079Z" fill="#3190BD" fill-opacity="0.9"/>
<path d="M14.5898 106.173C15.5336 106.173 16.2987 106.936 16.2987 107.88C16.2987 108.824 15.5336 109.587 14.5898 109.587C13.6461 109.587 12.8828 108.824 12.8828 107.88C12.8828 106.936 13.648 106.173 14.5898 106.173Z" fill="#3190BD" fill-opacity="0.9"/>
</svg>
