<svg width="132" height="133" viewBox="0 0 132 133" fill="none" xmlns="http://www.w3.org/2000/svg">
<path d="M65.1791 53.7494C62.3875 53.7494 59.9683 55.9824 59.9683 58.9603C59.9683 61.9382 62.2012 64.1712 65.1791 64.1712C67.9708 64.1712 70.3901 61.9382 70.3901 58.9603C70.392 55.9824 67.9708 53.7494 65.1791 53.7494ZM65.1791 61.752C63.6893 61.752 62.3875 60.4502 62.3875 58.9603C62.3875 57.4704 63.6893 56.1686 65.1791 56.1686C66.669 56.1686 67.9709 57.4704 67.9709 58.9603C67.9709 60.4502 66.669 61.752 65.1791 61.752Z" fill="#3190BD" fill-opacity="0.9"/>
<path d="M57.9226 73.1051C57.3639 73.8501 57.9226 74.9675 58.8538 74.9675C59.2244 74.9675 59.5969 74.7812 59.785 74.595C62.3904 71.2446 67.972 71.2446 70.5793 74.595C70.9517 75.1537 71.6948 75.1537 72.2535 74.7812C72.814 74.4088 72.8141 73.6657 72.4416 73.1051C68.9032 68.6373 61.4592 68.6373 57.9226 73.1051Z" fill="#3190BD" fill-opacity="0.9"/>
<path d="M56.4325 69.1959C56.06 69.7546 56.0599 70.4996 56.6186 70.872C57.1792 71.2445 57.9223 71.2445 58.2947 70.6858C61.6433 66.4061 68.9029 66.4061 72.067 70.6858C72.2533 71.0583 72.6256 71.0583 72.9981 71.0583C73.9293 71.0583 74.488 69.9409 73.9293 69.1959C71.8825 66.5905 68.7185 65.1024 65.1818 65.1024C61.6452 65.1024 58.2948 66.5905 56.4325 69.1959Z" fill="#3190BD" fill-opacity="0.9"/>
<path d="M43.0325 34.5801C44.3694 34.5801 45.4536 35.6624 45.4536 36.9993C45.4536 38.3361 44.3694 39.4185 43.0325 39.4185C41.6957 39.4185 40.6133 38.3361 40.6133 36.9993C40.6133 35.6624 41.6957 34.5801 43.0325 34.5801Z" fill="#3190BD" fill-opacity="0.9"/>
<path d="M36.1455 34.5801C37.4823 34.5801 38.5665 35.6624 38.5665 36.9993C38.5665 38.3361 37.4823 39.4185 36.1455 39.4185C34.8086 39.4185 33.728 38.3361 33.728 36.9993C33.728 35.6624 34.8105 34.5801 36.1455 34.5801Z" fill="#3190BD" fill-opacity="0.9"/>
<path d="M29.0739 34.5801C30.4107 34.5801 31.4931 35.6624 31.4931 36.9993C31.4931 38.3361 30.4107 39.4185 29.0739 39.4185C27.737 39.4185 26.6528 38.3361 26.6528 36.9993C26.6528 35.6624 27.7389 34.5801 29.0739 34.5801Z" fill="#3190BD" fill-opacity="0.9"/>
<path d="M32.6082 25.2743C35.2136 25.2743 37.2604 23.2275 37.2604 20.6221C37.2604 18.0166 35.2136 15.9698 32.6082 15.9698C30.0027 15.9698 27.9561 18.0166 27.9561 20.6221C27.9561 23.2275 30.0027 25.2743 32.6082 25.2743ZM32.6082 18.3872C33.9118 18.3872 35.0293 19.5028 35.0293 20.8064C35.0293 22.1101 33.9136 23.2256 32.6082 23.2256C31.3064 23.2256 30.189 22.1101 30.189 20.8064C30.1909 19.3184 31.3064 18.3872 32.6082 18.3872Z" fill="#3190BD" fill-opacity="0.9"/>
<path d="M97.1914 24.1566C100.728 24.1566 103.52 21.3649 103.52 17.8283C103.52 14.2917 100.728 11.5 97.1914 11.5C93.6567 11.5 90.8631 14.2917 90.8631 17.8283C90.6787 21.3649 93.6567 24.1566 97.1914 24.1566ZM97.1914 13.7348C99.4263 13.7348 101.287 15.5953 101.287 17.8302C101.287 20.0631 99.4263 21.9236 97.1914 21.9236C94.9585 21.9236 93.0961 20.0631 93.0961 17.8302C93.0961 15.5953 94.9585 13.7348 97.1914 13.7348Z" fill="#3190BD" fill-opacity="0.9"/>
<path d="M15.6743 27.6931C16.6 27.6931 17.3485 28.4436 17.3485 29.3692C17.3485 30.293 16.6 31.0435 15.6743 31.0435C14.7487 31.0435 14 30.293 14 29.3692C14 28.4417 14.7487 27.6931 15.6743 27.6931Z" fill="#3190BD" fill-opacity="0.9"/>
<path d="M48.2426 16.1542C49.1682 16.1542 49.9187 16.9046 49.9187 17.8303C49.9187 18.7541 49.1682 19.5046 48.2426 19.5046C47.3188 19.5046 46.5684 18.7541 46.5684 17.8303C46.5684 16.9046 47.3188 16.1542 48.2426 16.1542Z" fill="#3190BD" fill-opacity="0.9"/>
<path d="M80.8138 18.387C81.7395 18.387 82.4882 19.1374 82.4882 20.0612C82.4882 20.9869 81.7395 21.7355 80.8138 21.7355C79.8882 21.7355 79.1396 20.9869 79.1396 20.0612C79.1396 19.1374 79.8882 18.387 80.8138 18.387Z" fill="#3190BD" fill-opacity="0.9"/>
<path d="M59.9678 23.0388C60.8934 23.0388 61.6421 23.7893 61.6421 24.7149C61.6421 25.6406 60.8934 26.3892 59.9678 26.3892C59.0421 26.3892 58.2935 25.6387 58.2935 24.7149C58.2935 23.7893 59.0421 23.0388 59.9678 23.0388Z" fill="#3190BD" fill-opacity="0.9"/>
<path d="M115.804 27.6931C116.73 27.6931 117.479 28.4436 117.479 29.3692C117.479 30.293 116.73 31.0435 115.804 31.0435C114.879 31.0435 114.13 30.293 114.13 29.3692C114.128 28.4417 114.879 27.6931 115.804 27.6931Z" fill="#3190BD" fill-opacity="0.9"/>
<path d="M94.2162 95.2524C95.14 95.2524 95.8905 96.0029 95.8905 96.9286C95.8905 97.8524 95.14 98.6028 94.2162 98.6028C93.2905 98.6028 92.54 97.8524 92.54 96.9286C92.5382 96.0029 93.2905 95.2524 94.2162 95.2524Z" fill="#3190BD" fill-opacity="0.9"/>
<path d="M83.2337 101.022C84.1575 101.022 84.908 101.773 84.908 102.696C84.908 103.62 84.1575 104.371 83.2337 104.371C82.3081 104.371 81.5576 103.62 81.5576 102.696C81.5576 101.773 82.3099 101.022 83.2337 101.022Z" fill="#3190BD" fill-opacity="0.9"/>
<path d="M44.8926 102.14C45.8182 102.14 46.5668 102.89 46.5668 103.814C46.5668 104.739 45.8182 105.49 44.8926 105.49C43.9669 105.49 43.2183 104.739 43.2183 103.814C43.2183 102.89 43.9688 102.14 44.8926 102.14Z" fill="#3190BD" fill-opacity="0.9"/>
<path d="M104.265 28.8104L26.0957 28.8104C22.0004 28.8104 18.6519 32.159 18.6519 36.2543L18.6519 113.306C18.6519 117.401 22.0004 120.75 26.0957 120.75L104.265 120.75C108.36 120.75 111.709 117.401 111.709 113.306L111.709 36.2543C111.709 32.159 108.358 28.8104 104.265 28.8104ZM30.1911 93.5779C32.424 94.8797 34.4708 96.9283 35.5882 99.3475C35.9607 100.092 36.8919 100.279 37.4506 99.72C40.6147 96.7421 45.6376 96.7421 48.8017 100.092C49.1742 100.465 49.9191 100.651 50.2916 100.279C53.642 97.6733 58.4804 98.7888 60.529 102.325C60.9015 103.069 62.0189 103.069 62.5757 102.512C64.8087 99.3475 69.2765 99.1631 71.6939 101.953C72.2526 102.698 73.37 102.325 73.7406 101.581C75.603 96.3696 81.557 93.9485 86.3973 96.1834C86.956 96.5558 87.6991 96.1834 87.8853 95.6247C89.7477 90.7844 94.5861 87.9946 99.797 88.3652L99.797 109.211L30.1911 109.211L30.1911 93.5779ZM99.9832 56.7273L89.5614 56.7273C89.0027 56.7273 88.4459 57.286 88.4459 57.8429C88.4459 58.3997 89.0046 58.9584 89.5614 58.9584L99.9832 58.9584L99.9832 61.3777L89.5614 61.3777C89.0027 61.3777 88.4459 61.9364 88.4459 62.4951C88.4459 63.0538 89.0046 63.6106 89.5614 63.6106L99.9832 63.6106L99.9832 66.0298L89.5614 66.0298C89.0027 66.0298 88.4459 66.5886 88.4459 67.1473C88.4459 67.706 89.0046 68.2628 89.5614 68.2628L99.9832 68.2628L99.9832 70.682L89.5614 70.682C89.0027 70.682 88.4459 71.2407 88.4459 71.7994C88.4459 72.3582 89.0046 72.915 89.5614 72.915L99.9832 72.915L99.9832 75.3342L89.5614 75.3342C89.0027 75.3342 88.4459 75.8929 88.4459 76.4498C88.4459 77.0085 89.0046 77.5672 89.5614 77.5672L99.9832 77.5672L99.9832 85.756C94.3998 85.1973 89.0027 88.1753 86.3973 93.3862C83.9762 92.6431 81.3707 92.4568 79.1377 93.1999L79.1377 90.4083C79.1377 89.8495 78.5791 89.2927 78.0222 89.2927C77.4635 89.2927 76.9048 89.8514 76.9048 90.4083L76.9048 94.3173C75.0443 95.4329 73.37 96.9228 72.4388 98.9695C69.2747 96.5503 64.8069 96.9228 62.017 99.7145C61.2721 98.7833 60.5271 98.0384 59.4116 97.4797L59.4116 90.4083C59.4116 89.8495 58.8529 89.2927 58.296 89.2927C57.7373 89.2927 57.1786 89.8514 57.1786 90.4083L57.1786 96.5503C54.7575 95.9916 52.1539 96.3641 50.1053 97.6659C46.3843 94.5017 41.1716 94.3155 37.2625 96.921C35.5882 94.3155 33.169 92.0807 30.3773 90.7789L30.3773 77.5654L40.7991 77.5654C41.3578 77.5654 41.9146 77.0067 41.9146 76.4479C41.9146 75.8892 41.356 75.3324 40.7991 75.3324L30.3773 75.3324L30.3773 72.9132L40.7991 72.9132C41.3578 72.9132 41.9146 72.3545 41.9146 71.7976C41.9146 71.2389 41.356 70.6802 40.7991 70.6802L30.3773 70.6802L30.3773 68.261L40.7991 68.261C41.3578 68.261 41.9146 67.7023 41.9146 67.1454C41.9146 66.5867 41.356 66.028 40.7991 66.028L30.3773 66.028L30.3773 63.6088L40.7991 63.6088C41.3578 63.6088 41.9146 63.0501 41.9146 62.4932C41.9146 61.9345 41.356 61.3777 40.7991 61.3777L30.3773 61.3777L30.3773 58.9566L40.7991 58.9566C41.3578 58.9566 41.9146 58.3979 41.9146 57.841C41.9146 57.2842 41.356 56.7254 40.7991 56.7254L30.3773 56.7254L30.3773 54.3062L54.2007 54.3062C50.8503 60.6345 49.9209 67.8922 51.4071 74.7792C49.9191 77.0122 48.9879 79.4314 48.9879 82.2231C48.9879 83.8992 49.3604 85.5735 50.1053 87.2496C50.4778 88.1789 51.7796 88.1789 52.152 87.2496C52.7107 85.946 53.642 84.6442 54.7575 83.5267C55.13 84.0854 55.5007 84.8286 55.875 85.3873C56.2475 85.946 56.9905 86.1322 57.5492 85.5735C57.9216 85.3873 58.1079 85.0148 58.4804 84.8286C58.8528 88.7377 61.0858 92.2743 64.4344 94.5073C64.8068 94.6935 65.3656 94.6935 65.7381 94.5073C69.0866 92.2743 71.3215 88.7377 71.6921 84.8286C72.0646 85.0148 72.2508 85.201 72.6233 85.5735C72.8114 85.7597 73.1819 85.946 73.5543 85.7597C73.9268 85.7597 74.1131 85.5735 74.2975 85.201C74.6699 84.6423 75.0424 84.0855 75.4149 83.3405C76.5323 84.4561 77.4635 85.5735 78.0222 87.0634C78.3928 87.9945 79.6965 87.9945 80.0671 87.0634C81.7433 83.1543 81.3708 78.5021 78.7653 74.7792C80.2552 67.894 79.324 60.6345 75.9736 54.3062L99.7951 54.3062L99.7951 56.7254L99.9832 56.7254L99.9832 56.7273ZM53.642 81.48C52.8971 82.2231 52.1521 82.968 51.4071 83.8992C51.0365 82.0387 51.4071 79.9901 52.152 78.1296C52.7107 79.247 53.0833 80.3626 53.642 81.48ZM69.4609 83.713C69.4609 87.0634 67.7867 90.2275 65.1812 92.2743C62.5758 90.2275 60.9014 87.0634 60.9014 83.713C63.505 82.7836 66.6692 82.5974 69.4609 83.713ZM78.0222 78.1296C78.7653 79.9901 79.1378 81.8506 78.7653 83.8992C78.2066 82.968 77.4635 82.2231 76.5324 81.48C77.0911 80.3626 77.6497 79.247 78.0222 78.1296ZM73.1819 82.968C68.5297 79.8039 62.2015 79.6177 57.363 82.968C49.7311 70.4977 52.8952 53.9338 65.3656 45.1862C77.6497 53.9356 80.8139 70.6857 73.1819 82.968ZM58.108 42.7688L58.108 38.1167L109.291 38.1167L109.291 42.7688L58.108 42.7688ZM109.289 35.8818L58.106 35.8818L58.106 31.2278L104.263 31.2278C106.87 31.2296 109.103 33.2764 109.289 35.8818ZM26.0957 31.2296L55.8731 31.2296L55.8731 42.9551L20.8829 42.9551L20.8829 36.2543C20.8848 33.4626 23.3059 31.2296 26.0957 31.2296ZM104.265 118.331L26.0957 118.331C23.304 118.331 20.8848 116.098 20.8848 113.12L20.8848 45.1881L61.6427 45.1881C59.2217 47.2348 57.1768 49.6559 55.5007 52.2613L29.0736 52.2613C28.5149 52.2613 27.9563 52.82 27.9563 53.3769C27.9563 62.4969 27.9563 104 27.9563 110.328C27.9563 110.887 28.5168 111.444 29.0736 111.444L101.285 111.444C101.844 111.444 102.402 110.885 102.402 110.328C102.402 108.281 102.402 54.8649 102.402 53.3769C102.402 52.8182 101.844 52.2613 101.285 52.2613L74.8563 52.2613C73.182 49.6559 71.1352 47.2348 68.716 45.1881L109.474 45.1881L109.474 113.306C109.289 116.098 107.055 118.331 104.265 118.331Z" fill="#3190BD" fill-opacity="0.9"/>
<path d="M73.3699 88.1791C72.8112 88.1791 72.2524 88.7378 72.2524 89.2965L72.2524 92.8313C72.2524 93.39 72.813 93.9469 73.3699 93.9469C73.9286 93.9469 74.4873 93.3882 74.4873 92.8313L74.4873 89.2965C74.4855 88.7378 73.9286 88.1791 73.3699 88.1791Z" fill="#3190BD" fill-opacity="0.9"/>
<path d="M53.4547 88.1791C52.896 88.1791 52.3374 88.7378 52.3374 89.2965L52.3374 91.7157C52.3374 92.2744 52.896 92.8313 53.4547 92.8313C54.0134 92.8313 54.5704 92.2726 54.5704 91.7157L54.5704 89.2965C54.7585 88.7378 54.1997 88.1791 53.4547 88.1791Z" fill="#3190BD" fill-opacity="0.9"/>
</svg>
