<svg width="122" height="121" viewBox="0 0 122 121" fill="none" xmlns="http://www.w3.org/2000/svg">
<path d="M112.519 102.511C114.565 100.672 115.79 98.015 115.79 95.1512V35.8681C115.79 30.3471 111.292 26.0555 105.977 26.0555H93.5075C92.6893 24.6236 91.0548 23.3962 89.2138 23.3962H83.8974V20.739H89.2138C91.871 20.739 94.1191 18.4909 94.1191 15.8317V5.40735C94.1191 2.74811 91.871 0.5 89.2138 0.5H31.3627C28.7034 0.5 26.4573 2.74811 26.4573 5.40735V15.8317C26.4573 18.4909 28.7054 20.739 31.3627 20.739H36.6771V23.3962H31.3627C29.5216 23.3962 27.8872 24.419 27.069 26.0555H15.8244C10.3054 26.0555 6.01177 30.5537 6.01177 35.8681V95.1512C6.01177 98.015 7.23913 100.672 9.28267 102.511C4.57989 102.718 0.899902 106.602 0.899902 111.506C0.899902 116.413 4.989 120.5 9.89432 120.5H112.106C117.011 120.5 121.1 116.411 121.1 111.506C120.9 106.805 117.22 102.92 112.519 102.511ZM104.343 42.6144H99.231C98.6174 42.6144 98.0057 43.2281 98.0057 43.8398C98.0057 44.4514 98.6194 45.0651 99.231 45.0651H104.343V47.7243H99.231C98.6174 47.7243 98.0057 48.338 98.0057 48.9496C98.0057 49.5633 98.6194 50.175 99.231 50.175H104.343V52.8342H99.231C98.6174 52.8342 98.0057 53.4479 98.0057 54.0595C98.0057 54.6712 98.6194 55.2848 99.231 55.2848H104.343V57.9441H99.231C98.6174 57.9441 98.0057 58.5578 98.0057 59.1694C98.0057 59.7831 98.6194 60.3947 99.231 60.3947H104.343V92.2853H99.231V76.9537C99.231 76.34 98.6174 75.7284 98.0057 75.7284H92.8958C92.2822 75.7284 91.6705 76.3421 91.6705 76.9537V92.2853H87.786V71.8478C87.786 71.2342 87.1723 70.6226 86.5607 70.6226H81.2442C80.6305 70.6226 80.0189 71.2362 80.0189 71.8478V92.2914H76.1343V79.4124C76.1343 78.7988 75.5206 78.1871 74.909 78.1871H69.7991C69.1855 78.1871 68.5738 78.8008 68.5738 79.4124V92.2914H64.6892V74.3005C64.6892 73.6868 64.0756 73.0752 63.4639 73.0752H58.3541C57.7404 73.0752 57.1287 73.6889 57.1287 74.3005V92.2914H53.2442V80.8443C53.2442 80.2286 52.6305 79.617 52.0189 79.617H46.909C46.2953 79.617 45.6837 80.2307 45.6837 80.8443V92.2914H41.7991V71.8478C41.7991 71.2342 41.1855 70.6226 40.5738 70.6226H35.4639C34.8503 70.6226 34.2386 71.2362 34.2386 71.8478V92.2914H30.1515V78.1851C30.1515 77.5714 29.5379 76.9598 28.9242 76.9598H23.8143C23.2007 76.9598 22.587 77.5735 22.587 78.1851V92.2914H17.4771V60.4008H22.587C23.2006 60.4008 23.8143 59.7871 23.8143 59.1755C23.8143 58.5618 23.2006 57.9501 22.587 57.9501H17.4771V55.2909H22.587C23.2006 55.2909 23.8143 54.6772 23.8143 54.0656C23.8143 53.4539 23.2006 52.8403 22.587 52.8403H17.4771V50.181H22.587C23.2006 50.181 23.8143 49.5674 23.8143 48.9557C23.8143 48.3421 23.2006 47.7304 22.587 47.7304H17.4771V45.0712H22.587C23.2006 45.0712 23.8143 44.4575 23.8143 43.8458C23.8143 43.2342 23.2006 42.6205 22.587 42.6205H17.4771V38.7359H26.4715V38.9405C26.4715 41.5998 28.7196 43.8479 31.3768 43.8479H36.6913V46.5071H31.3768C28.7176 46.5071 26.4715 48.7532 26.4715 51.4124V61.8367C26.4715 64.496 28.7196 66.7441 31.3768 66.7441H89.228C91.8852 66.7441 94.1333 64.496 94.1333 61.8367V51.4124C94.1333 48.7532 91.8852 46.5071 89.228 46.5071H83.9115V43.8479H89.228C91.8852 43.8479 94.1333 41.5998 94.1333 38.9405V38.7359H104.355V42.6144H104.343ZM96.5738 92.2914H93.9146V78.1851H96.5738V92.2914ZM85.1267 92.2914H82.4675V73.0752H85.1267V92.2914ZM73.6776 92.2914H71.0184V80.8443H73.6776V92.2914ZM62.026 92.2914H59.3687V75.7324H62.026V92.2914ZM50.5789 92.2914H47.9217V82.0697H50.5789V92.2914ZM39.1298 92.2914H36.4726V73.0752H39.1298V92.2914ZM27.6827 92.2914H25.0254V79.4124H27.6827V92.2914ZM89.0093 48.9517C90.4412 48.9517 91.4619 49.9744 91.4619 51.4043V61.8286C91.4619 63.2605 90.4391 64.2833 89.0093 64.2833H31.3627C29.9308 64.2833 28.908 63.2605 28.908 61.8286V51.4043C28.908 49.9744 29.9308 48.9517 31.3627 48.9517C33.8153 48.9517 86.5566 48.9517 89.0093 48.9517ZM81.2422 46.2945H39.1318V43.6372H81.2422V46.2945ZM28.908 15.8357V5.41143C28.908 3.97953 29.9308 2.95673 31.3627 2.95673H89.2138C90.6457 2.95673 91.6665 3.97953 91.6665 5.41143V15.8357C91.6665 17.2676 90.6437 18.2884 89.2138 18.2884C86.7612 18.2884 34.0199 18.2884 31.3627 18.2884C29.9308 18.2884 28.908 17.0611 28.908 15.8357ZM39.1298 20.743H81.2402V23.4003H39.1298V20.743ZM31.3627 25.8509C34.2244 25.8509 86.352 25.8509 89.2138 25.8509C90.6457 25.8509 91.6665 26.8737 91.6665 28.3056V38.7299C91.6665 40.1598 90.6437 41.1825 89.2138 41.1825C86.352 41.1825 34.2244 41.1825 31.3627 41.1825C29.9308 41.1825 28.908 40.1598 28.908 38.7299V28.3056C28.908 27.0782 29.9308 25.8509 31.3627 25.8509ZM8.46647 95.1512V35.8681C8.46647 31.779 11.7373 28.5081 15.8244 28.5081H26.4553V36.2772H16.2336C15.6199 36.2772 15.0082 36.8909 15.0082 37.5026V93.7193C15.0082 94.3329 15.6219 94.9446 16.2336 94.9446C36.0634 94.9446 87.7819 94.9446 105.773 94.9446C106.386 94.9446 106.998 94.3309 106.998 93.7193V37.5026C106.998 36.8889 106.384 36.2772 105.773 36.2772H94.3257V28.5081H105.773C109.862 28.5081 113.131 31.779 113.131 35.8681V95.1512C113.131 99.2423 109.86 102.511 105.773 102.511C95.1419 102.511 28.2963 102.511 17.2563 102.511H15.8244C11.7373 102.511 8.46647 99.2403 8.46647 95.1512ZM91.4639 105.168H102.911V107.828H91.4639V105.168ZM49.3515 105.168H72.4503V107.828H49.3515V105.168ZM18.6882 105.168H30.1374V107.828H18.6882V105.168ZM111.905 117.843H9.69382C6.21837 117.843 3.35661 114.981 3.35661 111.506C3.35661 108.03 6.21837 105.168 9.69382 105.168C14.5991 105.168 13.9875 105.168 16.031 105.168V109.053C16.031 109.667 16.6447 110.278 17.2584 110.278H31.3627C31.9763 110.278 32.588 109.665 32.588 109.053V105.168H46.6923V109.053C46.6923 109.667 47.306 110.278 47.9196 110.278H73.4731C74.0867 110.278 74.6984 109.665 74.6984 109.053V105.168H88.8027V109.053C88.8027 109.667 89.4164 110.278 90.03 110.278H104.134C104.748 110.278 105.36 109.665 105.36 109.053V105.168C107.201 105.168 108.631 105.168 111.697 105.168C115.172 105.168 118.032 108.03 118.032 111.506C118.032 114.981 115.381 117.843 111.905 117.843Z" fill="#3190BD" fill-opacity="0.9"/>
<path d="M113.746 19.5137C114.761 19.5137 115.585 20.338 115.585 21.3547C115.585 22.3694 114.761 23.1937 113.746 23.1937C112.73 23.1937 111.905 22.3694 111.905 21.3547C111.905 20.338 112.73 19.5137 113.746 19.5137Z" fill="#3190BD" fill-opacity="0.9"/>
<path d="M97.1877 9.29395C98.2024 9.29395 99.0267 10.1162 99.0267 11.1329C99.0267 12.1496 98.2024 12.9719 97.1877 12.9719C96.171 12.9719 95.3467 12.1496 95.3467 11.1329C95.3467 10.1162 96.171 9.29395 97.1877 9.29395Z" fill="#3190BD" fill-opacity="0.9"/>
<path d="M19.302 4.18408C20.3167 4.18408 21.1409 5.0064 21.1409 6.02311C21.1409 7.03982 20.3167 7.86208 19.302 7.86208C18.2853 7.86208 17.4609 7.03982 17.4609 6.02311C17.4609 5.0064 18.2853 4.18408 19.302 4.18408Z" fill="#3190BD" fill-opacity="0.9"/>
<path d="M3.96839 23.3982C4.9851 23.3982 5.8094 24.2225 5.8094 25.2372C5.8094 26.2539 4.9851 27.0782 3.96839 27.0782C2.95371 27.0782 2.12939 26.2539 2.12939 25.2372C2.12939 24.2225 2.95371 23.3982 3.96839 23.3982Z" fill="#3190BD" fill-opacity="0.9"/>
<path d="M82.4675 60.4008C84.511 60.4008 86.352 58.7644 86.352 56.5163C86.352 54.4707 84.7156 52.6317 82.4675 52.6317C80.4239 52.6317 78.585 54.2682 78.585 56.5163C78.7875 58.7644 80.4239 60.4008 82.4675 60.4008ZM82.4675 55.2889C83.0811 55.2889 83.6948 55.9026 83.6948 56.5142C83.6948 57.1279 83.0811 57.7396 82.4675 57.7396C81.8538 57.7396 81.2422 57.3325 81.2422 56.5142C81.2422 55.9026 81.8558 55.2889 82.4675 55.2889Z" fill="#3190BD" fill-opacity="0.9"/>
<path d="M72.2478 60.4008C74.2914 60.4008 76.1304 58.7644 76.1304 56.5163C76.1304 54.4707 74.4939 52.6317 72.2478 52.6317C70.2023 52.6317 68.3633 54.2682 68.3633 56.5163C68.5678 58.7644 70.2023 60.4008 72.2478 60.4008ZM72.2478 55.2889C72.8615 55.2889 73.4731 55.9026 73.4731 56.5142C73.4731 57.1279 72.8595 57.7396 72.2478 57.7396C71.6342 57.7396 71.0205 57.3325 71.0205 56.5142C71.0205 55.9026 71.6342 55.2889 72.2478 55.2889Z" fill="#3190BD" fill-opacity="0.9"/>
<path d="M35.2453 57.9481H62.0261C62.6398 57.9481 63.2514 57.3344 63.2514 56.7187C63.2514 56.105 62.6377 55.4934 62.0261 55.4934H35.2453C34.6317 55.4934 34.02 56.107 34.02 56.7187C34.02 57.3344 34.6337 57.9481 35.2453 57.9481Z" fill="#3190BD" fill-opacity="0.9"/>
<path d="M82.4675 37.5046C84.511 37.5046 86.352 35.8681 86.352 33.62C86.352 31.3719 84.7156 29.7355 82.4675 29.7355C80.4239 29.7355 78.585 31.3719 78.585 33.62C78.7875 35.6656 80.4239 37.5046 82.4675 37.5046ZM82.4675 32.3948C83.0811 32.3948 83.6948 33.0084 83.6948 33.62C83.6948 34.2337 83.0811 34.8454 82.4675 34.8454C81.8538 34.8454 81.2422 34.2317 81.2422 33.62C81.2422 32.8038 81.8558 32.3948 82.4675 32.3948Z" fill="#3190BD" fill-opacity="0.9"/>
<path d="M72.2478 37.5046C74.2914 37.5046 76.1304 35.8681 76.1304 33.62C76.1304 31.3719 74.4939 29.7355 72.2478 29.7355C70.2023 29.7355 68.3633 31.3719 68.3633 33.62C68.5678 35.6656 70.2023 37.5046 72.2478 37.5046ZM72.2478 32.3948C72.8615 32.3948 73.4731 33.0084 73.4731 33.62C73.4731 34.2337 72.8595 34.8454 72.2478 34.8454C71.6342 34.8454 71.0205 34.2317 71.0205 33.62C71.0205 32.8038 71.6342 32.3948 72.2478 32.3948Z" fill="#3190BD" fill-opacity="0.9"/>
<path d="M35.2453 34.8454H62.0261C62.6398 34.8454 63.2514 34.2317 63.2514 33.6201C63.2514 33.0064 62.6377 32.3948 62.0261 32.3948H35.2453C34.6317 32.3948 34.02 33.0084 34.02 33.6201C34.02 34.2337 34.6337 34.8454 35.2453 34.8454Z" fill="#3190BD" fill-opacity="0.9"/>
<path d="M82.4675 14.4058C84.511 14.4058 86.352 12.7694 86.352 10.5213C86.352 8.27317 84.7156 6.63672 82.4675 6.63672C80.4239 6.63672 78.585 8.27317 78.585 10.5213C78.585 12.7694 80.4239 14.4058 82.4675 14.4058ZM82.4675 9.29396C83.0811 9.29396 83.6948 9.90765 83.6948 10.5193C83.6948 11.133 83.0811 11.7446 82.4675 11.7446C81.8538 11.7446 81.2422 11.3355 81.2422 10.5193C81.2422 9.90765 81.8558 9.29396 82.4675 9.29396Z" fill="#3190BD" fill-opacity="0.9"/>
<path d="M72.2478 14.4058C74.2914 14.4058 76.1304 12.7694 76.1304 10.5213C76.1304 8.27317 74.4939 6.63672 72.2478 6.63672C70.2023 6.63672 68.3633 8.27317 68.3633 10.5213C68.3633 12.7694 70.2023 14.4058 72.2478 14.4058ZM72.2478 9.29396C72.8615 9.29396 73.4731 9.90765 73.4731 10.5193C73.4731 11.133 72.8595 11.7446 72.2478 11.7446C71.6342 11.7446 71.0205 11.3355 71.0205 10.5193C71.0205 9.90765 71.6342 9.29396 72.2478 9.29396Z" fill="#3190BD" fill-opacity="0.9"/>
<path d="M63.4579 10.5213C63.4579 9.90763 62.8443 9.29602 62.2326 9.29602H35.2473C34.6336 9.29602 34.022 9.90965 34.022 10.5213C34.022 11.135 34.6357 11.7466 35.2473 11.7466H62.0281C62.8443 11.9512 63.4579 11.3375 63.4579 10.5213Z" fill="#3190BD" fill-opacity="0.9"/>
<path d="M109.453 14.4058C112.928 14.4058 115.79 11.544 115.79 8.06658C115.79 4.59114 112.928 1.72937 109.453 1.72937C105.977 1.72937 103.116 4.59114 103.116 8.06658C103.116 11.544 105.773 14.4058 109.453 14.4058ZM109.453 4.184C111.496 4.184 113.335 5.82051 113.335 8.06658C113.335 10.1122 111.701 11.9511 109.453 11.9511C107.407 11.9511 105.568 10.3147 105.568 8.06658C105.568 5.81848 107.205 4.184 109.453 4.184Z" fill="#3190BD" fill-opacity="0.9"/>
<path d="M13.5786 19.5137C16.4404 19.5137 18.6885 17.2676 18.6885 14.4059C18.6885 11.5441 16.4404 9.29602 13.5786 9.29602C10.7168 9.29602 8.46875 11.5441 8.46875 14.4059C8.46673 17.2676 10.7168 19.5137 13.5786 19.5137ZM13.5786 11.9512C15.0105 11.9512 16.2358 13.1765 16.2358 14.6104C16.2358 16.0403 15.0105 17.2697 13.5786 17.2697C12.1467 17.2697 10.9194 16.0423 10.9194 14.6104C10.9194 12.974 12.1467 11.9512 13.5786 11.9512Z" fill="#3190BD" fill-opacity="0.9"/>
</svg>
