<svg width="130" height="121" viewBox="0 0 130 121" fill="none" xmlns="http://www.w3.org/2000/svg">
<path d="M27.2405 80.1139C23.7294 77.93 26.6957 74.2676 28.1529 71.9256C29.6533 69.5141 31.733 64.9003 35.3574 67.2141C38.7763 69.3971 36.0182 72.8743 34.5625 75.213C32.9376 77.8245 31.0971 82.1928 27.2405 80.1139C25.6741 79.2694 24.2764 81.6556 25.845 82.501C29.6703 84.5633 33.0999 82.7964 35.2086 79.4076C36.7519 76.9274 39.444 73.8811 39.7357 70.8706C40.1869 66.2153 35.4606 62.6399 31.0971 64.3419C28.1095 65.5071 26.557 69.2589 24.9667 71.8151C24.1086 73.1941 23.1387 74.5145 22.9009 76.1631C22.541 78.6584 23.6985 81.1653 25.846 82.501C27.3598 83.4432 28.7497 81.0529 27.2405 80.1139Z" fill="#3190BD" fill-opacity="0.9"/>
<path d="M35.683 85.3655C31.518 82.7748 36.8258 76.8072 38.4484 74.1999C40.0972 71.5502 43.0834 64.2175 47.2691 66.8907C51.3299 69.4842 46.3792 75.0426 44.7451 77.6683C42.9355 80.5765 40.1511 87.7743 35.683 85.3655C34.1166 84.521 32.719 86.9072 34.2876 87.7526C37.0254 89.2284 40.3558 88.8874 42.4484 86.4505C43.382 85.3636 44.0677 83.9888 44.8193 82.7812C46.876 79.4758 49.3612 76.2032 51.052 72.6919C53.9068 66.7617 46.5354 60.7983 41.3747 64.9662C40.1668 65.9416 39.4323 67.3865 38.6244 68.6849C37.3351 70.7568 36.0456 72.8292 34.7563 74.9011C33.8549 76.3497 32.8365 77.7739 32.048 79.2897C30.5033 82.2606 31.4061 85.9599 34.2876 87.7526C35.8033 88.6953 37.1922 86.3045 35.683 85.3655Z" fill="#3190BD" fill-opacity="0.9"/>
<path d="M44.1257 90.6175C40.3308 88.2566 44.1556 83.8478 45.6879 81.3856C47.2607 78.8585 49.6427 73.1356 53.5436 75.6273C57.3071 78.0315 53.5343 82.3638 51.9814 84.8592C50.2869 87.5826 48.2049 92.8166 44.1257 90.6175C42.5593 89.7729 41.1617 92.1591 42.7303 93.0046C45.0308 94.2449 47.7385 94.2666 49.88 92.6503C51.0855 91.7408 51.7901 90.3987 52.5717 89.1422C53.6237 87.4518 54.6754 85.7613 55.7274 84.0708C56.48 82.8614 57.4053 81.6358 57.7606 80.2366C59.0808 75.0376 53.4772 70.514 48.6883 73.026C45.7602 74.5616 44.034 78.8101 42.3704 81.4838C41.4939 82.8922 40.3225 84.3744 39.9082 86.0073C39.229 88.6828 40.3847 91.5454 42.7303 93.0046C44.2455 93.9473 45.6353 91.5565 44.1257 90.6175Z" fill="#3190BD" fill-opacity="0.9"/>
<path d="M52.5693 95.8694C49.3518 93.8679 51.6522 90.6211 53.0453 88.3828C54.4886 86.0634 56.46 82.2185 59.8189 84.3633C62.9429 86.3578 60.8484 89.431 59.4627 91.6573C57.9033 94.1628 56.1881 97.8201 52.5693 95.8694C51.0029 95.0248 49.6052 97.411 51.1738 98.2565C53.5222 99.5226 56.3301 99.5152 58.4637 97.7943C59.8968 96.6383 60.7719 94.7857 61.7305 93.2455C62.6927 91.6992 63.8917 90.1608 64.1595 88.3142C64.5194 85.8317 63.3756 83.2907 61.2143 81.9762C58.9535 80.6013 55.9881 80.7741 53.9245 82.4383C52.4923 83.5934 51.6121 85.4534 50.6577 86.9872C49.6946 88.5349 48.496 90.0719 48.2287 91.9185C47.867 94.4162 49.0218 96.918 51.1738 98.2565C52.6886 99.1987 54.0785 96.8079 52.5693 95.8694Z" fill="#3190BD" fill-opacity="0.9"/>
<path d="M95.3034 35.8322C90.885 37.6628 86.8583 37.4605 82.8492 34.6707C79.9745 32.6706 77.9441 30.9346 74.2649 30.907C72.2967 30.8922 70.3281 30.906 68.3594 30.9055C66.5129 30.9051 64.4857 30.7075 62.6898 31.2212C59.5724 32.1132 56.9369 34.9522 54.5144 36.9689C51.3268 39.6228 47.8568 42.0785 45.0573 45.1604C43.7145 46.6385 41.7836 48.9785 43.0956 51.044C44.4053 53.1063 47.855 53.7025 50.0858 53.6237C54.7872 53.4583 59.4715 51.0118 63.1222 48.1631C62.5636 48.2349 62.0051 48.3073 61.4471 48.3792C68.9682 53.0617 76.4888 57.7437 84.0099 62.4262C88.72 65.3584 93.4297 68.2909 98.1398 71.2231C99.3761 71.9925 100.646 72.7265 101.856 73.537C104.492 75.3016 104.778 79.627 101.009 80.3407C98.5739 80.8019 95.4412 78.0006 93.5241 76.8078C91.3739 75.4702 89.2233 74.1327 87.0731 72.7947C85.5579 71.852 84.168 74.2428 85.6777 75.1818C87.8279 76.5193 89.9786 77.8568 92.1288 79.1948C94.1006 80.4213 96.2255 82.2228 98.4854 82.9038C102.495 84.1123 106.684 81.0747 106.706 76.8718C106.718 74.2585 105.195 72.3957 103.11 71.0614C93.3734 64.8308 83.4763 58.8379 73.663 52.7285C70.0561 50.4829 66.4493 48.2377 62.8429 45.992C62.2714 45.6363 61.6498 45.8322 61.1678 46.2081C61.6802 45.8082 60.7747 46.4874 60.6166 46.5984C59.959 47.0587 59.2807 47.4904 58.589 47.8977C56.5586 49.0942 54.3821 50.1069 52.066 50.5981C50.8679 50.852 49.602 50.9722 48.384 50.7796C47.6158 50.6584 45.5615 50.1811 45.4559 49.3794C45.3375 48.4782 47.1812 46.9241 47.701 46.3989C48.9844 45.1019 50.3771 43.9141 51.7831 42.753C54.4517 40.5493 57.113 38.3267 59.8106 36.1584C61.689 34.6491 63.3267 33.6949 65.7765 33.6691C68.8972 33.6359 72.1474 33.4166 75.2593 33.6861C79.1694 34.0252 81.9657 38.0254 85.6781 39.2556C89.1799 40.4162 92.7002 39.8808 96.0389 38.4976C97.6587 37.8268 96.9486 35.1508 95.3034 35.8322Z" fill="#3190BD" fill-opacity="0.9"/>
<path d="M84.5466 74.4787C86.0508 75.4144 87.5545 76.3502 89.0586 77.286C89.8835 77.7992 90.7397 78.2687 91.2471 79.1446C92.4996 81.3082 91.0742 84.2201 88.5604 84.4758C86.4964 84.6855 84.4217 82.8549 82.7499 81.815C81.4185 80.9866 80.0872 80.1577 78.7559 79.3293C77.2412 78.3862 75.8513 80.777 77.3605 81.7164C81.5038 84.2957 87.5111 89.8361 92.2659 85.7475C95.4456 83.0134 95.0336 78.1089 91.7162 75.7066C89.8871 74.3824 87.859 73.2844 85.942 72.0916C84.4273 71.1489 83.0374 73.5397 84.5466 74.4787Z" fill="#3190BD" fill-opacity="0.9"/>
<path d="M77.3611 81.7163C78.5593 82.4623 79.7948 83.1681 80.9634 83.9583C83.6445 85.7722 83.7366 90.2815 79.8238 90.7492C77.2035 91.062 73.7575 87.9317 71.5709 86.5712C70.0562 85.6285 68.6663 88.0188 70.1755 88.9583C74.0736 91.3845 79.0726 95.8302 83.5297 92.0208C86.1836 89.753 86.4657 85.6345 84.1593 83.0189C82.7616 81.4344 80.5289 80.4318 78.757 79.3292C77.2418 78.3866 75.8519 80.7774 77.3611 81.7163Z" fill="#3190BD" fill-opacity="0.9"/>
<path d="M70.1753 88.9583C70.9702 89.4532 71.8425 89.895 72.5881 90.4604C75.0872 92.354 74.6098 96.6647 71.0863 97.0236C68.7928 97.2572 66.2384 94.9609 64.3845 93.8058C62.8702 92.8622 61.4804 95.253 62.9892 96.1929C66.5735 98.4261 70.7467 101.753 74.7923 98.2953C77.0075 96.4021 77.6323 93.1456 76.2913 90.5608C75.2904 88.6317 73.3407 87.6734 71.5706 86.5717C70.0559 85.6286 68.6661 88.0193 70.1753 88.9583Z" fill="#3190BD" fill-opacity="0.9"/>
<path d="M33.674 37.5932C36.7984 38.6911 40.0256 39.1302 43.2412 38.112C44.926 37.5784 46.437 36.7109 47.8499 35.6622C49.6462 34.3293 51.5052 31.5639 53.9651 32.9909C55.507 33.8856 56.9006 31.4971 55.3605 30.6037C51.7988 28.5373 49.5306 30.8341 46.809 32.9959C42.9855 36.0331 38.933 36.5178 34.4086 34.9273C32.727 34.3367 32.0035 37.0062 33.674 37.5932Z" fill="#3190BD" fill-opacity="0.9"/>
<path d="M108.797 60.6232C105.315 61.7953 102.642 64.7077 101.986 68.3559C101.674 70.0956 104.338 70.842 104.653 69.0907C105.135 66.4074 106.918 64.1691 109.532 63.2891C111.21 62.7242 110.49 60.0533 108.797 60.6232Z" fill="#3190BD" fill-opacity="0.9"/>
<path d="M26.311 64.252C25.4659 61.7442 23.3724 59.7805 20.7346 59.3078C18.9945 58.9959 18.248 61.6594 19.9996 61.9737C21.6733 62.2736 23.0913 63.3448 23.6447 64.9874C24.2101 66.664 26.8815 65.9443 26.311 64.252Z" fill="#3190BD" fill-opacity="0.9"/>
<path d="M99.4014 32.9124C103.493 29.9987 107.584 27.0845 111.675 24.1708C111.045 24.0054 110.415 23.84 109.784 23.675C115.672 35.2332 121.559 46.7913 127.446 58.349C127.612 57.7187 127.777 57.0884 127.942 56.4576C123.522 58.4904 119.102 60.5237 114.681 62.5565C115.312 62.7219 115.942 62.8872 116.573 63.0522C111.014 52.375 105.455 41.6978 99.8968 31.021C99.0751 29.4425 96.6881 30.8386 97.5093 32.4162C103.068 43.0934 108.627 53.7706 114.185 64.4473C114.553 65.1546 115.426 65.2425 116.077 64.9431C120.497 62.9103 124.917 60.8771 129.338 58.8443C130.043 58.5199 130.145 57.5648 129.833 56.9529C123.946 45.3948 118.058 33.8366 112.171 22.279C111.854 21.6551 110.863 21.3672 110.28 21.7832C106.188 24.697 102.097 27.6111 98.0055 30.5249C96.5687 31.5491 97.948 33.9477 99.4014 32.9124Z" fill="#3190BD" fill-opacity="0.9"/>
<path d="M31.9967 29.9365C27.9054 27.0228 23.8138 24.1087 19.7226 21.1949C19.1382 20.7784 18.1475 21.0691 17.8309 21.6907C11.9434 33.2488 6.05587 44.807 0.168826 56.3646C-0.144535 56.9797 -0.0449741 57.9293 0.664697 58.2555C5.08493 60.2888 9.50517 62.3215 13.9254 64.3543C14.5775 64.6543 15.4457 64.5718 15.8171 63.8585C21.3756 53.1813 26.9345 42.5041 32.493 31.8274C33.3137 30.2512 30.928 28.852 30.1054 30.4323C24.5469 41.1095 18.988 51.7867 13.4295 62.4634C14.0599 62.298 14.6904 62.1331 15.3213 61.9677C10.901 59.9349 6.4808 57.9017 2.06056 55.8689C2.226 56.4992 2.3914 57.1295 2.55638 57.7598C8.44388 46.2016 14.3314 34.644 20.2184 23.0858C19.588 23.2512 18.9576 23.4161 18.3268 23.5815C22.4184 26.4953 26.5096 29.4095 30.6008 32.3232C32.0529 33.3575 33.4353 30.9612 31.9967 29.9365Z" fill="#3190BD" fill-opacity="0.9"/>
</svg>
