<svg width="80" height="81" viewBox="0 0 80 81" fill="none" xmlns="http://www.w3.org/2000/svg">
<path d="M28.8817 57.2059C29.4659 57.529 29.9939 57.3136 30.2017 57.188L56.4505 41.4395C56.8452 41.2038 57.0862 40.7757 57.0862 40.3143C57.0862 39.8529 56.8452 39.4248 56.4505 39.189L30.2017 23.4406C29.7943 23.1971 29.2918 23.1922 28.8817 23.4227C28.469 23.656 28.2153 24.0943 28.2153 24.5659V56.0624C28.2153 56.5343 28.4669 56.9764 28.8817 57.2059ZM30.8399 26.8834L53.2209 40.3146L30.8399 53.7459V26.8834Z" fill="#814099"/>
<path d="M40.0001 0.375C17.9418 0.375 8.9797e-05 18.3199 8.9797e-05 40.3764C8.9797e-05 48.7273 2.54289 56.6964 7.36149 63.4582C6.77201 67.1132 5.10077 73.4188 0.384633 78.135C0.0105976 78.5094 -0.102382 79.0757 0.0976176 79.5652C0.30253 80.0547 0.779385 80.375 1.31237 80.375C1.78921 80.375 12.7439 80.3185 21.0225 75.5845C26.8306 78.722 33.3769 80.375 39.9997 80.375C62.058 80.375 79.9997 62.4326 79.9997 40.3764C79.9997 18.3203 62.0583 0.375 40.0001 0.375ZM77.3755 40.3764C77.3755 60.9845 60.6078 77.7504 40.0001 77.7504C33.5717 77.7504 27.2257 76.0845 21.6482 72.9291C21.238 72.6933 20.7205 72.7034 20.3155 72.9547C15.0664 76.1792 8.21763 77.2353 4.3422 77.5813C8.19728 72.5139 9.56078 66.6417 10.0373 63.3118C10.0885 62.9711 10.0015 62.6248 9.79621 62.348C5.10568 55.9452 2.62464 48.3476 2.62464 40.3764C2.62464 19.7655 19.3924 2.99992 39.9997 2.99992C60.6075 2.99957 77.3755 19.7655 77.3755 40.3764Z" fill="#141751"/>
<path d="M40.0255 69.8428C56.3066 69.8428 69.5526 56.5961 69.5526 40.3147C69.5526 24.0333 56.3066 10.7866 40.0255 10.7866C23.7448 10.7866 10.4985 24.0333 10.4985 40.3147C10.4989 56.5961 23.7448 69.8428 40.0255 69.8428ZM40.0255 13.4115C54.861 13.4115 66.928 25.4789 66.928 40.315C66.928 55.1508 54.861 67.2182 40.0255 67.2182C25.1901 67.2182 13.1231 55.1505 13.1231 40.315C13.1231 25.4789 25.1905 13.4115 40.0255 13.4115Z" fill="#141751"/>
</svg>
