<svg width="80" height="81" viewBox="0 0 80 81" fill="none" xmlns="http://www.w3.org/2000/svg">
<path d="M59.6236 29.7819L44.0145 20.4178C43.7095 20.2386 43.3381 20.2349 43.0332 20.4064C42.7264 20.5817 42.5376 20.9056 42.5376 21.2562V39.9882C42.5376 40.3388 42.728 40.6599 43.0332 40.8381C43.3766 41.0386 43.7745 40.9775 44.0145 40.8266L59.6236 31.4588C59.9189 31.2796 60.0981 30.9632 60.0981 30.6204C60.0979 30.2773 59.9189 29.9609 59.6236 29.7819ZM44.4888 38.2653V22.9788L57.2264 30.6201L44.4888 38.2653Z" fill="#814099"/>
<path d="M49.7575 14.0342C40.6134 14.0342 33.1729 21.4737 33.1729 30.6204C33.1729 39.7672 40.6134 47.2066 49.7575 47.2066C58.9014 47.2066 66.3422 39.7672 66.3422 30.6204C66.3422 21.4734 58.9014 14.0342 49.7575 14.0342ZM49.7575 45.2552C41.6879 45.2552 35.124 38.6887 35.124 30.6204C35.124 22.5521 41.6882 15.9856 49.7575 15.9856C57.8269 15.9856 64.391 22.5521 64.391 30.6204C64.391 38.6885 57.8269 45.2552 49.7575 45.2552Z" fill="#141751"/>
<path d="M2.51451 66.3841C0.748276 68.1488 -0.116919 70.2677 0.012691 72.5049C0.125159 74.4753 1.01113 76.3846 2.50308 77.8786C4.0275 79.4031 6.12334 80.375 8.32048 80.375C10.241 80.375 12.24 79.6319 14.0005 77.8711C14.0005 77.8711 29.7911 62.1064 34.9161 56.9581C39.3041 59.441 44.3662 60.8659 49.7576 60.8659C66.4337 60.8659 80.0005 47.2981 80.0005 30.6205C80 13.9428 66.4335 0.375 49.7571 0.375C33.081 0.375 19.5145 13.9428 19.5145 30.6202C19.5145 36.014 20.9402 41.0781 23.4244 45.4675C17.9374 50.9285 2.51451 66.3841 2.51451 66.3841ZM49.7571 58.9145C34.1574 58.9145 21.4657 46.2233 21.4657 30.6205C21.4657 15.0176 34.1576 2.32643 49.7571 2.32643C65.3568 2.32643 78.0488 15.0176 78.0488 30.6205C78.0488 46.2233 65.3568 58.9145 49.7571 58.9145ZM33.2005 55.9119C32.7413 56.3734 32.2823 56.8342 31.8083 57.3101C28.3688 55.0057 25.374 52.0096 23.0727 48.5742C23.5459 48.1028 24.0111 47.6394 24.4704 47.1825C26.7524 50.6553 29.7278 53.6303 33.2005 55.9119ZM3.89399 67.7638C3.89399 67.7638 16.9181 54.7124 21.6737 49.969C24.0127 53.3805 26.9937 56.3719 30.4065 58.716C26.0236 63.1096 12.621 76.4914 12.621 76.4914C11.2605 77.8558 9.62568 78.5493 7.99087 78.4236C6.49711 78.3361 5.03763 77.6537 3.88282 76.4989C2.7301 75.3441 2.04594 73.8844 1.96022 72.3942C1.86282 70.7251 2.53165 69.1246 3.89399 67.7638Z" fill="#141751"/>
<path d="M23.417 30.6202C23.417 45.1446 35.2323 56.963 49.7573 56.963C64.2822 56.963 76.0978 45.1446 76.0978 30.6202C76.0978 16.096 64.2822 4.27759 49.7573 4.27759C35.2323 4.27759 23.417 16.096 23.417 30.6202ZM25.3682 30.6202C25.3682 17.1706 36.3089 6.22875 49.7575 6.22875C63.2058 6.22875 74.1469 17.1706 74.1469 30.6202C74.1469 44.0698 63.2061 55.0116 49.7575 55.0116C36.3089 55.0116 25.3682 44.0698 25.3682 30.6202Z" fill="#141751"/>
<path d="M62.35 14.461C61.9251 14.1296 61.849 13.5158 62.1804 13.0929C62.5139 12.6623 63.1235 12.5937 63.5505 12.9215C69.0438 17.2051 72.1955 23.6576 72.1955 30.6205C72.1955 31.1579 71.7591 31.596 71.2199 31.596C70.6807 31.596 70.2443 31.1579 70.2443 30.6205C70.244 24.2633 67.3669 18.3714 62.35 14.461Z" fill="#3190BD" fill-opacity="0.9"/>
<path d="M56.0719 11.0768C55.9765 11.0768 55.8815 11.0614 55.7862 11.035C53.8371 10.4365 51.8095 10.1318 49.7573 10.1318C49.2181 10.1318 48.7817 9.69339 48.7817 9.15624C48.7817 8.61884 49.2181 8.18066 49.7573 8.18066C52.0038 8.18066 54.2236 8.51209 56.3576 9.16767C56.874 9.32767 57.1617 9.87261 57.0036 10.3872C56.876 10.8061 56.4893 11.0768 56.0719 11.0768Z" fill="#3190BD" fill-opacity="0.9"/>
</svg>
