<svg width="132" height="132" viewBox="0 0 132 132" fill="none" xmlns="http://www.w3.org/2000/svg">
<path d="M15.7051 79.2356L33.1138 61.8269L41.8181 70.5312L61.4029 50.9464L72.2833 61.8269L115.805 18.3051" stroke="#3190BD" stroke-opacity="0.9" stroke-width="2" stroke-miterlimit="10" stroke-linecap="round" stroke-linejoin="round"/>
<path d="M102.749 18.3051L115.806 18.3051L115.806 31.3616" stroke="#3190BD" stroke-opacity="0.9" stroke-width="2" stroke-miterlimit="10" stroke-linecap="round" stroke-linejoin="round"/>
<path d="M115.806 42.2421L115.806 114.053" stroke="#3190BD" stroke-opacity="0.9" stroke-width="2" stroke-miterlimit="10" stroke-linecap="round" stroke-linejoin="round"/>
<path d="M15.7051 92.2922L15.7051 114.053" stroke="#3190BD" stroke-opacity="0.9" stroke-width="2" stroke-miterlimit="10" stroke-linecap="round" stroke-linejoin="round"/>
<path d="M26.5859 77.0595L26.5859 114.053" stroke="#3190BD" stroke-opacity="0.9" stroke-width="2" stroke-miterlimit="10" stroke-linecap="round" stroke-linejoin="round"/>
<path d="M37.4658 83.5878L37.4658 114.053" stroke="#3190BD" stroke-opacity="0.9" stroke-width="2" stroke-miterlimit="10" stroke-linecap="round" stroke-linejoin="round"/>
<path d="M48.3467 79.2356L48.3467 114.053" stroke="#3190BD" stroke-opacity="0.9" stroke-width="2" stroke-miterlimit="10" stroke-linecap="round" stroke-linejoin="round"/>
<path d="M59.2266 68.3552L59.2266 114.053" stroke="#3190BD" stroke-opacity="0.9" stroke-width="2" stroke-miterlimit="10" stroke-linecap="round" stroke-linejoin="round"/>
<path d="M70.1074 74.8835L70.1074 114.053" stroke="#3190BD" stroke-opacity="0.9" stroke-width="2" stroke-miterlimit="10" stroke-linecap="round" stroke-linejoin="round"/>
<path d="M80.9873 70.5312L80.9873 114.053" stroke="#3190BD" stroke-opacity="0.9" stroke-width="2" stroke-miterlimit="10" stroke-linecap="round" stroke-linejoin="round"/>
<path d="M91.8682 59.6508L91.8682 114.053" stroke="#3190BD" stroke-opacity="0.9" stroke-width="2" stroke-miterlimit="10" stroke-linecap="round" stroke-linejoin="round"/>
<path d="M102.749 50.9462L102.749 114.053" stroke="#3190BD" stroke-opacity="0.9" stroke-width="2" stroke-miterlimit="10" stroke-linecap="round" stroke-linejoin="round"/>
</svg>
