<svg width="130" height="131" viewBox="0 0 130 131" fill="none" xmlns="http://www.w3.org/2000/svg">
<path d="M116.998 55.751H66.0817V75.7926H95.8734C95.3317 80.6676 92.0817 88.251 85.04 93.126C80.7067 96.376 74.2067 98.5427 66.0817 98.5427C51.9984 98.5427 39.54 89.3343 35.2067 75.7926C34.1234 72.5426 33.5817 68.751 33.5817 64.9593C33.5817 61.1676 34.1234 57.376 35.2067 54.126C35.7484 53.0426 35.7484 51.9593 36.29 51.4176C41.165 40.0426 52.54 31.9176 66.0817 31.9176C76.3734 31.9176 82.8734 36.251 87.2067 40.0426L102.373 24.876C93.165 16.751 80.7067 11.3343 66.0817 11.3343C44.9567 11.3343 26.54 23.251 17.8734 41.126C14.0817 48.7093 11.915 56.8343 11.915 65.501C11.915 74.1676 14.0817 82.2927 17.8734 89.876C26.54 107.751 44.9567 119.668 66.0817 119.668C80.7067 119.668 93.165 114.793 101.832 106.668C112.123 97.4593 118.082 83.376 118.082 66.5843C118.082 62.251 117.54 59.001 116.998 55.751Z" stroke="#3190BD" stroke-opacity="0.9" stroke-width="2" stroke-miterlimit="10" stroke-linecap="round" stroke-linejoin="round"/>
</svg>
