<svg width="131" height="131" viewBox="0 0 131 131" fill="none" xmlns="http://www.w3.org/2000/svg">
<path d="M102.354 85.9404C118.175 70.1193 118.175 44.4681 102.354 28.6468C86.5328 12.8256 60.8816 12.8256 45.0604 28.6467C29.2392 44.4679 29.2391 70.1191 45.0603 85.9403C60.8814 101.762 86.5326 101.762 102.354 85.9404Z" stroke="#3190BD" stroke-opacity="0.9" stroke-width="2" stroke-miterlimit="10"/>
<path d="M43.3196 103.297L27.7024 87.6797C26.7412 86.7185 25.183 86.7185 24.2216 87.6797L4.95441 106.947C-0.31944 112.221 -0.31944 120.771 4.95441 126.045C10.228 131.318 18.7786 131.318 24.0522 126.045L43.3196 106.777C44.2808 105.816 44.2808 104.258 43.3196 103.297Z" stroke="#3190BD" stroke-opacity="0.9" stroke-width="2" stroke-miterlimit="10" stroke-linejoin="round"/>
<path d="M31.6909 91.6699L41.4926 81.8685" stroke="#3190BD" stroke-opacity="0.9" stroke-width="2" stroke-miterlimit="10"/>
<path d="M39.3315 99.3085L49.1329 89.5068" stroke="#3190BD" stroke-opacity="0.9" stroke-width="2" stroke-miterlimit="10"/>
<path d="M73.7057 53.9088C76.8204 53.9088 79.3454 51.3838 79.3454 48.269C79.3454 45.1543 76.8204 42.6293 73.7057 42.6293C70.5909 42.6293 68.0659 45.1543 68.0659 48.269C68.0659 51.3838 70.5909 53.9088 73.7057 53.9088Z" stroke="#3190BD" stroke-opacity="0.9" stroke-width="2" stroke-miterlimit="10"/>
<path d="M73.7064 83.2353C73.7064 83.2353 90.6255 67.5894 90.6255 49.1786C90.6255 38.0859 83.0505 31.3498 73.7064 31.3498C64.3623 31.3498 56.7871 38.0859 56.7871 49.1786C56.7871 67.5894 73.7064 83.2353 73.7064 83.2353Z" stroke="#3190BD" stroke-opacity="0.9" stroke-width="2" stroke-miterlimit="10"/>
</svg>
