<svg width="34" height="34" viewBox="0 0 34 34" fill="none" xmlns="http://www.w3.org/2000/svg">
<path d="M26.1843 23.7532C24.2479 24.2182 22.2265 24.1956 20.301 23.6876C18.3755 23.1797 16.606 22.2021 15.151 20.8424C13.6961 19.4827 12.601 17.7835 11.9639 15.8967C11.3268 14.01 11.1676 11.9947 11.5005 10.0314C11.4499 10.0803 11.3964 10.1262 11.3404 10.1688C10.9438 10.4705 10.4479 10.5825 9.45626 10.8063L8.55667 11.0103C5.07167 11.7994 3.32917 12.1932 2.91409 13.5263C2.50042 14.858 3.68759 16.2477 6.06334 19.0258L6.67817 19.744C7.35251 20.5331 7.69109 20.9284 7.84267 21.4157C7.99426 21.9045 7.94326 22.4315 7.84126 23.484L7.74776 24.4431C7.38934 28.1505 7.20942 30.0035 8.29459 30.8266C9.37976 31.6511 11.0118 30.9003 14.2729 29.3972L15.1187 29.009C16.0452 28.5812 16.5084 28.3687 17 28.3687C17.4916 28.3687 17.9548 28.5812 18.8828 29.009L19.7257 29.3972C22.9883 30.8989 24.6203 31.6497 25.704 30.828C26.7906 30.0035 26.6107 28.1505 26.2523 24.4431L26.1843 23.7532Z" fill="#814099"/>
<path d="M12.9668 7.66137L12.5021 8.49437C11.9921 9.40954 11.7371 9.86712 11.3404 10.1689C11.3971 10.1264 11.4495 10.081 11.5005 10.0315C11.1675 11.995 11.3267 14.0104 11.9639 15.8973C12.601 17.7842 13.6962 19.4835 15.1514 20.8432C16.6065 22.2029 18.3762 23.1805 20.3019 23.6884C22.2276 24.1962 24.2492 24.2185 26.1857 23.7533L26.1573 23.4841C26.0568 22.4315 26.0058 21.9045 26.1573 21.4158C26.3089 20.9285 26.6461 20.5332 27.3218 19.7441L27.9367 19.0259C30.3124 16.2492 31.4996 14.8595 31.0845 13.5264C30.6708 12.1933 28.9283 11.798 25.4433 11.0104L24.5423 10.8064C23.5521 10.5825 23.0563 10.4706 22.6582 10.1689C22.2615 9.86712 22.0065 9.40954 21.4965 8.49437L21.0333 7.66137C19.2383 4.44271 18.3416 2.83337 17 2.83337C15.6584 2.83337 14.7617 4.44271 12.9668 7.66137Z" fill="#814099"/>
</svg>
